SplineFontDB: 3.2
FontName: Samaano-Wide-Thin-Slanted
FullName: Samaano Wide Thin Slanted
FamilyName: Samaano
Weight: Thin
Copyright: Copyright 2025 The Samaano Project Authors (https://github.com/mitradranirban/samaano-fonts)
UComments: "2024-8-27: Created with FontForge (http://fontforge.org)"
Version: 2.500
ItalicAngle: -20
UnderlinePosition: 0
UnderlineWidth: 102
Ascent: 1638
Descent: 410
InvalidEm: 0
UFOAscent: 1638
UFODescent: -410
LayerCount: 2
Layer: 0 0 "Back" 1
Layer: 1 0 "public.default" 0 "glyphs"
StyleMap: 0x0001
FSType: 256
OS2Version: 0
OS2_WeightWidthSlopeOnly: 0
OS2_UseTypoMetrics: 0
CreationTime: 1758188011
ModificationTime: 1758188011
PfmFamily: 16
TTFWeight: 700
TTFWidth: 5
LineGap: 0
VLineGap: 0
Panose: 2 7 8 9 2 2 5 2 4 4
OS2TypoAscent: 2457
OS2TypoAOffset: 0
OS2TypoDescent: -615
OS2TypoDOffset: 0
OS2TypoLinegap: 0
OS2WinAscent: 3225
OS2WinAOffset: 0
OS2WinDescent: 1040
OS2WinDOffset: 0
HheadAscent: 2457
HheadAOffset: 0
HheadDescent: -615
HheadDOffset: 0
OS2CapHeight: 1548
OS2XHeight: 1023
OS2FamilyClass: 1031
OS2Vendor: 'anir'
Lookup: 1 0 0 "loclLocalizedFormsinLatinlookup10" { "loclLocalizedFormsinLatinlookup10 subtable"  } ['locl' ('latn' <'MOL ' 'ROM ' > ) ]
Lookup: 6 0 0 "loclLocalizedFormsinLatinlookup11" { "loclLocalizedFormsinLatinlookup11 contextual 0"  "loclLocalizedFormsinLatinlookup11 contextual 1"  } ['locl' ('latn' <'CAT ' > ) ]
Lookup: 4 0 0 "Ligature Substitution lookup 2" { "Ligature Substitution lookup 2 subtable"  } []
Lookup: 4 0 0 "Ligature Substitution lookup 3" { "Ligature Substitution lookup 3 subtable"  } []
Lookup: 6 16 0 "ccmp_soft_dotted" { "ccmp_soft_dotted subtable"  } ['ccmp' ('latn' <'dflt' > 'DFLT' <'dflt' > ) ]
Lookup: 1 16 0 "Single Substitution lookup 5" { "Single Substitution lookup 5 subtable"  } []
Lookup: 4 0 0 "dligDiscretionaryLigatureslookup0" { "dligDiscretionaryLigatureslookup0 subtable"  } ['dlig' ('latn' <'dflt' > 'DFLT' <'dflt' > ) ]

StartChar: uni0000
Encoding: 0 0 0
GlifName: _notdef
Width: 2048
VWidth: 0
Flags: W
LayerCount: 2
Fore
SplineSet
457 -16 m 257
 1455 -16 l 257
 2052 1624 l 257
 1054 1624 l 257
 457 -16 l 257
560 64 m 257
 1100 1546 l 257
 1231 827 l 257
 560 64 l 257
652 64 m 257
 1241 750 l 257
 1332 64 l 257
 652 64 l 257
1224 1558 m 257
 1855 1558 l 257
 1301 909 l 257
 1224 1558 l 257
1311 832 m 257
 1951 1559 l 257
 1407 64 l 257
 1311 832 l 257
EndSplineSet
EndChar

StartChar: A
Encoding: 1 65 1
GlifName: A_
Width: 2048
VWidth: 0
GlyphClass: 2
Flags: W
AnchorPoint: "top" 1629 1625 basechar 0
AnchorPoint: "base" 1063 11 basechar 0
LayerCount: 2
Fore
SplineSet
128 0 m 257
 187 0 l 257
 752 1553 l 257
 693 1553 l 257
 128 0 l 257
730 1492 m 257
 2418 1492 l 257
 2440 1553 l 257
 752 1553 l 257
 730 1492 l 257
534 970 m 257
 513 911 l 257
 2207 911 l 257
 2228 970 l 257
 534 970 l 257
1859 0 m 257
 1919 0 l 257
 2484 1553 l 257
 2424 1553 l 257
 1859 0 l 257
EndSplineSet
EndChar

StartChar: AE
Encoding: 3 198 3
GlifName: A_E_
Width: 2048
VWidth: 0
GlyphClass: 2
Flags: W
AnchorPoint: "top" 1178 1805 basechar 0
AnchorPoint: "base" 528 -10 basechar 0
LayerCount: 2
Fore
SplineSet
1063 62 m 257
 1040 0 l 257
 1972 0 l 257
 1995 62 l 257
 1063 62 l 257
76 0 m 257
 138 0 l 257
 702 1550 l 257
 640 1550 l 257
 76 0 l 257
662 1489 m 257
 2492 1489 l 257
 2514 1550 l 257
 684 1550 l 257
 662 1489 l 257
496 1023 m 257
 475 964 l 257
 2249 964 l 257
 2270 1023 l 257
 496 1023 l 257
1014 0 m 257
 1074 0 l 257
 1638 1550 l 257
 1578 1550 l 257
 1014 0 l 257
EndSplineSet
EndChar

StartChar: uni2C6D
Encoding: 12 11373 12
GlifName: A_lpha_latin
Width: 2048
VWidth: 0
GlyphClass: 2
Flags: W
AnchorPoint: "top" 1408 1483 basechar 0
AnchorPoint: "base" 1008 -118 basechar 0
LayerCount: 2
Fore
SplineSet
476 1452 m 257
 104 0 l 257
 160 0 l 257
 532 1452 l 257
 476 1452 l 257
2256 1545 m 257
 1884 -127 l 257
 1946 -127 l 257
 2318 1545 l 257
 2256 1545 l 257
524 1452 m 257
 504 1396 l 257
 2241 1396 l 257
 2261 1452 l 257
 524 1452 l 257
173 62 m 257
 150 0 l 257
 1892 0 l 257
 1915 62 l 257
 173 62 l 257
EndSplineSet
EndChar

StartChar: B
Encoding: 22 66 22
GlifName: B_
Width: 2048
VWidth: 0
GlyphClass: 2
Flags: W
AnchorPoint: "top" 1174 1629 basechar 0
AnchorPoint: "base" 586 -95 basechar 0
LayerCount: 2
Fore
SplineSet
114 0 m 257
 171 0 l 257
 736 1553 l 257
 679 1553 l 257
 114 0 l 257
1604 1494 m 257
 2347 1232 l 257
 2368 1288 l 257
 1624 1550 l 257
 1604 1494 l 257
1392 848 m 257
 2347 1232 l 257
 2367 1286 l 257
 1413 908 l 257
 1392 848 l 257
1088 62 m 257
 1065 0 l 257
 2091 434 l 257
 2115 500 l 257
 1088 62 l 257
1331 719 m 257
 2091 430 l 257
 2116 501 l 257
 1353 781 l 257
 1331 719 l 257
498 907 m 257
 476 847 l 257
 1391 847 l 257
 1413 907 l 257
 498 907 l 257
443 781 m 257
 421 721 l 257
 1331 721 l 257
 1353 781 l 257
 443 781 l 257
178 62 m 257
 155 0 l 257
 1065 0 l 257
 1088 62 l 257
 178 62 l 257
715 1553 m 257
 694 1494 l 257
 1604 1494 l 257
 1625 1553 l 257
 715 1553 l 257
EndSplineSet
EndChar

StartChar: uni0411
Encoding: 24 1041 24
GlifName: B_e-cy
Width: 2048
VWidth: 0
Flags: W
AnchorPoint: "base" 1121 -189 basechar 0
AnchorPoint: "top" 814 1723 basechar 0
LayerCount: 2
Fore
SplineSet
606 1536 m 257
 47 0 l 257
 107 0 l 257
 666 1536 l 257
 606 1536 l 257
368 808 m 257
 345 747 l 257
 2261 747 l 257
 2284 808 l 257
 368 808 l 257
2271 808 m 257
 1895 0 l 257
 1955 0 l 257
 2331 808 l 257
 2271 808 l 257
104 60 m 257
 82 0 l 257
 1933 0 l 257
 1955 60 l 257
 104 60 l 257
585 1537 m 257
 562 1476 l 257
 2478 1476 l 257
 2501 1537 l 257
 585 1537 l 257
EndSplineSet
EndChar

StartChar: uniA7B4
Encoding: 26 42932 26
GlifName: B_eta_latin
Width: 2048
VWidth: 0
GlyphClass: 2
Flags: W
AnchorPoint: "top" 1174 1629 basechar 0
AnchorPoint: "base" 586 -95 basechar 0
LayerCount: 2
Fore
SplineSet
-12 -412 m 257
 45 -412 l 257
 736 1553 l 257
 679 1553 l 257
 -12 -412 l 257
1604 1494 m 257
 2347 1232 l 257
 2368 1288 l 257
 1624 1550 l 257
 1604 1494 l 257
1392 848 m 257
 2347 1232 l 257
 2367 1286 l 257
 1413 908 l 257
 1392 848 l 257
1088 62 m 257
 1065 0 l 257
 2091 434 l 257
 2115 500 l 257
 1088 62 l 257
1331 719 m 257
 2091 430 l 257
 2116 501 l 257
 1353 781 l 257
 1331 719 l 257
498 907 m 257
 476 847 l 257
 1391 847 l 257
 1413 907 l 257
 498 907 l 257
443 781 m 257
 421 721 l 257
 1331 721 l 257
 1353 781 l 257
 443 781 l 257
178 62 m 257
 155 0 l 257
 1065 0 l 257
 1088 62 l 257
 178 62 l 257
715 1553 m 257
 694 1494 l 257
 1604 1494 l 257
 1625 1553 l 257
 715 1553 l 257
EndSplineSet
EndChar

StartChar: uni0182
Encoding: 30 386 30
GlifName: B_topbar
Width: 2048
VWidth: 0
GlyphClass: 2
Flags: W
AnchorPoint: "top" 1174 1629 basechar 0
AnchorPoint: "base" 586 -95 basechar 0
LayerCount: 2
Fore
SplineSet
114 0 m 257
 171 0 l 257
 736 1553 l 257
 679 1553 l 257
 114 0 l 257
1088 62 m 257
 1065 0 l 257
 2091 434 l 257
 2115 500 l 257
 1088 62 l 257
1331 719 m 257
 2091 430 l 257
 2116 501 l 257
 1353 781 l 257
 1331 719 l 257
443 781 m 257
 421 721 l 257
 1331 721 l 257
 1353 781 l 257
 443 781 l 257
178 62 m 257
 155 0 l 257
 1065 0 l 257
 1088 62 l 257
 178 62 l 257
715 1553 m 257
 694 1494 l 257
 2082 1494 l 257
 2103 1553 l 257
 715 1553 l 257
EndSplineSet
EndChar

StartChar: C
Encoding: 31 67 31
GlifName: C_
Width: 2048
VWidth: 0
GlyphClass: 2
Flags: W
AnchorPoint: "top" 1508 1643 basechar 0
AnchorPoint: "base" 1090 -124 basechar 0
LayerCount: 2
Fore
SplineSet
636 1553 m 257
 71 0 l 257
 131 0 l 257
 696 1553 l 257
 636 1553 l 257
665 1553 m 257
 644 1495 l 257
 2521 1495 l 257
 2542 1553 l 257
 665 1553 l 257
126 58 m 257
 105 0 l 257
 1975 0 l 257
 1996 58 l 257
 126 58 l 257
EndSplineSet
EndChar

StartChar: uni0427
Encoding: 37 1063 37
GlifName: C_he-cy
Width: 2048
VWidth: 0
Flags: W
LayerCount: 2
Fore
SplineSet
2416 1554 m 257
 1850 -1 l 257
 1910 -1 l 257
 2476 1554 l 257
 2416 1554 l 257
656 1554 m 257
 302 582 l 257
 362 582 l 257
 716 1554 l 257
 656 1554 l 257
371 635 m 257
 362 581 l 257
 2126 704 l 257
 2136 758 l 257
 371 635 l 257
EndSplineSet
EndChar

StartChar: D
Encoding: 40 68 40
GlifName: D_
Width: 2048
VWidth: 0
GlyphClass: 2
Flags: W
AnchorPoint: "base" 637 -165 basechar 0
AnchorPoint: "top" 1238 1633 basechar 0
LayerCount: 2
Fore
SplineSet
673 1553 m 257
 108 0 l 257
 168 0 l 257
 733 1553 l 257
 673 1553 l 257
1812 1550 m 257
 1791 1493 l 257
 2288 961 l 257
 2310 1023 l 257
 1812 1550 l 257
1269 58 m 257
 1248 0 l 257
 2289 960 l 257
 2312 1023 l 257
 1269 58 l 257
733 1553 m 257
 711 1493 l 257
 1791 1493 l 257
 1813 1553 l 257
 733 1553 l 257
191 58 m 257
 170 0 l 257
 1248 0 l 257
 1269 58 l 257
 191 58 l 257
EndSplineSet
EndChar

StartChar: Dcroat
Encoding: 44 272 44
GlifName: D_croat
Width: 2048
VWidth: 0
GlyphClass: 2
Flags: W
AnchorPoint: "top" 1379 1652 basechar 0
AnchorPoint: "base" 1021 -145 basechar 0
LayerCount: 2
Fore
SplineSet
396 935 m 257
 375 876 l 257
 787 876 l 257
 808 935 l 257
 396 935 l 257
726 1550 m 257
 162 0 l 257
 224 0 l 257
 788 1550 l 257
 726 1550 l 257
2076 1550 m 257
 2054 1488 l 257
 2322 906 l 257
 2363 1019 l 257
 2076 1550 l 257
1542 61 m 257
 1520 0 l 257
 2325 915 l 257
 2364 1023 l 257
 1542 61 l 257
772 1550 m 257
 750 1488 l 257
 2054 1488 l 257
 2076 1550 l 257
 772 1550 l 257
226 61 m 257
 204 0 l 257
 1520 0 l 257
 1542 61 l 257
 226 61 l 257
EndSplineSet
EndChar

StartChar: uni0414
Encoding: 45 1044 45
GlifName: D_e-cy
Width: 2048
VWidth: 0
Flags: W
LayerCount: 2
Fore
SplineSet
92 203 m 257
 66 143 l 257
 2064 143 l 257
 2090 203 l 257
 92 203 l 257
76 159 m 257
 -127 -405 l 257
 -67 -405 l 257
 136 159 l 257
 76 159 l 257
2014 159 m 257
 1806 -412 l 257
 1866 -412 l 257
 2074 159 l 257
 2014 159 l 257
2135 1516 m 257
 1660 162 l 257
 1720 162 l 257
 2195 1516 l 257
 2135 1516 l 257
1244 1538 m 257
 1171 1478 l 257
 2159 1478 l 257
 2232 1538 l 257
 1244 1538 l 257
1224 1539 m 257
 302 185 l 257
 362 185 l 257
 1284 1539 l 257
 1224 1539 l 257
EndSplineSet
EndChar

StartChar: uni0402
Encoding: 47 1026 47
GlifName: D_je-cy
Width: 2048
VWidth: 0
Flags: W
LayerCount: 2
Fore
SplineSet
586 1548 m 257
 560 1488 l 257
 2116 1488 l 257
 2142 1548 l 257
 586 1548 l 257
1351 1544 m 257
 789 -1 l 257
 849 -1 l 257
 1411 1544 l 257
 1351 1544 l 257
1164 994 m 257
 1134 934 l 257
 2259 934 l 257
 2289 994 l 257
 1164 994 l 257
2227 989 m 257
 1881 37 l 257
 1941 37 l 257
 2287 989 l 257
 2227 989 l 257
1370 60 m 257
 1350 0 l 257
 1929 0 l 257
 1949 60 l 257
 1370 60 l 257
EndSplineSet
EndChar

StartChar: uni040F
Encoding: 51 1039 51
GlifName: D_zhe-cy
Width: 2048
VWidth: 0
Flags: W
LayerCount: 2
Fore
SplineSet
589 1466 m 257
 62 18 l 257
 122 18 l 257
 649 1466 l 257
 589 1466 l 257
2454 1470 m 257
 1920 3 l 257
 1980 3 l 257
 2514 1470 l 257
 2454 1470 l 257
128 60 m 257
 55 0 l 257
 1979 0 l 257
 2052 60 l 257
 128 60 l 257
1016 25 m 257
 840 -405 l 257
 900 -405 l 257
 1076 25 l 257
 1016 25 l 257
EndSplineSet
EndChar

StartChar: E
Encoding: 52 69 52
GlifName: E_
Width: 2048
VWidth: 0
GlyphClass: 2
Flags: W
AnchorPoint: "top" 1486 1633 basechar 0
AnchorPoint: "base" 1008 -129 basechar 0
LayerCount: 2
Fore
SplineSet
680 1550 m 257
 116 0 l 257
 174 0 l 257
 738 1550 l 257
 680 1550 l 257
717 1553 m 257
 694 1490 l 257
 2454 1490 l 257
 2477 1553 l 257
 717 1553 l 257
180 60 m 257
 158 0 l 257
 1928 0 l 257
 1950 60 l 257
 180 60 l 257
471 859 m 257
 448 798 l 257
 1972 798 l 257
 1995 859 l 257
 471 859 l 257
EndSplineSet
EndChar

StartChar: uni0404
Encoding: 53 1028 53
GlifName: E_-cy
Width: 2048
VWidth: 0
Flags: W
LayerCount: 2
Fore
SplineSet
1520 1550 m 257
 1477 1490 l 257
 2480 1490 l 257
 2523 1550 l 257
 1520 1550 l 257
414 836 m 257
 341 776 l 257
 2150 776 l 257
 2223 836 l 257
 414 836 l 257
976 67 m 257
 931 9 l 257
 1957 9 l 257
 2002 67 l 257
 976 67 l 257
1520 1549 m 257
 333 814 l 257
 436 814 l 257
 1623 1549 l 257
 1520 1549 l 257
335 814 m 257
 931 8 l 257
 1036 8 l 257
 440 814 l 257
 335 814 l 257
EndSplineSet
EndChar

StartChar: uni041B
Encoding: 63 1051 63
GlifName: E_l-cy
Width: 2048
VWidth: 0
Flags: W
LayerCount: 2
Fore
SplineSet
2526 1548 m 257
 1963 14 l 257
 2023 14 l 257
 2586 1548 l 257
 2526 1548 l 257
1218 1548 m 257
 1190 1488 l 257
 2546 1488 l 257
 2574 1548 l 257
 1218 1548 l 257
1217 1548 m 257
 344 0 l 257
 404 0 l 257
 1277 1548 l 257
 1217 1548 l 257
48 61 m 257
 20 1 l 257
 404 1 l 257
 432 61 l 257
 48 61 l 257
EndSplineSet
EndChar

StartChar: Eng
Encoding: 65 330 65
GlifName: E_ng
Width: 2048
VWidth: 0
GlyphClass: 2
Flags: W
AnchorPoint: "top" 1620 1672 basechar 0
AnchorPoint: "base" 884 -400 basechar 0
LayerCount: 2
Fore
SplineSet
1419 -348 m 257
 1400 -408 l 257
 1786 -408 l 257
 1806 -348 l 257
 1419 -348 l 257
654 1490 m 257
 112 0 l 257
 177 0 l 257
 719 1490 l 257
 654 1490 l 257
2436 1550 m 257
 1724 -408 l 257
 1788 -408 l 257
 2500 1550 l 257
 2436 1550 l 257
676 1550 m 257
 604 1490 l 257
 2427 1490 l 257
 2499 1550 l 257
 676 1550 l 257
EndSplineSet
EndChar

StartChar: uni0190
Encoding: 67 400 67
GlifName: E_open
Width: 2048
VWidth: 0
GlyphClass: 2
Flags: W
AnchorPoint: "base" 1008 -125 basechar 0
AnchorPoint: "top" 1458 1613 basechar 0
LayerCount: 2
Fore
SplineSet
518 1542 m 257
 521 860 l 257
 581 859 l 257
 578 1541 l 257
 518 1542 l 257
561 1541 m 257
 559 1481 l 257
 2337 1481 l 257
 2339 1541 l 257
 561 1541 l 257
111 56 m 257
 158 0 l 257
 1940 0 l 257
 1893 56 l 257
 111 56 l 257
581 861 m 257
 560 801 l 257
 1378 801 l 257
 1399 861 l 257
 581 861 l 257
502 804 m 257
 103 0 l 257
 164 0 l 257
 561 803 l 257
 502 804 l 257
EndSplineSet
EndChar

StartChar: uni042D
Encoding: 71 1069 71
GlifName: E_reversed-cy
Width: 2048
VWidth: 0
Flags: W
LayerCount: 2
Fore
SplineSet
1580 1550 m 257
 577 1550 l 257
 540 1490 l 257
 1543 1490 l 257
 1580 1550 l 257
2217 836 m 257
 408 836 l 257
 376 776 l 257
 2185 776 l 257
 2217 836 l 257
1092 69 m 257
 66 69 l 257
 21 9 l 257
 1047 9 l 257
 1092 69 l 257
1579 1549 m 257
 1476 1549 l 257
 2128 814 l 257
 2231 814 l 257
 1579 1549 l 257
2229 814 m 257
 2124 814 l 257
 941 8 l 257
 1046 8 l 257
 2229 814 l 257
EndSplineSet
EndChar

StartChar: uni01A9
Encoding: 72 425 72
GlifName: E_sh
Width: 2048
VWidth: 0
GlyphClass: 2
Flags: W
LayerCount: 2
Fore
SplineSet
1553.76 928 m 257
 133.294 64 l 257
 104.904 -14 l 257
 1523.19 844 l 257
 1553.76 928 l 257
1553.22 921 m 257
 688.15 1539 l 257
 666.948 1478 l 257
 1524.1 841 l 257
 1553.22 921 l 257
2411.58 1477 m 257
 2433.42 1537 l 257
 687.422 1537 l 257
 665.584 1477 l 257
 2411.58 1477 l 257
1812 0 m 257
 1833.84 60 l 257
 146.838 60 l 257
 125 0 l 257
 1812 0 l 257
EndSplineSet
EndChar

StartChar: Eth
Encoding: 76 208 76
GlifName: E_th
Width: 2048
VWidth: 0
GlyphClass: 2
Flags: W
AnchorPoint: "top" 2068 1648 basechar 0
AnchorPoint: "base" 852 -48 basechar 0
LayerCount: 2
Fore
SplineSet
736 935 m 257
 690 873 l 257
 997 873 l 257
 1043 935 l 257
 736 935 l 257
1292 1553 m 257
 162 0 l 257
 223 0 l 257
 1353 1553 l 257
 1292 1553 l 257
2642 1553 m 257
 2592 1484 l 257
 2695 964 l 257
 2738 1023 l 257
 2642 1553 l 257
1564 60 m 257
 1520 0 l 257
 2695 964 l 257
 2738 1023 l 257
 1564 60 l 257
1332 1553 m 257
 1282 1484 l 257
 2592 1484 l 257
 2642 1553 l 257
 1332 1553 l 257
254 60 m 257
 210 0 l 257
 1520 0 l 257
 1564 60 l 257
 254 60 l 257
EndSplineSet
EndChar

StartChar: Euro
Encoding: 78 8364 78
GlifName: E_uro
Width: 2048
VWidth: 0
GlyphClass: 2
Flags: W
LayerCount: 2
Fore
SplineSet
877 520 m 257
 852 451 l 257
 1489 451 l 257
 1514 520 l 257
 877 520 l 257
1012 856 m 257
 987 788 l 257
 1596 788 l 257
 1621 856 l 257
 1012 856 l 257
1329 1026 m 257
 1021 179 l 257
 1101 179 l 257
 1409 1026 l 257
 1329 1026 l 257
1868 1633 m 257
 1329 1026 l 257
 1409 1026 l 257
 1884 1607 l 257
 1868 1633 l 257
1021 179 m 257
 1152 -406 l 257
 1212 -406 l 257
 1101 179 l 257
 1021 179 l 257
EndSplineSet
EndChar

StartChar: uni01B7
Encoding: 79 439 79
GlifName: E_zh
Width: 2048
VWidth: 0
GlyphClass: 2
Flags: W
LayerCount: 2
Fore
SplineSet
1834 0 m 257
 1906 60 l 257
 186 60 l 257
 114 0 l 257
 1834 0 l 257
1906 60 m 257
 2210 889 l 257
 2149 889 l 257
 1842 59 l 257
 1906 60 l 257
2122 829 m 257
 2196 889 l 257
 498 889 l 257
 424 829 l 257
 2122 829 l 257
683 1544 m 257
 611 1484 l 257
 2463 1484 l 257
 2535 1544 l 257
 683 1544 l 257
2300 1484 m 257
 498 889 l 257
 721 889 l 257
 2463 1484 l 257
 2300 1484 l 257
EndSplineSet
EndChar

StartChar: uni01B8
Encoding: 81 440 81
GlifName: E_zhreversed
Width: 2048
VWidth: 0
GlyphClass: 2
Flags: W
LayerCount: 2
Fore
SplineSet
210 0 m 257
 1930 0 l 257
 2002 60 l 257
 282 60 l 257
 210 0 l 257
226 39 m 257
 287 39 l 257
 593 889 l 257
 532 889 l 257
 226 39 l 257
507 829 m 257
 2170 829 l 257
 2244 889 l 257
 581 889 l 257
 507 829 l 257
2535 1544 m 257
 683 1544 l 257
 611 1484 l 257
 2463 1484 l 257
 2535 1544 l 257
774 1484 m 257
 611 1484 l 257
 2026 889 l 257
 2249 889 l 257
 774 1484 l 257
EndSplineSet
EndChar

StartChar: F
Encoding: 82 70 82
GlifName: F_
Width: 2048
VWidth: 0
GlyphClass: 2
Flags: W
AnchorPoint: "top" 1594 1641 basechar 0
AnchorPoint: "base" 1022 -90 basechar 0
LayerCount: 2
Fore
SplineSet
682 1553 m 257
 118 3 l 257
 177 3 l 257
 741 1553 l 257
 682 1553 l 257
741 1553 m 257
 721 1497 l 257
 2475 1497 l 257
 2495 1553 l 257
 741 1553 l 257
481 864 m 257
 460 806 l 257
 2050 806 l 257
 2071 864 l 257
 481 864 l 257
EndSplineSet
EndChar

StartChar: G
Encoding: 85 71 85
GlifName: G_
Width: 2048
VWidth: 0
GlyphClass: 2
Flags: W
AnchorPoint: "top" 1462 1661 basechar 0
AnchorPoint: "base" 924 -48 basechar 0
LayerCount: 2
Fore
SplineSet
684 1529 m 257
 126 -4 l 257
 185 -4 l 257
 743 1529 l 257
 684 1529 l 257
737 1529 m 257
 715 1469 l 257
 2420 1469 l 257
 2442 1529 l 257
 737 1529 l 257
180 60 m 257
 158 0 l 257
 1921 0 l 257
 1943 60 l 257
 180 60 l 257
2064 561 m 257
 1867 18 l 257
 1928 18 l 257
 2125 561 l 257
 2064 561 l 257
EndSplineSet
EndChar

StartChar: Gamma
Encoding: 86 915 86
GlifName: G_amma
Width: 2048
VWidth: 0
GlyphClass: 2
Flags: W
LayerCount: 2
Fore
SplineSet
688.426 1548 m 257
 666.588 1488 l 257
 2464.59 1488 l 257
 2486.43 1548 l 257
 688.426 1548 l 257
681.871 1519 m 257
 131.184 6 l 257
 191.184 6 l 257
 741.871 1519 l 257
 681.871 1519 l 257
EndSplineSet
EndChar

StartChar: uni0194
Encoding: 87 404 87
GlifName: G_amma_latin
Width: 2048
VWidth: 0
GlyphClass: 2
Flags: W
LayerCount: 2
Fore
SplineSet
880 1543 m 257
 1538 -158 l 257
 1598 -158 l 257
 940 1543 l 257
 880 1543 l 257
2424 1543 m 257
 804 -158 l 257
 864 -158 l 257
 2485 1543 l 257
 2424 1543 l 257
731 -217 m 257
 1525 -218 l 257
 1599 -158 l 257
 805 -158 l 257
 731 -217 l 257
EndSplineSet
EndChar

StartChar: uni0490
Encoding: 92 1168 92
GlifName: G_eupturn-cy
Width: 2048
VWidth: 0
Flags: W
LayerCount: 2
Fore
SplineSet
688.426 1548 m 257
 666.588 1488 l 257
 2464.59 1488 l 257
 2486.43 1548 l 257
 688.426 1548 l 257
681.871 1519 m 257
 131.184 6 l 257
 191.184 6 l 257
 741.871 1519 l 257
 681.871 1519 l 257
2693 1899.86279303 m 257
 2403 1493.71582596 l 257
 2466 1493.71582596 l 257
 2756 1899.86279303 l 257
 2693 1899.86279303 l 257
EndSplineSet
EndChar

StartChar: H
Encoding: 96 72 96
GlifName: H_
Width: 2048
VWidth: 0
GlyphClass: 2
Flags: W
AnchorPoint: "top" 1520 1646 basechar 0
AnchorPoint: "base" 1000 -58 basechar 0
LayerCount: 2
Fore
SplineSet
679 1553 m 257
 114 0 l 257
 173 0 l 257
 738 1553 l 257
 679 1553 l 257
2438 1553 m 257
 1873 0 l 257
 1934 0 l 257
 2499 1553 l 257
 2438 1553 l 257
492 923 m 257
 470 864 l 257
 2211 864 l 257
 2233 923 l 257
 492 923 l 257
EndSplineSet
EndChar

StartChar: uni042A
Encoding: 97 1066 97
GlifName: H_ardsign-cy
Width: 2048
VWidth: 0
Flags: W
AnchorPoint: "base" 1121 -189 basechar 0
AnchorPoint: "top" 814 1723 basechar 0
LayerCount: 2
Fore
SplineSet
1306 1536 m 257
 747 0 l 257
 807 0 l 257
 1366 1536 l 257
 1306 1536 l 257
1068 808 m 257
 1045 747 l 257
 2261 747 l 257
 2284 808 l 257
 1068 808 l 257
2271 808 m 257
 1895 0 l 257
 1955 0 l 257
 2331 808 l 257
 2271 808 l 257
804 60 m 257
 782 0 l 257
 1933 0 l 257
 1955 60 l 257
 804 60 l 257
620 1543 m 257
 612 1482 l 257
 1304 1482 l 257
 1313 1543 l 257
 620 1543 l 257
EndSplineSet
EndChar

StartChar: Hbar
Encoding: 98 294 98
GlifName: H_bar
Width: 2048
VWidth: 0
GlyphClass: 2
Flags: W
LayerCount: 2
Fore
SplineSet
671 1540 m 257
 110 0 l 257
 170 0 l 257
 731 1540 l 257
 671 1540 l 257
2431 1540 m 257
 1870 0 l 257
 1930 0 l 257
 2491 1540 l 257
 2431 1540 l 257
521 1020 m 257
 499 959 l 257
 2235 959 l 257
 2257 1020 l 257
 521 1020 l 257
572 1434 m 257
 550 1374 l 257
 2498 1374 l 257
 2520 1434 l 257
 572 1434 l 257
EndSplineSet
EndChar

StartChar: uniA78D
Encoding: 103 42893 103
GlifName: H_turned
Width: 2048
VWidth: 0
GlyphClass: 2
Flags: W
AnchorPoint: "top" 780 1638 basechar 0
AnchorPoint: "base" 1472 -34 basechar 0
LayerCount: 2
Fore
SplineSet
1695 0 m 257
 2248 1519 l 257
 2189 1519 l 257
 1636 0 l 257
 1695 0 l 257
1836 497 m 257
 1858 557 l 257
 245 557 l 257
 223 497 l 257
 1836 497 l 257
235 497 m 257
 609 1525 l 257
 550 1525 l 257
 176 497 l 257
 235 497 l 257
EndSplineSet
EndChar

StartChar: I
Encoding: 104 73 104
GlifName: I_
Width: 2048
VWidth: 0
GlyphClass: 2
Flags: W
AnchorPoint: "top" 1680 1718 basechar 0
AnchorPoint: "base" 1084 -56 basechar 0
LayerCount: 2
Fore
SplineSet
718 1550 m 257
 696 1489 l 257
 2421 1489 l 257
 2443 1550 l 257
 718 1550 l 257
1609 1515 m 257
 1070 34 l 257
 1129 34 l 257
 1668 1515 l 257
 1609 1515 l 257
158 66 m 257
 136 6 l 257
 1916 6 l 257
 1938 66 l 257
 158 66 l 257
EndSplineSet
EndChar

StartChar: uniA7AE
Encoding: 108 42926 108
GlifName: I_capitalsmall
Width: 2048
VWidth: 0
GlyphClass: 2
Flags: W
AnchorPoint: "top" 1625 1641 basechar 0
AnchorPoint: "base" 1007 -71 basechar 0
LayerCount: 2
Fore
SplineSet
636 1537 m 257
 621 1477 l 257
 2508 1477 l 257
 2523 1537 l 257
 636 1537 l 257
1526 1506 m 257
 1023 33 l 257
 1083 33 l 257
 1586 1506 l 257
 1526 1506 l 257
105 60 m 257
 74 0 l 257
 1957 0 l 257
 1988 60 l 257
 105 60 l 257
109 0 m 257
 249 373 l 257
 188 373 l 257
 52 0 l 257
 109 0 l 257
1984 0 m 257
 2124 373 l 257
 2063 373 l 257
 1927 0 l 257
 1984 0 l 257
538 1165 m 257
 678 1538 l 257
 615 1538 l 257
 479 1165 l 257
 538 1165 l 257
2411 1164 m 257
 2550 1537 l 257
 2487 1537 l 257
 2352 1164 l 257
 2411 1164 l 257
EndSplineSet
EndChar

StartChar: uni0418
Encoding: 114 1048 114
GlifName: I_i-cy
Width: 2048
VWidth: 0
Flags: W
LayerCount: 2
Fore
SplineSet
599 1552 m 257
 34 0 l 257
 94 0 l 257
 659 1552 l 257
 599 1552 l 257
2518 1552 m 257
 1953 0 l 257
 2013 0 l 257
 2578 1552 l 257
 2518 1552 l 257
2518 1552 m 257
 34 0 l 257
 94 0 l 257
 2579 1552 l 257
 2518 1552 l 257
EndSplineSet
EndChar

StartChar: uni0196
Encoding: 120 406 120
GlifName: I_ota_latin
Width: 2048
VWidth: 0
GlyphClass: 2
Flags: W
AnchorPoint: "top" 1069 1670 basechar 0
AnchorPoint: "base" 1084 -56 basechar 0
LayerCount: 2
Fore
SplineSet
992 1543 m 257
 661 107 l 257
 721 107 l 257
 1052 1543 l 257
 992 1543 l 257
684 172 m 257
 660 106 l 257
 1632 6 l 257
 1656 72 l 257
 684 172 l 257
EndSplineSet
EndChar

StartChar: uni0474
Encoding: 126 1140 126
GlifName: I_zhitsa-cy
Width: 1024
VWidth: 0
Flags: W
AnchorPoint: "top" 1644 1634 basechar 0
AnchorPoint: "base" 1070 -175 basechar 0
LayerCount: 2
Fore
SplineSet
671 1553 m 257
 1062 0 l 257
 1122 0 l 257
 735 1553 l 257
 671 1553 l 257
2437 1553 m 257
 1062 0 l 257
 1122 0 l 257
 2507 1553 l 257
 2437 1553 l 257
2438 1556 m 257
 2568 1559 l 257
 2622 1604 l 257
 2492 1600 l 257
 2438 1556 l 257
EndSplineSet
EndChar

StartChar: J
Encoding: 127 74 127
GlifName: J_
Width: 2048
VWidth: 0
GlyphClass: 2
Flags: W
AnchorPoint: "base" 1040 -148 basechar 0
AnchorPoint: "top" 2481 1825 basechar 0
LayerCount: 2
Fore
SplineSet
2420 1527 m 257
 1864 0 l 257
 1924 0 l 257
 2480 1527 l 257
 2420 1527 l 257
146 60 m 257
 124 0 l 257
 1890 0 l 257
 1912 60 l 257
 146 60 l 257
307 503 m 257
 134 27 l 257
 194 27 l 257
 367 503 l 257
 307 503 l 257
EndSplineSet
EndChar

StartChar: K
Encoding: 131 75 131
GlifName: K_
Width: 2048
VWidth: 0
GlyphClass: 2
Flags: W
AnchorPoint: "base" 933 -99 basechar 0
AnchorPoint: "top" 843 1686 basechar 0
LayerCount: 2
Fore
SplineSet
737 1553 m 257
 174 5 l 257
 234 5 l 257
 797 1553 l 257
 737 1553 l 257
599 1015 m 257
 574 944 l 257
 2406 1550 l 257
 2336 1550 l 257
 599 1015 l 257
570 934 m 257
 517 844 l 257
 1826 0 l 257
 1876 0 l 257
 570 934 l 257
EndSplineSet
EndChar

StartChar: uni03CF
Encoding: 132 975 132
GlifName: K_aiS_ymbol
Width: 2048
VWidth: 0
GlyphClass: 2
Flags: W
LayerCount: 2
Fore
SplineSet
1464 -328 m 257
 1522 -356 l 257
 1857 23 l 257
 1799 51 l 257
 1464 -328 l 257
EndSplineSet
Refer: 131 75 N 1 0 0 1 0 0 2
EndChar

StartChar: uni0198
Encoding: 134 408 134
GlifName: K_hook
Width: 2048
VWidth: 0
GlyphClass: 2
Flags: W
LayerCount: 2
Fore
SplineSet
725 1553 m 257
 168 5 l 257
 228 5 l 257
 785 1553 l 257
 725 1553 l 257
588 1015 m 257
 528 944 l 257
 2319 1550 l 257
 2249 1550 l 257
 588 1015 l 257
514 934 m 257
 438 844 l 257
 1746 0 l 257
 1796 0 l 257
 514 934 l 257
2534 1617 m 257
 2526 1679 l 257
 2323 1583 l 257
 2376 1551 l 257
 2534 1617 l 257
2433 1599 m 257
 2425 1631 l 257
 2247 1550 l 257
 2320 1550 l 257
 2433 1599 l 257
EndSplineSet
EndChar

StartChar: L
Encoding: 136 76 136
GlifName: L_
Width: 2048
VWidth: 0
GlyphClass: 2
Flags: W
AnchorPoint: "base" 1000 -123 basechar 0
AnchorPoint: "top" 822 1738 basechar 0
LayerCount: 2
Fore
SplineSet
695 1553 m 257
 130 0 l 257
 190 0 l 257
 755 1553 l 257
 695 1553 l 257
166 61 m 257
 144 0 l 257
 1914 0 l 257
 1936 61 l 257
 166 61 l 257
EndSplineSet
EndChar

StartChar: Lambda
Encoding: 139 923 139
GlifName: L_ambda
Width: 2048
VWidth: 0
GlyphClass: 2
Flags: W
LayerCount: 2
Fore
SplineSet
1817 0 m 257
 1608.43 1548 l 257
 1535.43 1548 l 257
 1764 0 l 257
 1817 0 l 257
307 0 m 257
 1607.43 1548 l 257
 1536.43 1548 l 257
 258 0 l 257
 307 0 l 257
EndSplineSet
EndChar

StartChar: Lcaron
Encoding: 140 317 140
GlifName: L_caron
Width: 2048
VWidth: 0
GlyphClass: 2
Flags: W
LayerCount: 2
Fore
SplineSet
655 1542 m 257
 95 3 l 257
 157 3 l 257
 717 1542 l 257
 655 1542 l 257
145 62 m 257
 123 3 l 257
 1955 3 l 257
 1977 62 l 257
 145 62 l 257
1032 1496 m 257
 948 1264 l 257
 988 1264 l 257
 1072 1496 l 257
 1032 1496 l 257
EndSplineSet
EndChar

StartChar: uni0409
Encoding: 143 1033 143
GlifName: L_je-cy
Width: 2048
VWidth: 0
Flags: W
LayerCount: 2
Fore
SplineSet
1956 1548 m 257
 1381 1 l 257
 1441 1 l 257
 2016 1548 l 257
 1956 1548 l 257
1103 1548 m 257
 1075 1488 l 257
 1976 1488 l 257
 2004 1548 l 257
 1103 1548 l 257
1102 1548 m 257
 229 0 l 257
 289 0 l 257
 1162 1548 l 257
 1102 1548 l 257
48 61 m 257
 20 1 l 257
 289 1 l 257
 317 61 l 257
 48 61 l 257
1461 60 m 257
 1433 0 l 257
 1839 0 l 257
 1867 60 l 257
 1461 60 l 257
1639 578 m 257
 1611 518 l 257
 2053 508 l 257
 2081 568 l 257
 1639 578 l 257
1762 12 m 257
 1841 5 l 257
 2076 562 l 257
 2003 563 l 257
 1762 12 l 257
EndSplineSet
EndChar

StartChar: Lslash
Encoding: 145 321 145
GlifName: L_slash
Width: 2048
VWidth: 0
GlyphClass: 2
Flags: W
LayerCount: 2
Fore
SplineSet
733 1542 m 257
 173 3 l 257
 233 3 l 257
 793 1542 l 257
 733 1542 l 257
219 64 m 257
 197 3 l 257
 2032 3 l 257
 2054 64 l 257
 219 64 l 257
345 902 m 257
 412 866 l 257
 920 1068 l 257
 853 1104 l 257
 345 902 l 257
EndSplineSet
EndChar

StartChar: M
Encoding: 146 77 146
GlifName: M_
Width: 2048
VWidth: 0
GlyphClass: 2
Flags: W
AnchorPoint: "base" 1040 -60 basechar 0
AnchorPoint: "top" 1588 1738 basechar 0
LayerCount: 2
Fore
SplineSet
665 1553 m 257
 100 0 l 257
 160 0 l 257
 725 1553 l 257
 665 1553 l 257
2451 1564 m 257
 1885 -3 l 257
 1947 -3 l 257
 2513 1564 l 257
 2451 1564 l 257
665 1553 m 257
 1422 1033 l 257
 1492 1033 l 257
 725 1553 l 257
 665 1553 l 257
2451 1564 m 257
 1424 1033 l 257
 1492 1033 l 257
 2513 1564 l 257
 2451 1564 l 257
EndSplineSet
EndChar

StartChar: uni019C
Encoding: 147 412 147
GlifName: M_turned
Width: 2048
VWidth: 0
GlyphClass: 2
Flags: W
AnchorPoint: "base" 1178 -159 basechar 0
AnchorPoint: "top" 1554 1098 basechar 0
LayerCount: 2
Fore
SplineSet
1999 30 m 257
 2360 1546 l 257
 2300 1546 l 257
 1939 30 l 257
 1999 30 l 257
1159 51 m 257
 1513 1546 l 257
 1453 1546 l 257
 1099 51 l 257
 1159 51 l 257
411 47 m 257
 766 1546 l 257
 706 1546 l 257
 351 47 l 257
 411 47 l 257
2262 0 m 257
 2282 57 l 257
 354 57 l 257
 334 0 l 257
 2262 0 l 257
EndSplineSet
EndChar

StartChar: N
Encoding: 149 78 149
GlifName: N_
Width: 2048
VWidth: 0
GlyphClass: 2
Flags: W
AnchorPoint: "top" 1736 1754 basechar 0
AnchorPoint: "base" 1158 -76 basechar 0
LayerCount: 2
Fore
SplineSet
663 1553 m 257
 98 0 l 257
 158 0 l 257
 723 1553 l 257
 663 1553 l 257
2455 1553 m 257
 1890 0 l 257
 1950 0 l 257
 2515 1553 l 257
 2455 1553 l 257
663 1553 m 257
 1890 0 l 257
 1950 0 l 257
 723 1553 l 257
 663 1553 l 257
EndSplineSet
EndChar

StartChar: uni040A
Encoding: 154 1034 154
GlifName: N_je-cy
Width: 2048
VWidth: 0
Flags: W
LayerCount: 2
Fore
SplineSet
596 1545 m 257
 34 0 l 257
 94 0 l 257
 656 1545 l 257
 596 1545 l 257
1555 1545 m 257
 993 0 l 257
 1053 0 l 257
 1615 1545 l 257
 1555 1545 l 257
392 828 m 257
 353 764 l 257
 2276 764 l 257
 2315 828 l 257
 392 828 l 257
2289 828 m 257
 1953 1 l 257
 2013 0 l 257
 2349 827 l 257
 2289 828 l 257
1066 66 m 257
 1044 0 l 257
 2014 0 l 257
 2036 66 l 257
 1066 66 l 257
EndSplineSet
EndChar

StartChar: O
Encoding: 158 79 158
GlifName: O_
Width: 2048
VWidth: 0
GlyphClass: 2
Flags: W
AnchorPoint: "top" 1544 1726 basechar 0
AnchorPoint: "base" 1024 -214 basechar 0
LayerCount: 2
Fore
SplineSet
677 1553 m 257
 112 0 l 257
 171 0 l 257
 736 1553 l 257
 677 1553 l 257
2442 1553 m 257
 1877 0 l 257
 1936 0 l 257
 2501 1553 l 257
 2442 1553 l 257
715 1553 m 257
 693 1493 l 257
 2449 1493 l 257
 2471 1553 l 257
 715 1553 l 257
174 61 m 257
 152 0 l 257
 1914 0 l 257
 1936 61 l 257
 174 61 l 257
EndSplineSet
EndChar

StartChar: OE
Encoding: 159 338 159
GlifName: O_E_
Width: 2048
VWidth: 0
GlyphClass: 2
Flags: W
AnchorPoint: "top" 1684 1664 basechar 0
AnchorPoint: "base" 1108 -128 basechar 0
LayerCount: 2
Fore
SplineSet
688 1553 m 257
 123 0 l 257
 182 0 l 257
 747 1553 l 257
 688 1553 l 257
1664 1553 m 257
 1099 0 l 257
 1158 0 l 257
 1723 1553 l 257
 1664 1553 l 257
726 1553 m 257
 704 1493 l 257
 2460 1493 l 257
 2482 1553 l 257
 726 1553 l 257
185 61 m 257
 163 0 l 257
 1925 0 l 257
 1947 61 l 257
 185 61 l 257
1444 859 m 257
 1421 798 l 257
 2156 798 l 257
 2179 859 l 257
 1444 859 l 257
EndSplineSet
EndChar

StartChar: uni019F
Encoding: 161 415 161
GlifName: O_barred
Width: 2048
VWidth: 0
GlyphClass: 2
Flags: W
AnchorPoint: "top" 1627 1778 basechar 0
AnchorPoint: "base" 1024 -214 basechar 0
LayerCount: 2
Fore
SplineSet
677 1553 m 257
 112 0 l 257
 171 0 l 257
 736 1553 l 257
 677 1553 l 257
2442 1553 m 257
 1877 0 l 257
 1936 0 l 257
 2501 1553 l 257
 2442 1553 l 257
715 1553 m 257
 693 1493 l 257
 2449 1493 l 257
 2471 1553 l 257
 715 1553 l 257
174 61 m 257
 152 0 l 257
 1914 0 l 257
 1936 61 l 257
 174 61 l 257
468.338 810 m 257
 390.82208 750 l 257
 2169.3818 750 l 257
 2246.89772 810 l 257
 468.338 810 l 257
EndSplineSet
EndChar

StartChar: uniA7B6
Encoding: 171 42934 171
GlifName: O_mega_latin
Width: 2048
VWidth: 0
GlyphClass: 2
Flags: W
AnchorPoint: "base" 996 -123 basechar 0
AnchorPoint: "top" 1557 1634 basechar 0
LayerCount: 2
Fore
SplineSet
645 1548 m 257
 82 0 l 257
 142 0 l 257
 705 1548 l 257
 645 1548 l 257
2504 1548 m 257
 1941 0 l 257
 2001 0 l 257
 2567 1549 l 257
 2504 1548 l 257
1254 669 m 257
 1064 146 l 257
 1124 146 l 257
 1314 669 l 257
 1254 669 l 257
164 60 m 257
 142 0 l 257
 1064 146 l 257
 1086 206 l 257
 164 60 l 257
1145 206 m 257
 1124 146 l 257
 1941 1 l 257
 1962 61 l 257
 1145 206 l 257
676 1548 m 257
 648 1488 l 257
 1204 1488 l 257
 1232 1548 l 257
 676 1548 l 257
1968 1548 m 257
 1918 1488 l 257
 2516 1488 l 257
 2566 1548 l 257
 1968 1548 l 257
EndSplineSet
EndChar

StartChar: Oslash
Encoding: 177 216 177
GlifName: O_slash
Width: 2048
VWidth: 0
GlyphClass: 2
Flags: W
AnchorPoint: "top" 1636 1635 basechar 0
AnchorPoint: "base" 1052 -91 basechar 0
LayerCount: 2
Fore
SplineSet
2516 1630 m 257
 52 -48 l 257
 82 -75 l 257
 2557 1588 l 257
 2516 1630 l 257
668 1540 m 257
 107 0 l 257
 167 0 l 257
 728 1540 l 257
 668 1540 l 257
2431 1537 m 257
 1872 0 l 257
 1931 0 l 257
 2490 1537 l 257
 2431 1537 l 257
697 1538 m 257
 675 1478 l 257
 2439 1478 l 257
 2461 1538 l 257
 697 1538 l 257
174 75 m 257
 147 0 l 257
 1872 0 l 257
 1899 75 l 257
 174 75 l 257
EndSplineSet
EndChar

StartChar: P
Encoding: 180 80 180
GlifName: P_
Width: 2048
VWidth: 0
GlyphClass: 2
Flags: W
AnchorPoint: "base" 1164 -36 basechar 0
AnchorPoint: "top" 1600 1706 basechar 0
LayerCount: 2
Fore
SplineSet
692 1535 m 257
 133 0 l 257
 192 0 l 257
 751 1535 l 257
 692 1535 l 257
697 1550 m 257
 669 1472 l 257
 2453 1472 l 257
 2481 1550 l 257
 697 1550 l 257
2415 1536 m 257
 2173 872 l 257
 2234 872 l 257
 2476 1536 l 257
 2415 1536 l 257
517 931 m 257
 495 871 l 257
 2206 871 l 257
 2228 931 l 257
 517 931 l 257
EndSplineSet
EndChar

StartChar: Phi
Encoding: 182 934 182
GlifName: P_hi
Width: 2048
VWidth: 0
GlyphClass: 2
Flags: W
LayerCount: 2
Fore
SplineSet
1566.88 1541 m 257
 1010.73 13 l 257
 1070.73 13 l 257
 1626.88 1541 l 257
 1566.88 1541 l 257
609.731 1373 m 257
 169.327 163 l 257
 230.327 163 l 257
 670.731 1373 l 257
 609.731 1373 l 257
2373.73 1373 m 257
 1933.33 163 l 257
 1993.33 163 l 257
 2433.73 1373 l 257
 2373.73 1373 l 257
645.731 1373 m 257
 623.893 1313 l 257
 2383.89 1313 l 257
 2405.73 1373 l 257
 645.731 1373 l 257
231.165 223 m 257
 209.327 163 l 257
 1953.33 163 l 257
 1975.17 223 l 257
 231.165 223 l 257
EndSplineSet
EndChar

StartChar: uni01A4
Encoding: 183 420 183
GlifName: P_hook
Width: 2048
VWidth: 0
GlyphClass: 2
Flags: W
AnchorPoint: "base" 1305 -36 basechar 0
AnchorPoint: "top" 1741 1706 basechar 0
LayerCount: 2
Fore
SplineSet
833 1535 m 257
 274 0 l 257
 333 0 l 257
 892 1535 l 257
 833 1535 l 257
838 1550 m 257
 810 1472 l 257
 2594 1472 l 257
 2622 1550 l 257
 838 1550 l 257
2556 1536 m 257
 2314 872 l 257
 2375 872 l 257
 2617 1536 l 257
 2556 1536 l 257
658 931 m 257
 636 871 l 257
 2347 871 l 257
 2369 931 l 257
 658 931 l 257
591.664 1414.32 m 257
 756.621 1440.53 l 257
 690.723 1559.5 l 257
 525.766 1533.29 l 257
 591.664 1414.32 l 257
582.535 1492.72 m 257
 848.767 1495.01 l 257
 876.126 1546.74 l 257
 673.039 1554.28 l 257
 582.535 1492.72 l 257
EndSplineSet
EndChar

StartChar: Pi
Encoding: 184 928 184
GlifName: P_i
Width: 2048
VWidth: 0
GlyphClass: 2
Flags: W
LayerCount: 2
Fore
SplineSet
669.422 1537 m 257
 110 0 l 257
 170 0 l 257
 729.422 1537 l 257
 669.422 1537 l 257
2431.69 1535 m 257
 1872.27 -2 l 257
 1934 0 l 257
 2493.42 1537 l 257
 2431.69 1535 l 257
669.422 1537 m 257
 647.584 1477 l 257
 2470.58 1477 l 257
 2492.42 1537 l 257
 669.422 1537 l 257
EndSplineSet
EndChar

StartChar: Psi
Encoding: 185 936 185
GlifName: P_si
Width: 2048
VWidth: 0
GlyphClass: 2
Flags: W
LayerCount: 2
Fore
SplineSet
1455.79 1266 m 257
 995 0 l 257
 1055 0 l 257
 1515.79 1266 l 257
 1455.79 1266 l 257
723.426 1548 m 257
 453.36 806 l 257
 513.36 806 l 257
 783.426 1548 l 257
 723.426 1548 l 257
2390.7 1546 m 257
 2120.63 804 l 257
 2181.36 806 l 257
 2451.43 1548 l 257
 2390.7 1546 l 257
491.198 866 m 257
 469.36 806 l 257
 2167.36 806 l 257
 2189.2 866 l 257
 491.198 866 l 257
EndSplineSet
EndChar

StartChar: Q
Encoding: 187 81 187
GlifName: Q_
Width: 2048
VWidth: 0
GlyphClass: 2
Flags: W
AnchorPoint: "base" 1019 -60 basechar 0
AnchorPoint: "top" 1708 1630 basechar 0
LayerCount: 2
Fore
SplineSet
677 1553 m 257
 112 0 l 257
 170 0 l 257
 735 1553 l 257
 677 1553 l 257
2443 1553 m 257
 1878 0 l 257
 1936 0 l 257
 2501 1553 l 257
 2443 1553 l 257
717 1553 m 257
 696 1496 l 257
 2430 1496 l 257
 2451 1553 l 257
 717 1553 l 257
175 62 m 257
 152 0 l 257
 1888 0 l 257
 1911 62 l 257
 175 62 l 257
1421 13 m 257
 1448 -204 l 257
 1524 -165 l 257
 1483 52 l 257
 1421 13 l 257
EndSplineSet
EndChar

StartChar: R
Encoding: 188 82 188
GlifName: R_
Width: 2048
VWidth: 0
GlyphClass: 2
Flags: W
AnchorPoint: "base" 967 -156 basechar 0
AnchorPoint: "top" 1520 1690 basechar 0
LayerCount: 2
Fore
SplineSet
686 1550 m 257
 122 0 l 257
 182 0 l 257
 746 1550 l 257
 686 1550 l 257
728 1550 m 257
 707 1491 l 257
 2423 1491 l 257
 2444 1550 l 257
 728 1550 l 257
2384 1550 m 257
 2137 872 l 257
 2225 872 l 257
 2472 1550 l 257
 2384 1550 l 257
490 929 m 257
 468 868 l 257
 2212 868 l 257
 2234 929 l 257
 490 929 l 257
732 875 m 257
 1870 0 l 257
 1926 0 l 257
 790 875 l 257
 732 875 l 257
EndSplineSet
EndChar

StartChar: S
Encoding: 196 83 196
GlifName: S_
Width: 2048
VWidth: 0
GlyphClass: 2
Flags: W
AnchorPoint: "top" 1444 1638 basechar 0
AnchorPoint: "base" 979 -146 basechar 0
LayerCount: 2
Fore
SplineSet
691 1553 m 257
 670 1494 l 257
 2292 1494 l 257
 2313 1553 l 257
 691 1553 l 257
687 1542 m 257
 500 1028 l 257
 559 1028 l 257
 746 1542 l 257
 687 1542 l 257
176 60 m 257
 154 0 l 257
 1886 0 l 257
 1908 60 l 257
 176 60 l 257
1863 0 m 257
 1922 0 l 257
 2051 355 l 257
 1992 355 l 257
 1863 0 l 257
500 1028 m 257
 1992 355 l 257
 2051 355 l 257
 559 1028 l 257
 500 1028 l 257
EndSplineSet
EndChar

StartChar: uniA78B
Encoding: 198 42891 198
GlifName: S_altillo
Width: 2048
VWidth: 0
GlyphClass: 2
Flags: W
LayerCount: 2
Fore
SplineSet
1293 1458 m 257
 1012 454 l 257
 1065 449 l 257
 1516 1458 l 257
 1293 1458 l 257
EndSplineSet
EndChar

StartChar: uni0428
Encoding: 202 1064 202
GlifName: S_ha-cy
Width: 2048
VWidth: 0
Flags: W
LayerCount: 2
Fore
SplineSet
694 1545 m 257
 131 0 l 257
 191 0 l 257
 754 1545 l 257
 694 1545 l 257
2433 1553 m 257
 1867 0 l 257
 1927 0 l 257
 2493 1553 l 257
 2433 1553 l 257
205 60 m 257
 174 0 l 257
 1969 0 l 257
 2000 60 l 257
 205 60 l 257
1545 1545 m 257
 981 7 l 257
 1041 7 l 257
 1605 1545 l 257
 1545 1545 l 257
EndSplineSet
EndChar

StartChar: uni0429
Encoding: 203 1065 203
GlifName: S_hcha-cy
Width: 2048
VWidth: 0
Flags: W
LayerCount: 2
Fore
SplineSet
597 1545 m 257
 34 0 l 257
 94 0 l 257
 657 1545 l 257
 597 1545 l 257
2336 1553 m 257
 1770 0 l 257
 1830 0 l 257
 2396 1553 l 257
 2336 1553 l 257
108 60 m 257
 77 0 l 257
 1872 0 l 257
 1903 60 l 257
 108 60 l 257
1898 67 m 257
 1680 -401 l 257
 1740 -401 l 257
 1958 67 l 257
 1898 67 l 257
1448 1545 m 257
 884 7 l 257
 944 7 l 257
 1508 1545 l 257
 1448 1545 l 257
EndSplineSet
EndChar

StartChar: Sigma
Encoding: 204 931 204
GlifName: S_igma
Width: 2048
VWidth: 0
GlyphClass: 2
Flags: W
LayerCount: 2
Fore
SplineSet
1553.76 928 m 257
 133.294 64 l 257
 104.904 -14 l 257
 1523.19 844 l 257
 1553.76 928 l 257
1553.22 921 m 257
 688.15 1539 l 257
 666.948 1478 l 257
 1524.1 841 l 257
 1553.22 921 l 257
2411.58 1477 m 257
 2433.42 1537 l 257
 687.422 1537 l 257
 665.584 1477 l 257
 2411.58 1477 l 257
1812 0 m 257
 1833.84 60 l 257
 146.838 60 l 257
 125 0 l 257
 1812 0 l 257
EndSplineSet
EndChar

StartChar: uni042C
Encoding: 205 1068 205
GlifName: S_oftsign-cy
Width: 2048
VWidth: 0
Flags: W
AnchorPoint: "base" 1121 -189 basechar 0
AnchorPoint: "top" 814 1723 basechar 0
LayerCount: 2
Fore
SplineSet
606 1536 m 257
 47 0 l 257
 107 0 l 257
 666 1536 l 257
 606 1536 l 257
368 808 m 257
 345 747 l 257
 2261 747 l 257
 2284 808 l 257
 368 808 l 257
2271 808 m 257
 1895 0 l 257
 1955 0 l 257
 2331 808 l 257
 2271 808 l 257
104 60 m 257
 82 0 l 257
 1933 0 l 257
 1955 60 l 257
 104 60 l 257
EndSplineSet
EndChar

StartChar: T
Encoding: 206 84 206
GlifName: T_
Width: 2048
VWidth: 0
GlyphClass: 2
Flags: W
AnchorPoint: "top" 1640 1642 basechar 0
AnchorPoint: "base" 1053 -131 basechar 0
LayerCount: 2
Fore
SplineSet
685 1553 m 257
 664 1494 l 257
 2472 1494 l 257
 2493 1553 l 257
 685 1553 l 257
1616 1512 m 257
 1070 12 l 257
 1130 12 l 257
 1676 1512 l 257
 1616 1512 l 257
EndSplineSet
EndChar

StartChar: Theta
Encoding: 211 920 211
GlifName: T_heta
Width: 2048
VWidth: 0
GlyphClass: 2
Flags: W
LayerCount: 2
Fore
SplineSet
703.386 883 m 257
 681.548 823 l 257
 1993.55 823 l 257
 2015.39 883 l 257
 703.386 883 l 257
669.422 1537 m 257
 110 0 l 257
 170 0 l 257
 729.422 1537 l 257
 669.422 1537 l 257
2433.42 1537 m 257
 1874 0 l 257
 1934 0 l 257
 2493.42 1537 l 257
 2433.42 1537 l 257
709.422 1537 m 257
 687.584 1477 l 257
 2436.58 1477 l 257
 2458.42 1537 l 257
 709.422 1537 l 257
171.838 60 m 257
 150 0 l 257
 1913 0 l 257
 1934.84 60 l 257
 171.838 60 l 257
EndSplineSet
EndChar

StartChar: uni01AC
Encoding: 212 428 212
GlifName: T_hook
Width: 2048
VWidth: 0
GlyphClass: 2
Flags: W
AnchorPoint: "top" 1748 1642 basechar 0
AnchorPoint: "base" 1161 -131 basechar 0
LayerCount: 2
Fore
SplineSet
793 1553 m 257
 772 1494 l 257
 2580 1494 l 257
 2601 1553 l 257
 793 1553 l 257
1724 1512 m 257
 1178 12 l 257
 1238 12 l 257
 1784 1512 l 257
 1724 1512 l 257
959.963 1554.9 m 257
 494.462 1563.79 l 257
 519.168 1510.21 l 257
 982.852 1500.48 l 257
 959.963 1554.9 l 257
494.462 1563.79 m 257
 618.409 1294.99 l 257
 703.463 1253.82 l 257
 579.516 1522.62 l 257
 494.462 1563.79 l 257
EndSplineSet
EndChar

StartChar: Thorn
Encoding: 213 222 213
GlifName: T_horn
Width: 2048
VWidth: 0
GlyphClass: 2
Flags: W
AnchorPoint: "base" 442 -42 basechar 0
AnchorPoint: "top" 379 1684 basechar 0
LayerCount: 2
Fore
SplineSet
692 1542 m 257
 134 9 l 257
 194 9 l 257
 752 1542 l 257
 692 1542 l 257
630 1240 m 257
 611 1187 l 257
 2323 1187 l 257
 2342 1240 l 257
 630 1240 l 257
2303 1242 m 257
 2044 531 l 257
 2104 531 l 257
 2363 1242 l 257
 2303 1242 l 257
397 544 m 257
 375 484 l 257
 2085 484 l 257
 2107 544 l 257
 397 544 l 257
EndSplineSet
EndChar

StartChar: uni01AE
Encoding: 215 430 215
GlifName: T_retroflexhook
Width: 2048
VWidth: 0
GlyphClass: 2
Flags: W
AnchorPoint: "top" 1640 1642 basechar 0
AnchorPoint: "base" 1053 -131 basechar 0
LayerCount: 2
Fore
SplineSet
685 1553 m 257
 664 1494 l 257
 2472 1494 l 257
 2493 1553 l 257
 685 1553 l 257
1616 1512 m 257
 1070 12 l 257
 1130 12 l 257
 1676 1512 l 257
 1616 1512 l 257
1151.07 229.342 m 257
 988.809 -207.054 l 257
 1047.54 -201.447 l 257
 1209.99 232.959 l 257
 1151.07 229.342 l 257
988.809 -207.054 m 257
 1283.47 -178.922 l 257
 1350.44 -112.256 l 257
 1055.78 -140.388 l 257
 988.809 -207.054 l 257
EndSplineSet
EndChar

StartChar: uni0426
Encoding: 216 1062 216
GlifName: T_se-cy
Width: 2048
VWidth: 0
Flags: W
LayerCount: 2
Fore
SplineSet
599 1548 m 257
 36 3 l 257
 96 3 l 257
 659 1548 l 257
 599 1548 l 257
2336 1553 m 257
 1770 0 l 257
 1830 0 l 257
 2396 1553 l 257
 2336 1553 l 257
117 60 m 257
 86 0 l 257
 1872 0 l 257
 1903 60 l 257
 117 60 l 257
1898 67 m 257
 1680 -401 l 257
 1740 -401 l 257
 1958 67 l 257
 1898 67 l 257
EndSplineSet
EndChar

StartChar: uni040B
Encoding: 217 1035 217
GlifName: T_she-cy
Width: 2048
VWidth: 0
Flags: W
LayerCount: 2
Fore
SplineSet
616 1548 m 257
 573 1488 l 257
 2129 1488 l 257
 2172 1548 l 257
 616 1548 l 257
1381 1544 m 257
 819 -1 l 257
 879 -1 l 257
 1441 1544 l 257
 1381 1544 l 257
1194 994 m 257
 1170 934 l 257
 2295 934 l 257
 2319 994 l 257
 1194 994 l 257
2257 989 m 257
 1897 0 l 257
 1957 0 l 257
 2317 989 l 257
 2257 989 l 257
EndSplineSet
EndChar

StartChar: U
Encoding: 218 85 218
GlifName: U_
Width: 2048
VWidth: 0
GlyphClass: 2
Flags: W
AnchorPoint: "top" 1556 1630 basechar 0
AnchorPoint: "base" 1108 -160 basechar 0
LayerCount: 2
Fore
SplineSet
721 1553 m 257
 156 0 l 257
 218 0 l 257
 783 1553 l 257
 721 1553 l 257
2395 1553 m 257
 1830 0 l 257
 1890 0 l 257
 2455 1553 l 257
 2395 1553 l 257
226 61 m 257
 204 0 l 257
 1848 0 l 257
 1870 61 l 257
 226 61 l 257
EndSplineSet
EndChar

StartChar: uni0423
Encoding: 219 1059 219
GlifName: U_-cy
Width: 2048
VWidth: 0
Flags: W
AnchorPoint: "top" 1284 1094 basechar 0
AnchorPoint: "base" 934 -458 basechar 0
LayerCount: 2
Fore
SplineSet
2213 1427 m 257
 1692 -6 l 257
 1752 -6 l 257
 2273 1427 l 257
 2213 1427 l 257
19 53 m 257
 -2 -6 l 257
 1739 -6 l 257
 1760 53 l 257
 19 53 l 257
519 1427 m 257
 243 668 l 257
 303 668 l 257
 579 1427 l 257
 519 1427 l 257
265 728 m 257
 243 668 l 257
 1957 668 l 257
 1979 728 l 257
 265 728 l 257
EndSplineSet
EndChar

StartChar: uni01B1
Encoding: 231 433 231
GlifName: U_psilon_latin
Width: 2048
VWidth: 0
GlyphClass: 2
Flags: W
AnchorPoint: "top" 1454 1630 basechar 0
LayerCount: 2
Fore
SplineSet
1198 1455 m 257
 269 0 l 257
 329 0 l 257
 1258 1455 l 257
 1198 1455 l 257
1637 1455 m 257
 1755 0 l 257
 1815 0 l 257
 1697 1455 l 257
 1637 1455 l 257
351 56 m 257
 327 0 l 257
 1754 0 l 257
 1781 63 l 257
 351 56 l 257
1673 1455 m 257
 1679 1395 l 257
 2422 1395 l 257
 2416 1455 l 257
 1673 1455 l 257
475 1455 m 257
 441 1395 l 257
 1176 1395 l 257
 1210 1455 l 257
 475 1455 l 257
EndSplineSet
EndChar

StartChar: V
Encoding: 238 86 238
GlifName: V_
Width: 2048
VWidth: 0
GlyphClass: 2
Flags: W
AnchorPoint: "top" 1644 1634 basechar 0
AnchorPoint: "base" 1070 -175 basechar 0
LayerCount: 2
Fore
SplineSet
671 1553 m 257
 1062 0 l 257
 1122 0 l 257
 735 1553 l 257
 671 1553 l 257
2437 1553 m 257
 1062 0 l 257
 1122 0 l 257
 2507 1553 l 257
 2437 1553 l 257
EndSplineSet
EndChar

StartChar: uni01B2
Encoding: 239 434 239
GlifName: V_hook
Width: 2048
VWidth: 0
GlyphClass: 2
Flags: W
AnchorPoint: "top" 1400 1086 basechar 0
AnchorPoint: "base" 1008 -118 basechar 0
LayerCount: 2
Fore
SplineSet
476 1623 m 257
 104 0 l 257
 160 0 l 257
 532 1623 l 257
 476 1623 l 257
2256 1623 m 257
 1884 0 l 257
 1946 0 l 257
 2318 1623 l 257
 2256 1623 l 257
1683 1623 m 257
 1663 1567 l 257
 2241 1567 l 257
 2261 1623 l 257
 1683 1623 l 257
173 62 m 257
 150 0 l 257
 1892 0 l 257
 1915 62 l 257
 173 62 l 257
EndSplineSet
EndChar

StartChar: W
Encoding: 241 87 241
GlifName: W_
Width: 2048
VWidth: 0
GlyphClass: 2
Flags: W
AnchorPoint: "base" 1055 -123 basechar 0
AnchorPoint: "top" 1616 1634 basechar 0
LayerCount: 2
Fore
SplineSet
666 1546 m 257
 103 0 l 257
 163 0 l 257
 726 1546 l 257
 666 1546 l 257
2443 1533 m 257
 1889 12 l 257
 1949 12 l 257
 2503 1533 l 257
 2443 1533 l 257
1443 1028 m 257
 1069 0 l 257
 1129 0 l 257
 1503 1028 l 257
 1443 1028 l 257
133 60 m 257
 111 0 l 257
 1945 0 l 257
 1967 60 l 257
 133 60 l 257
EndSplineSet
EndChar

StartChar: X
Encoding: 247 88 247
GlifName: X_
Width: 2048
VWidth: 0
GlyphClass: 2
Flags: W
AnchorPoint: "top" 1464 1620 basechar 0
AnchorPoint: "base" 1052 -40 basechar 0
LayerCount: 2
Fore
SplineSet
667 1553 m 257
 1872 0 l 257
 1946 0 l 257
 739 1553 l 257
 667 1553 l 257
102 0 m 257
 172 0 l 257
 2511 1553 l 257
 2435 1553 l 257
 102 0 l 257
EndSplineSet
EndChar

StartChar: Xi
Encoding: 248 926 248
GlifName: X_i
Width: 2048
VWidth: 0
GlyphClass: 2
Flags: W
LayerCount: 2
Fore
SplineSet
496.044 948 m 257
 474.206 888 l 257
 2218.21 888 l 257
 2240.04 948 l 257
 496.044 948 l 257
660.426 1548 m 257
 638.224 1487 l 257
 2496.22 1487 l 257
 2518.43 1548 l 257
 660.426 1548 l 257
119.838 60 m 257
 98 0 l 257
 1950 0 l 257
 1971.84 60 l 257
 119.838 60 l 257
EndSplineSet
EndChar

StartChar: Y
Encoding: 249 89 249
GlifName: Y_
Width: 2048
VWidth: 0
GlyphClass: 2
Flags: W
AnchorPoint: "top" 1628 1642 basechar 0
AnchorPoint: "base" 1080 -147 basechar 0
LayerCount: 2
Fore
SplineSet
1386 895 m 257
 1060 0 l 257
 1119 0 l 257
 1445 895 l 257
 1386 895 l 257
734 1547 m 257
 484 859 l 257
 545 859 l 257
 795 1547 l 257
 734 1547 l 257
2376 1536 m 257
 2130 859 l 257
 2190 859 l 257
 2436 1536 l 257
 2376 1536 l 257
551 919 m 257
 530 859 l 257
 2163 859 l 257
 2184 919 l 257
 551 919 l 257
EndSplineSet
EndChar

StartChar: uni042F
Encoding: 250 1071 250
GlifName: Y_a-cy
Width: 2048
VWidth: 0
Flags: W
AnchorPoint: "base" 942 4 basechar 0
AnchorPoint: "top" 960 1634 basechar 0
LayerCount: 2
Fore
SplineSet
2485 1550 m 257
 1926 0 l 257
 1866 0 l 257
 2425 1550 l 257
 2485 1550 l 257
2443 1550 m 257
 2403 1491 l 257
 687 1491 l 257
 727 1550 l 257
 2443 1550 l 257
787 1550 m 257
 545 872 l 257
 457 872 l 257
 699 1550 l 257
 787 1550 l 257
2256 929 m 257
 2212 868 l 257
 468 868 l 257
 512 929 l 257
 2256 929 l 257
1952 875 m 257
 178 0 l 257
 122 0 l 257
 1893 875 l 257
 1952 875 l 257
EndSplineSet
EndChar

StartChar: uni0462
Encoding: 252 1122 252
GlifName: Y_at-cy
Width: 2048
VWidth: 0
Flags: W
AnchorPoint: "base" 1121 -189 basechar 0
AnchorPoint: "top" 814 1723 basechar 0
LayerCount: 2
Fore
SplineSet
1306 1536 m 257
 747 0 l 257
 807 0 l 257
 1366 1536 l 257
 1306 1536 l 257
1068 808 m 257
 1045 747 l 257
 2261 747 l 257
 2284 808 l 257
 1068 808 l 257
2271 808 m 257
 1895 0 l 257
 1955 0 l 257
 2331 808 l 257
 2271 808 l 257
804 60 m 257
 782 0 l 257
 1933 0 l 257
 1955 60 l 257
 804 60 l 257
597 1279 m 257
 582 1218 l 257
 1842 1218 l 257
 1858 1279 l 257
 597 1279 l 257
EndSplineSet
EndChar

StartChar: uni042B
Encoding: 255 1067 255
GlifName: Y_eru-cy
Width: 2048
VWidth: 0
Flags: W
AnchorPoint: "base" 1121 -189 basechar 0
AnchorPoint: "top" 814 1723 basechar 0
LayerCount: 2
Fore
SplineSet
606 1536 m 257
 47 0 l 257
 107 0 l 257
 666 1536 l 257
 606 1536 l 257
368 808 m 257
 345 747 l 257
 1941 747 l 257
 1964 808 l 257
 368 808 l 257
1951 808 m 257
 1575 0 l 257
 1635 0 l 257
 2011 808 l 257
 1951 808 l 257
104 60 m 257
 82 0 l 257
 1613 0 l 257
 1635 60 l 257
 104 60 l 257
2416 1541 m 257
 1857 5 l 257
 1917 5 l 257
 2476 1541 l 257
 2416 1541 l 257
EndSplineSet
EndChar

StartChar: uni042E
Encoding: 258 1070 258
GlifName: Y_u-cy
Width: 2048
VWidth: 0
Flags: W
AnchorPoint: "top" 1544 1726 basechar 0
AnchorPoint: "base" 1024 -214 basechar 0
LayerCount: 2
Fore
SplineSet
1454 1553 m 257
 888 0 l 257
 948 0 l 257
 1513 1553 l 257
 1454 1553 l 257
2442 1553 m 257
 1877 0 l 257
 1936 0 l 257
 2501 1553 l 257
 2442 1553 l 257
1492 1553 m 257
 1470 1493 l 257
 2449 1493 l 257
 2471 1553 l 257
 1492 1553 l 257
951 61 m 257
 929 0 l 257
 1914 0 l 257
 1936 61 l 257
 951 61 l 257
642 1553 m 257
 77 0 l 257
 136 0 l 257
 701 1553 l 257
 642 1553 l 257
428 940 m 257
 420 880 l 257
 1264 880 l 257
 1272 940 l 257
 428 940 l 257
EndSplineSet
EndChar

StartChar: Z
Encoding: 259 90 259
GlifName: Z_
Width: 2048
VWidth: 0
GlyphClass: 2
Flags: W
AnchorPoint: "top" 1596 1638 basechar 0
AnchorPoint: "base" 1092 -78 basechar 0
LayerCount: 2
Fore
SplineSet
662 1550 m 257
 641 1491 l 257
 2493 1491 l 257
 2514 1550 l 257
 662 1550 l 257
121 60 m 257
 99 0 l 257
 1950 0 l 257
 1972 60 l 257
 121 60 l 257
2433 1491 m 257
 121 60 l 257
 181 60 l 257
 2493 1491 l 257
 2433 1491 l 257
EndSplineSet
EndChar

StartChar: uni0417
Encoding: 263 1047 263
GlifName: Z_e-cy
Width: 2048
VWidth: 0
Flags: W
LayerCount: 2
Fore
SplineSet
662 1547 m 257
 639 1487 l 257
 2489 1487 l 257
 2512 1547 l 257
 662 1547 l 257
662 1547 m 257
 539 1211 l 257
 599 1211 l 257
 722 1547 l 257
 662 1547 l 257
2448 1535 m 257
 2205 819 l 257
 2265 819 l 257
 2508 1535 l 257
 2448 1535 l 257
2148 763 m 257
 1892 7 l 257
 1952 7 l 257
 2208 763 l 257
 2148 763 l 257
122 60 m 257
 102 0 l 257
 1945 0 l 257
 1965 60 l 257
 122 60 l 257
242 395 m 257
 98 0 l 257
 158 0 l 257
 302 395 l 257
 242 395 l 257
824 822 m 257
 751 762 l 257
 2149 762 l 257
 2222 822 l 257
 824 822 l 257
EndSplineSet
EndChar

StartChar: uni0416
Encoding: 265 1046 265
GlifName: Z_he-cy
Width: 2048
VWidth: 0
Flags: W
AnchorPoint: "base" 1030 -39 basechar 0
AnchorPoint: "top" 211 1620 basechar 0
LayerCount: 2
Fore
SplineSet
1585 1553 m 257
 1028 5 l 257
 1088 5 l 257
 1645 1553 l 257
 1585 1553 l 257
1396 1015 m 257
 1392 950 l 257
 2689 1556 l 257
 2563 1550 l 257
 1396 1015 l 257
1384 874 m 257
 1330 838 l 257
 2016 -2 l 257
 2067 2 l 257
 1384 874 l 257
1410 1012 m 257
 622 1547 l 257
 584 1550 l 257
 1382 944 l 257
 1410 1012 l 257
1402 934 m 257
 -7 0 l 257
 43 0 l 257
 1366 844 l 257
 1402 934 l 257
EndSplineSet
EndChar

StartChar: a
Encoding: 266 97 266
GlifName: a
Width: 2048
VWidth: 0
GlyphClass: 2
Flags: W
AnchorPoint: "top" 1413 1189 basechar 0
AnchorPoint: "base" 994 -139 basechar 0
LayerCount: 2
Fore
SplineSet
538 1023 m 257
 514 957 l 257
 2187 957 l 257
 2211 1023 l 257
 538 1023 l 257
2173 1023 m 257
 1801 0 l 257
 1878 0 l 257
 2250 1023 l 257
 2173 1023 l 257
387 600 m 257
 365 538 l 257
 2013 538 l 257
 2035 600 l 257
 387 600 l 257
380 577 m 257
 170 0 l 257
 241 0 l 257
 451 577 l 257
 380 577 l 257
206 74 m 257
 179 0 l 257
 1867 0 l 257
 1894 74 l 257
 206 74 l 257
EndSplineSet
EndChar

StartChar: acute
Encoding: 271 180 271
GlifName: acute
Width: 2048
VWidth: 0
GlyphClass: 2
Flags: W
LayerCount: 2
Fore
SplineSet
1088 1556 m 257
 866 1302 l 257
 937 1256 l 257
 1161 1511 l 257
 1088 1556 l 257
EndSplineSet
EndChar

StartChar: acutecomb
Encoding: 272 769 272
GlifName: acutecomb
Width: 0
VWidth: 0
GlyphClass: 4
Flags: W
AnchorPoint: "top" 1 776 mark 0
LayerCount: 2
Fore
SplineSet
141 989 m 257
 -6 804 l 257
 35 770 l 257
 181 955 l 257
 141 989 l 257
EndSplineSet
EndChar

StartChar: ae
Encoding: 276 230 276
GlifName: ae
Width: 2048
VWidth: 0
GlyphClass: 2
Flags: W
AnchorPoint: "base" 1074 -93 basechar 0
AnchorPoint: "top" 1460 1160 basechar 0
LayerCount: 2
Fore
SplineSet
476 1023 m 257
 454 961 l 257
 2244 961 l 257
 2266 1023 l 257
 476 1023 l 257
1396 1023 m 257
 1024 0 l 257
 1084 0 l 257
 1456 1023 l 257
 1396 1023 l 257
346 599 m 257
 324 538 l 257
 2064 538 l 257
 2086 599 l 257
 346 599 l 257
337 575 m 257
 128 0 l 257
 188 0 l 257
 397 575 l 257
 337 575 l 257
148 61 m 257
 126 0 l 257
 1946 0 l 257
 1968 61 l 257
 148 61 l 257
2234 1023 m 257
 2058 538 l 257
 2120 538 l 257
 2296 1023 l 257
 2234 1023 l 257
EndSplineSet
EndChar

StartChar: alpha
Encoding: 279 945 279
GlifName: alpha
Width: 2048
VWidth: 0
GlyphClass: 2
Flags: W
LayerCount: 2
Fore
SplineSet
544 1023 m 257
 520 963 l 257
 1409 963 l 257
 1481 1023 l 257
 544 1023 l 257
531 984 m 257
 173 0 l 257
 233 0 l 257
 591 984 l 257
 531 984 l 257
274 60 m 257
 201 0 l 257
 1131 5 l 257
 1204 65 l 257
 274 60 l 257
1971 -1 m 257
 2047 32 l 257
 1482 1024 l 257
 1400 990 l 257
 1971 -1 l 257
1133 3 m 257
 2371 939 l 257
 2350 975 l 257
 1112 39 l 257
 1133 3 l 257
EndSplineSet
EndChar

StartChar: uni0251
Encoding: 280 593 280
GlifName: alpha_latin
Width: 2048
VWidth: 0
GlyphClass: 2
Flags: W
AnchorPoint: "top" 1400 1086 basechar 0
AnchorPoint: "base" 1008 -118 basechar 0
LayerCount: 2
Fore
SplineSet
476 1023 m 257
 104 0 l 257
 160 0 l 257
 532 1023 l 257
 476 1023 l 257
2256 1116 m 257
 1884 -127 l 257
 1946 -127 l 257
 2318 1116 l 257
 2256 1116 l 257
524 1023 m 257
 504 967 l 257
 2241 967 l 257
 2261 1023 l 257
 524 1023 l 257
173 62 m 257
 150 0 l 257
 1892 0 l 257
 1915 62 l 257
 173 62 l 257
EndSplineSet
EndChar

StartChar: ampersand
Encoding: 287 38 287
GlifName: ampersand
Width: 2048
VWidth: 0
GlyphClass: 2
Flags: W
LayerCount: 2
Fore
SplineSet
1330 1534 m 257
 1717 43 l 257
 1797 56 l 257
 1408 1534 l 257
 1330 1534 l 257
2261 1467 m 257
 2286 1536 l 257
 1409 1536 l 257
 1384 1467 l 257
 2261 1467 l 257
2209 1485 m 257
 2035 1006 l 257
 2093 1006 l 257
 2267 1485 l 257
 2209 1485 l 257
737 1045 m 257
 716 985 l 257
 2086 985 l 257
 2107 1045 l 257
 737 1045 l 257
737 1045 m 257
 366 24 l 257
 456 24 l 257
 827 1045 l 257
 737 1045 l 257
383 71 m 257
 359 6 l 257
 1841 6 l 257
 1865 71 l 257
 383 71 l 257
EndSplineSet
EndChar

StartChar: approxequal
Encoding: 290 8776 290
GlifName: approxequal
Width: 2048
VWidth: 0
GlyphClass: 2
Flags: W
LayerCount: 2
Fore
SplineSet
923 528 m 257
 898 395 l 257
 1576 334 l 257
 1601 467 l 257
 923 528 l 257
426 470 m 257
 432 338 l 257
 898 395 l 257
 923 528 l 257
 426 470 l 257
1601 467 m 257
 1576 334 l 257
 1990 475 l 257
 1965 605 l 257
 1601 467 l 257
1028 898 m 257
 1005 752 l 257
 1682 691 l 257
 1705 837 l 257
 1028 898 l 257
531 840 m 257
 538 695 l 257
 1005 752 l 257
 1028 898 l 257
 531 840 l 257
1705 837 m 257
 1682 691 l 257
 2096 832 l 257
 2070 975 l 257
 1705 837 l 257
EndSplineSet
EndChar

StartChar: asciicircum
Encoding: 294 94 294
GlifName: asciicircum
Width: 2048
VWidth: 0
GlyphClass: 2
Flags: W
LayerCount: 2
Fore
SplineSet
1396 1027 m 257
 1324 1027 l 257
 834 407 l 257
 876 373 l 257
 1396 1027 l 257
1331 1030 m 257
 1412 364 l 257
 1508 400 l 257
 1405 1030 l 257
 1331 1030 l 257
EndSplineSet
EndChar

StartChar: asciitilde
Encoding: 295 126 295
GlifName: asciitilde
Width: 2048
VWidth: 0
GlyphClass: 2
Flags: W
LayerCount: 2
Fore
SplineSet
1157 766 m 257
 1139 716 l 257
 1463 645 l 257
 1481 695 l 257
 1157 766 l 257
896 710 m 257
 889 652 l 257
 1139 716 l 257
 1157 766 l 257
 896 710 l 257
1481 695 m 257
 1463 645 l 257
 1700 796 l 257
 1703 843 l 257
 1481 695 l 257
EndSplineSet
EndChar

StartChar: asterisk
Encoding: 296 42 296
GlifName: asterisk
Width: 2048
VWidth: 0
GlyphClass: 2
Flags: W
LayerCount: 2
Fore
SplineSet
1470 1297 m 257
 1103 289 l 257
 1203 289 l 257
 1570 1297 l 257
 1470 1297 l 257
1072 1153 m 257
 1530 424 l 257
 1625 496 l 257
 1157 1222 l 257
 1072 1153 l 257
1789 1200 m 257
 767 449 l 257
 805 399 l 257
 1817 1134 l 257
 1789 1200 l 257
EndSplineSet
EndChar

StartChar: at
Encoding: 297 64 297
GlifName: at
Width: 2048
VWidth: 0
GlyphClass: 2
Flags: W
LayerCount: 2
Fore
SplineSet
966 1023 m 257
 942 956 l 257
 1840 956 l 257
 1864 1023 l 257
 966 1023 l 257
1470 598 m 257
 1252 0 l 257
 1320 0 l 257
 1538 598 l 257
 1470 598 l 257
1051 601 m 257
 1033 551 l 257
 1457 551 l 257
 1475 601 l 257
 1051 601 l 257
1042 589 m 257
 832 12 l 257
 886 12 l 257
 1096 589 l 257
 1042 589 l 257
854 76 m 257
 826 0 l 257
 1320 0 l 257
 1348 76 l 257
 854 76 l 257
912 1023 m 257
 459 -223 l 257
 525 -223 l 257
 978 1023 l 257
 912 1023 l 257
473 -179 m 257
 444 -258 l 257
 1392 -258 l 257
 1421 -179 l 257
 473 -179 l 257
1800 1033 m 257
 1424 0 l 257
 1510 0 l 257
 1886 1033 l 257
 1800 1033 l 257
1294 76 m 257
 1266 0 l 257
 1456 0 l 257
 1484 76 l 257
 1294 76 l 257
EndSplineSet
EndChar

StartChar: uni0250
Encoding: 299 592 299
GlifName: aturned
Width: 2048
VWidth: 0
GlyphClass: 2
Flags: W
AnchorPoint: "top" 1006 -163 basechar 0
AnchorPoint: "base" 1425 1165 basechar 0
LayerCount: 2
Fore
SplineSet
1881 3 m 257
 1905 69 l 257
 232 69 l 257
 208 3 l 257
 1881 3 l 257
246 3 m 257
 618 1026 l 257
 541 1026 l 257
 169 3 l 257
 246 3 l 257
2032 426 m 257
 2054 488 l 257
 406 488 l 257
 384 426 l 257
 2032 426 l 257
2039 449 m 257
 2249 1026 l 257
 2178 1026 l 257
 1968 449 l 257
 2039 449 l 257
2213 952 m 257
 2240 1026 l 257
 552 1026 l 257
 525 952 l 257
 2213 952 l 257
EndSplineSet
EndChar

StartChar: b
Encoding: 300 98 300
GlifName: b
Width: 2048
VWidth: 0
GlyphClass: 2
Flags: W
AnchorPoint: "base" 1121 -189 basechar 0
AnchorPoint: "top" 814 1723 basechar 0
LayerCount: 2
Fore
SplineSet
694 1536 m 257
 135 0 l 257
 195 0 l 257
 754 1536 l 257
 694 1536 l 257
554 1033 m 257
 532 972 l 257
 2220 972 l 257
 2242 1033 l 257
 554 1033 l 257
2229 1033 m 257
 1853 0 l 257
 1913 0 l 257
 2289 1033 l 257
 2229 1033 l 257
192 60 m 257
 170 0 l 257
 1891 0 l 257
 1913 60 l 257
 192 60 l 257
EndSplineSet
EndChar

StartChar: backslash
Encoding: 301 92 301
GlifName: backslash
Width: 2048
VWidth: 0
GlyphClass: 2
Flags: W
LayerCount: 2
Fore
SplineSet
1271 1550 m 257
 1263 0 l 257
 1341 0 l 257
 1354 1550 l 257
 1271 1550 l 257
EndSplineSet
EndChar

StartChar: bar
Encoding: 303 124 303
GlifName: bar
Width: 2048
VWidth: 0
GlyphClass: 2
Flags: W
LayerCount: 2
Fore
SplineSet
1506 1435 m 257
 951 -90 l 257
 1031 -90 l 257
 1586 1435 l 257
 1506 1435 l 257
EndSplineSet
EndChar

StartChar: uni0431
Encoding: 305 1073 305
GlifName: be-cy
Width: 2048
VWidth: 0
Flags: W
AnchorPoint: "base" 1121 -189 basechar 0
AnchorPoint: "top" 814 1723 basechar 0
LayerCount: 2
Fore
SplineSet
694 1260 m 257
 135 0 l 257
 195 0 l 257
 754 1260 l 257
 694 1260 l 257
554 1033 m 257
 532 972 l 257
 2220 972 l 257
 2242 1033 l 257
 554 1033 l 257
2229 1033 m 257
 1853 0 l 257
 1913 0 l 257
 2289 1033 l 257
 2229 1033 l 257
192 60 m 257
 170 0 l 257
 1891 0 l 257
 1913 60 l 257
 192 60 l 257
694 1260 m 257
 672 1199 l 257
 2213 1513 l 257
 2235 1574 l 257
 694 1260 l 257
EndSplineSet
EndChar

StartChar: beta
Encoding: 306 946 306
GlifName: beta
Width: 2048
VWidth: 0
GlyphClass: 2
Flags: W
LayerCount: 2
Fore
SplineSet
456 1505 m 257
 -258 -457 l 257
 -198 -457 l 257
 516 1505 l 257
 456 1505 l 257
472 1547 m 257
 450 1487 l 257
 2262 1392 l 257
 2284 1452 l 257
 472 1547 l 257
2224 1453 m 257
 1696 2 l 257
 1756 2 l 257
 2284 1453 l 257
 2224 1453 l 257
191 776 m 257
 169 716 l 257
 2016 716 l 257
 2038 776 l 257
 191 776 l 257
732 53 m 257
 713 2 l 257
 1756 2 l 257
 1775 53 l 257
 732 53 l 257
EndSplineSet
EndChar

StartChar: uniA7B5
Encoding: 307 42933 307
GlifName: beta_latin
Width: 2048
VWidth: 0
GlyphClass: 2
Flags: W
LayerCount: 2
Fore
SplineSet
456 1505 m 257
 -258 -457 l 257
 -198 -457 l 257
 516 1505 l 257
 456 1505 l 257
472 1547 m 257
 450 1487 l 257
 2262 1392 l 257
 2284 1452 l 257
 472 1547 l 257
2224 1453 m 257
 1696 2 l 257
 1756 2 l 257
 2284 1453 l 257
 2224 1453 l 257
191 776 m 257
 169 716 l 257
 2016 716 l 257
 2038 776 l 257
 191 776 l 257
732 53 m 257
 713 2 l 257
 1756 2 l 257
 1775 53 l 257
 732 53 l 257
EndSplineSet
EndChar

StartChar: H18533
Encoding: 310 9679 310
GlifName: blackC_ircle
Width: 2048
VWidth: 0
GlyphClass: 2
Flags: W
LayerCount: 2
Fore
SplineSet
1103 1186 m 257
 920 1174 l 257
 767 1089 l 257
 673 923 l 257
 687 730 l 257
 754 515 l 257
 978 421 l 257
 1140 443 l 257
 1319 493 l 257
 1386 645 l 257
 1418 780 l 257
 1413 946 l 257
 1323 1089 l 257
 1103 1186 l 257
EndSplineSet
EndChar

StartChar: uni25C6
Encoding: 311 9670 311
GlifName: blackD_iamond
Width: 2048
VWidth: 0
GlyphClass: 2
Flags: W
LayerCount: 2
Fore
SplineSet
603 788 m 257
 1029 361 l 257
 1456 788 l 257
 1030 1214 l 257
 603 788 l 257
EndSplineSet
EndChar

StartChar: H18543
Encoding: 312 9642 312
GlifName: blackS_mallS_quare
Width: 2048
VWidth: 0
GlyphClass: 2
Flags: W
LayerCount: 2
Fore
SplineSet
772 1077 m 257
 772 580 l 257
 1269 580 l 257
 1269 1077 l 257
 772 1077 l 257
EndSplineSet
EndChar

StartChar: filledbox
Encoding: 313 9632 313
GlifName: blackS_quare
Width: 2048
VWidth: 0
GlyphClass: 2
Flags: W
LayerCount: 2
Fore
SplineSet
607 1242 m 257
 607 415 l 257
 1434 415 l 257
 1434 1242 l 257
 607 1242 l 257
EndSplineSet
EndChar

StartChar: braceleft
Encoding: 315 123 315
GlifName: braceleft
Width: 2048
VWidth: 0
GlyphClass: 2
Flags: W
LayerCount: 2
Fore
SplineSet
1606 1600 m 257
 1329 838 l 257
 1403 838 l 257
 1680 1600 l 257
 1606 1600 l 257
1190 424 m 257
 941 -261 l 257
 1027 -261 l 257
 1276 424 l 257
 1190 424 l 257
987 690 m 257
 965 630 l 257
 1404 836 l 257
 1328 836 l 257
 987 690 l 257
987 690 m 257
 965 630 l 257
 1189 425 l 257
 1275 425 l 257
 987 690 l 257
1626 1600 m 257
 1601 1529 l 257
 1872 1571 l 257
 1886 1600 l 257
 1626 1600 l 257
977 -179 m 257
 946 -263 l 257
 1216 -263 l 257
 1221 -250 l 257
 977 -179 l 257
EndSplineSet
EndChar

StartChar: braceright
Encoding: 316 125 316
GlifName: braceright
Width: 2048
VWidth: 0
GlyphClass: 2
Flags: W
LayerCount: 2
Fore
SplineSet
1602 1544 m 257
 1543 1544 l 257
 1286 838 l 257
 1344 838 l 257
 1602 1544 l 257
1180 424 m 257
 1120 424 l 257
 862 -286 l 257
 922 -286 l 257
 1180 424 l 257
1564 690 m 257
 1340 838 l 257
 1285 838 l 257
 1542 630 l 257
 1564 690 l 257
1564 690 m 257
 1120 424 l 257
 1180 424 l 257
 1542 630 l 257
 1564 690 l 257
1624 1603 m 257
 1349 1603 l 257
 1343 1574 l 257
 1587 1509 l 257
 1624 1603 l 257
941 -200 m 257
 635 -274 l 257
 632 -284 l 257
 908 -284 l 257
 941 -200 l 257
EndSplineSet
EndChar

StartChar: bracketleft
Encoding: 317 91 317
GlifName: bracketleft
Width: 2048
VWidth: 0
GlyphClass: 2
Flags: W
LayerCount: 2
Fore
SplineSet
1451 1542 m 257
 802 -242 l 257
 859 -242 l 257
 1508 1542 l 257
 1451 1542 l 257
1506 1543 m 257
 1483 1481 l 257
 1692 1481 l 257
 1715 1543 l 257
 1506 1543 l 257
865 -168 m 257
 838 -242 l 257
 1070 -242 l 257
 1097 -168 l 257
 865 -168 l 257
EndSplineSet
EndChar

StartChar: bracketright
Encoding: 318 93 318
GlifName: bracketright
Width: 2048
VWidth: 0
GlyphClass: 2
Flags: W
LayerCount: 2
Fore
SplineSet
1659 1542 m 257
 1010 -242 l 257
 1072 -242 l 257
 1721 1542 l 257
 1659 1542 l 257
1448 1543 m 257
 1424 1478 l 257
 1652 1478 l 257
 1676 1543 l 257
 1448 1543 l 257
826 -165 m 257
 798 -242 l 257
 1036 -242 l 257
 1064 -165 l 257
 826 -165 l 257
EndSplineSet
EndChar

StartChar: breve
Encoding: 319 728 319
GlifName: breve
Width: 2048
VWidth: 0
GlyphClass: 2
Flags: W
LayerCount: 2
Fore
SplineSet
1753 1550 m 257
 1728 1480 l 257
 1918 1550 l 257
 1953 1645 l 257
 1753 1550 l 257
1429 1550 m 257
 1404 1480 l 257
 1728 1480 l 257
 1753 1550 l 257
 1429 1550 l 257
1287 1630 m 257
 1258 1550 l 257
 1404 1480 l 257
 1429 1550 l 257
 1287 1630 l 257
EndSplineSet
EndChar

StartChar: brokenbar
Encoding: 325 166 325
GlifName: brokenbar
Width: 2048
VWidth: 0
GlyphClass: 2
Flags: W
LayerCount: 2
Fore
SplineSet
881 -332 m 257
 925 -332 l 257
 1294 682 l 257
 1250 682 l 257
 881 -332 l 257
1297 790 m 257
 1334 790 l 257
 1641 1636 l 257
 1604 1636 l 257
 1297 790 l 257
EndSplineSet
EndChar

StartChar: bullet
Encoding: 328 8226 328
GlifName: bullet
Width: 2048
VWidth: 0
GlyphClass: 2
Flags: W
LayerCount: 2
Fore
SplineSet
1314 1009 m 257
 1254 844 l 257
 1408 844 l 257
 1468 1009 l 257
 1314 1009 l 257
EndSplineSet
EndChar

StartChar: uni2219
Encoding: 329 8729 329
GlifName: bulletoperator
Width: 2048
VWidth: 0
GlyphClass: 2
Flags: W
LayerCount: 2
Fore
SplineSet
1314 1009 m 257
 1254 844 l 257
 1408 844 l 257
 1468 1009 l 257
 1314 1009 l 257
EndSplineSet
EndChar

StartChar: c
Encoding: 330 99 330
GlifName: c
Width: 2048
VWidth: 0
GlyphClass: 2
Flags: W
AnchorPoint: "base" 978 -112 basechar 0
AnchorPoint: "top" 1504 1173 basechar 0
LayerCount: 2
Fore
SplineSet
538 1027 m 257
 516 967 l 257
 2236 967 l 257
 2258 1027 l 257
 538 1027 l 257
524 984 m 257
 166 0 l 257
 226 0 l 257
 584 984 l 257
 524 984 l 257
236 60 m 257
 214 0 l 257
 1878 0 l 257
 1900 60 l 257
 236 60 l 257
EndSplineSet
EndChar

StartChar: caron
Encoding: 333 711 333
GlifName: caron
Width: 2048
VWidth: 0
GlyphClass: 2
Flags: W
LayerCount: 2
Fore
SplineSet
1424 1102 m 257
 1402 1429 l 257
 1369 1412 l 257
 1388 1102 l 257
 1424 1102 l 257
1391 1101 m 257
 1428 1101 l 257
 1708 1416 l 257
 1674 1434 l 257
 1391 1101 l 257
EndSplineSet
EndChar

StartChar: cedilla
Encoding: 338 184 338
GlifName: cedilla
Width: 2048
VWidth: 0
GlyphClass: 2
Flags: W
LayerCount: 2
Fore
SplineSet
873 187 m 257
 786 -53 l 257
 844 -53 l 257
 931 187 l 257
 873 187 l 257
687 -340 m 257
 665 -401 l 257
 1111 -401 l 257
 1133 -340 l 257
 687 -340 l 257
1201 7 m 257
 1065 -365 l 257
 1124 -365 l 257
 1260 7 l 257
 1201 7 l 257
814 7 m 257
 792 -53 l 257
 1238 -53 l 257
 1260 7 l 257
 814 7 l 257
EndSplineSet
EndChar

StartChar: cent
Encoding: 339 162 339
GlifName: cent
Width: 2048
VWidth: 0
GlyphClass: 2
Flags: W
LayerCount: 2
Fore
SplineSet
1547 1183 m 257
 1487 1183 l 257
 1025 -86 l 257
 1085 -86 l 257
 1547 1183 l 257
1050 1027 m 257
 1028 966 l 257
 1724 966 l 257
 1746 1027 l 257
 1050 1027 l 257
1036 984 m 257
 678 0 l 257
 743 0 l 257
 1101 984 l 257
 1036 984 l 257
749 61 m 257
 727 0 l 257
 1366 0 l 257
 1388 61 l 257
 749 61 l 257
EndSplineSet
EndChar

StartChar: uni0447
Encoding: 340 1095 340
GlifName: che-cy
Width: 2048
VWidth: 0
Flags: W
LayerCount: 2
Fore
SplineSet
2249 1024 m 257
 1850 -1 l 257
 1910 -1 l 257
 2309 1024 l 257
 2249 1024 l 257
489 1024 m 257
 135 286 l 257
 195 286 l 257
 549 1024 l 257
 489 1024 l 257
204 339 m 257
 195 285 l 257
 2031 408 l 257
 2041 462 l 257
 204 339 l 257
EndSplineSet
EndChar

StartChar: chi
Encoding: 341 967 341
GlifName: chi
Width: 2048
VWidth: 0
GlyphClass: 2
Flags: W
LayerCount: 2
Fore
SplineSet
440 -245 m 257
 500 -245 l 257
 2121 1023 l 257
 2064 1023 l 257
 440 -245 l 257
944 1023 m 257
 1648 -247 l 257
 1706 -245 l 257
 1004 1023 l 257
 944 1023 l 257
563 1023 m 257
 489 963 l 257
 929 963 l 257
 1003 1023 l 257
 563 1023 l 257
1735 -185 m 257
 1661 -245 l 257
 2039 -245 l 257
 2113 -185 l 257
 1735 -185 l 257
EndSplineSet
EndChar

StartChar: circumflex
Encoding: 343 710 343
GlifName: circumflex
Width: 2048
VWidth: 0
GlyphClass: 2
Flags: W
LayerCount: 2
Fore
SplineSet
1863 2308 m 257
 1827 2308 l 257
 1582 1998 l 257
 1603 1981 l 257
 1863 2308 l 257
1831 2310 m 257
 1871 1976 l 257
 1919 1994 l 257
 1868 2310 l 257
 1831 2310 l 257
EndSplineSet
EndChar

StartChar: colon
Encoding: 353 58 353
GlifName: colon
Width: 2048
VWidth: 0
GlyphClass: 2
Flags: W
LayerCount: 2
Fore
SplineSet
1016 164 m 257
 959 7 l 257
 1095 7 l 257
 1152 164 l 257
 1016 164 l 257
1157 553 m 257
 1100 396 l 257
 1236 396 l 257
 1293 553 l 257
 1157 553 l 257
EndSplineSet
EndChar

StartChar: colonmonetary
Encoding: 355 8353 355
GlifName: colonmonetary
Width: 2048
VWidth: 0
GlyphClass: 2
Flags: W
LayerCount: 2
Fore
SplineSet
2024 1650 m 257
 823 42 l 257
 842 -31 l 257
 2077 1636 l 257
 2024 1650 l 257
1711 1642 m 257
 603 165 l 257
 650 140 l 257
 1758 1617 l 257
 1711 1642 l 257
1196 1573 m 257
 636 36 l 257
 694 36 l 257
 1254 1573 l 257
 1196 1573 l 257
1250 1573 m 257
 1225 1508 l 257
 2053 1508 l 257
 2078 1573 l 257
 1250 1573 l 257
697 92 m 257
 677 36 l 257
 1516 36 l 257
 1536 92 l 257
 697 92 l 257
EndSplineSet
EndChar

StartChar: comma
Encoding: 356 44 356
GlifName: comma
Width: 2048
VWidth: 0
GlyphClass: 2
Flags: W
LayerCount: 2
Fore
SplineSet
1016 165 m 257
 959 8 l 257
 1095 8 l 257
 1152 165 l 257
 1016 165 l 257
1089 135 m 257
 962 -99 l 257
 994 -148 l 257
 1099 26 l 257
 1089 135 l 257
EndSplineSet
EndChar

StartChar: uni0315
Encoding: 358 789 358
GlifName: commaaboverightcomb
Width: 0
VWidth: 0
GlyphClass: 4
Flags: W
AnchorPoint: "top" -283 1018 mark 0
LayerCount: 2
Fore
SplineSet
-15 1161 m 257
 -72 1004 l 257
 64 1004 l 257
 121 1161 l 257
 -15 1161 l 257
58 1131 m 257
 -69 897 l 257
 -37 848 l 257
 68 1022 l 257
 58 1131 l 257
EndSplineSet
EndChar

StartChar: uni0314
Encoding: 359 788 359
GlifName: commareversedabovecomb
Width: 0
VWidth: 0
GlyphClass: 4
Flags: W
AnchorPoint: "top" -165.471 949 mark 0
LayerCount: 2
Fore
SplineSet
221.319 1404 m 257
 85.3191 1404 l 257
 10.5805 1247 l 257
 146.58 1247 l 257
 221.319 1404 l 257
123.146 1374 m 257
 21.6842 1265 l 257
 -19.3191 1091 l 257
 53.7968 1140 l 257
 123.146 1374 l 257
EndSplineSet
EndChar

StartChar: copyright
Encoding: 361 169 361
GlifName: copyright
Width: 2048
VWidth: 0
GlyphClass: 2
Flags: W
LayerCount: 2
Fore
SplineSet
1085 1540 m 257
 524 0 l 257
 584 0 l 257
 1145 1540 l 257
 1085 1540 l 257
2023 1537 m 257
 1464 0 l 257
 1524 0 l 257
 2083 1537 l 257
 2023 1537 l 257
1136 1538 m 257
 1113 1476 l 257
 2057 1476 l 257
 2080 1538 l 257
 1136 1538 l 257
558 60 m 257
 536 0 l 257
 1506 0 l 257
 1528 60 l 257
 558 60 l 257
1206 1197 m 257
 1183 1135 l 257
 1617 1135 l 257
 1640 1197 l 257
 1206 1197 l 257
1190 1154 m 257
 894 340 l 257
 954 340 l 257
 1250 1154 l 257
 1190 1154 l 257
900 356 m 257
 877 294 l 257
 1317 294 l 257
 1340 356 l 257
 900 356 l 257
EndSplineSet
EndChar

StartChar: currency
Encoding: 362 164 362
GlifName: currency
Width: 2048
VWidth: 0
GlyphClass: 2
Flags: W
LayerCount: 2
Fore
SplineSet
1040 1182 m 257
 668 160 l 257
 728 160 l 257
 1100 1182 l 257
 1040 1182 l 257
1799 1184 m 257
 1426 160 l 257
 1486 160 l 257
 1859 1184 l 257
 1799 1184 l 257
1104 1187 m 257
 1082 1127 l 257
 1782 1127 l 257
 1804 1187 l 257
 1104 1187 l 257
737 222 m 257
 714 160 l 257
 1434 160 l 257
 1457 222 l 257
 737 222 l 257
991 1251 m 257
 950 1137 l 257
 1094 1137 l 257
 1135 1251 l 257
 991 1251 l 257
1824 1241 m 257
 1782 1127 l 257
 1924 1127 l 257
 1966 1241 l 257
 1824 1241 l 257
611 223 m 257
 570 109 l 257
 714 109 l 257
 755 223 l 257
 611 223 l 257
1454 220 m 257
 1413 106 l 257
 1557 106 l 257
 1598 220 l 257
 1454 220 l 257
EndSplineSet
EndChar

StartChar: d
Encoding: 363 100 363
GlifName: d
Width: 2048
VWidth: 0
GlyphClass: 2
Flags: W
AnchorPoint: "base" 956 -167 basechar 0
AnchorPoint: "top" 2468 1635 basechar 0
LayerCount: 2
Fore
SplineSet
2368 1550 m 257
 1804 0 l 257
 1864 0 l 257
 2428 1550 l 257
 2368 1550 l 257
601 1026 m 257
 580 966 l 257
 2190 966 l 257
 2211 1026 l 257
 601 1026 l 257
556 1023 m 257
 184 0 l 257
 244 0 l 257
 616 1023 l 257
 556 1023 l 257
245 59 m 257
 223 -4 l 257
 1815 -4 l 257
 1837 59 l 257
 245 59 l 257
EndSplineSet
EndChar

StartChar: dagger
Encoding: 364 8224 364
GlifName: dagger
Width: 2048
VWidth: 0
GlyphClass: 2
Flags: W
LayerCount: 2
Fore
SplineSet
664 1251 m 257
 646 1200 l 257
 1252 1200 l 257
 1270 1251 l 257
 664 1251 l 257
1045 1550 m 257
 481 0 l 257
 547 0 l 257
 1111 1550 l 257
 1045 1550 l 257
EndSplineSet
EndChar

StartChar: daggerdbl
Encoding: 365 8225 365
GlifName: daggerdbl
Width: 2048
VWidth: 0
GlyphClass: 2
Flags: W
LayerCount: 2
Fore
SplineSet
509 823 m 257
 490 772 l 257
 1096 772 l 257
 1115 823 l 257
 509 823 l 257
664 1251 m 257
 646 1200 l 257
 1252 1200 l 257
 1270 1251 l 257
 664 1251 l 257
1054 1550 m 257
 490 0 l 257
 552 0 l 257
 1116 1550 l 257
 1054 1550 l 257
EndSplineSet
EndChar

StartChar: dcaron
Encoding: 368 271 368
GlifName: dcaron
Width: 2048
VWidth: 0
GlyphClass: 2
Flags: W
AnchorPoint: "base" 1016 -97 basechar 0
LayerCount: 2
Fore
SplineSet
2326 1527 m 257
 1770 0 l 257
 1830 0 l 257
 2386 1527 l 257
 2326 1527 l 257
486 1023 m 257
 464 962 l 257
 2140 962 l 257
 2162 1023 l 257
 486 1023 l 257
442 1023 m 257
 70 0 l 257
 128 0 l 257
 500 1023 l 257
 442 1023 l 257
108 60 m 257
 86 0 l 257
 1782 0 l 257
 1804 60 l 257
 108 60 l 257
2472 1496 m 257
 2388 1264 l 257
 2438 1264 l 257
 2522 1496 l 257
 2472 1496 l 257
EndSplineSet
EndChar

StartChar: dcroat
Encoding: 370 273 370
GlifName: dcroat
Width: 2048
VWidth: 0
GlyphClass: 2
Flags: W
AnchorPoint: "top" 2405 1627 basechar 0
AnchorPoint: "base" 1005 -102 basechar 0
LayerCount: 2
Fore
SplineSet
2348 1527 m 257
 1792 0 l 257
 1852 0 l 257
 2408 1527 l 257
 2348 1527 l 257
494 1023 m 257
 472 962 l 257
 2164 962 l 257
 2186 1023 l 257
 494 1023 l 257
462 1023 m 257
 90 0 l 257
 150 0 l 257
 522 1023 l 257
 462 1023 l 257
160 61 m 257
 138 0 l 257
 1804 0 l 257
 1826 61 l 257
 160 61 l 257
2109 1260 m 257
 2087 1202 l 257
 2395 1202 l 257
 2417 1260 l 257
 2109 1260 l 257
EndSplineSet
EndChar

StartChar: uni0221
Encoding: 371 545 371
GlifName: dcurl
Width: 2048
VWidth: 0
GlyphClass: 2
Flags: W
AnchorPoint: "base" 956 -167 basechar 0
AnchorPoint: "top" 2468 1635 basechar 0
LayerCount: 2
Fore
SplineSet
2037 1537 m 257
 1473 -13 l 257
 1533 -13 l 257
 2097 1537 l 257
 2037 1537 l 257
473 1026 m 257
 454 966 l 257
 1885 966 l 257
 1903 1026 l 257
 473 1026 l 257
430 1023 m 257
 58 0 l 257
 118 0 l 257
 490 1023 l 257
 430 1023 l 257
122 59 m 257
 97 -4 l 257
 1928 -4 l 257
 1953 59 l 257
 122 59 l 257
659 -189 m 257
 634 -252 l 257
 1832 313 l 257
 1857 376 l 257
 659 -189 l 257
1294 507 m 257
 922 6 l 257
 896 10 l 257
 1268 511 l 257
 1294 507 l 257
EndSplineSet
EndChar

StartChar: uni0434
Encoding: 372 1076 372
GlifName: de-cy
Width: 2048
VWidth: 0
Flags: W
LayerCount: 2
Fore
SplineSet
92 203 m 257
 66 143 l 257
 2064 143 l 257
 2090 203 l 257
 92 203 l 257
76 159 m 257
 -127 -405 l 257
 -67 -405 l 257
 136 159 l 257
 76 159 l 257
2014 159 m 257
 1806 -412 l 257
 1866 -412 l 257
 2074 159 l 257
 2014 159 l 257
2135 996 m 257
 1660 162 l 257
 1720 162 l 257
 2195 996 l 257
 2135 996 l 257
1244 1018 m 257
 1171 958 l 257
 2159 958 l 257
 2232 1018 l 257
 1244 1018 l 257
1224 1019 m 257
 302 185 l 257
 362 185 l 257
 1284 1019 l 257
 1224 1019 l 257
EndSplineSet
EndChar

StartChar: degree
Encoding: 373 176 373
GlifName: degree
Width: 2048
VWidth: 0
GlyphClass: 2
Flags: W
LayerCount: 2
Fore
SplineSet
1427 1439 m 257
 1677 1439 l 257
 1601 1231 l 257
 1351 1231 l 257
 1427 1439 l 257
1386 1488 m 257
 1273 1179 l 257
 1633 1179 l 257
 1746 1488 l 257
 1386 1488 l 257
EndSplineSet
EndChar

StartChar: delta
Encoding: 374 948 374
GlifName: delta
Width: 2048
VWidth: 0
GlyphClass: 2
Flags: W
LayerCount: 2
Fore
SplineSet
1316 1550 m 257
 1856 0 l 257
 1904 0 l 257
 1372 1550 l 257
 1316 1550 l 257
556 1023 m 257
 535 964 l 257
 1527 964 l 257
 1548 1023 l 257
 556 1023 l 257
516 1023 m 257
 144 0 l 257
 204 0 l 257
 576 1023 l 257
 516 1023 l 257
211 59 m 257
 190 0 l 257
 1856 0 l 257
 1877 59 l 257
 211 59 l 257
1367 1549 m 257
 1344 1481 l 257
 1688 1481 l 257
 1711 1549 l 257
 1367 1549 l 257
EndSplineSet
EndChar

StartChar: divide
Encoding: 379 247 379
GlifName: divide
Width: 2048
VWidth: 0
GlyphClass: 2
Flags: W
LayerCount: 2
Fore
SplineSet
1132 280 m 257
 1097 185 l 257
 1249 185 l 257
 1284 280 l 257
 1132 280 l 257
1431 1127 m 257
 1396 1031 l 257
 1533 1031 l 257
 1568 1127 l 257
 1431 1127 l 257
352 662 m 257
 329 600 l 257
 2155 600 l 257
 2178 662 l 257
 352 662 l 257
EndSplineSet
EndChar

StartChar: uni2215
Encoding: 380 8725 380
GlifName: divisionslash
Width: 2048
VWidth: 0
GlyphClass: 2
Flags: W
LayerCount: 2
Fore
SplineSet
1805 1480 m 257
 683 10 l 257
 786 10 l 257
 1908 1480 l 257
 1805 1480 l 257
EndSplineSet
EndChar

StartChar: uni0452
Encoding: 381 1106 381
GlifName: dje-cy
Width: 2048
VWidth: 0
Flags: W
LayerCount: 2
Fore
SplineSet
586 1369 m 257
 560 1309 l 257
 2116 1309 l 257
 2142 1369 l 257
 586 1369 l 257
1351 1544 m 257
 789 -1 l 257
 849 -1 l 257
 1411 1544 l 257
 1351 1544 l 257
1164 994 m 257
 1134 934 l 257
 2259 934 l 257
 2289 994 l 257
 1164 994 l 257
2227 989 m 257
 1701 -406 l 257
 1761 -406 l 257
 2287 989 l 257
 2227 989 l 257
1190 -383 m 257
 1170 -443 l 257
 1749 -443 l 257
 1769 -383 l 257
 1190 -383 l 257
EndSplineSet
EndChar

StartChar: dollar
Encoding: 383 36 383
GlifName: dollar
Width: 2048
VWidth: 0
GlyphClass: 2
Flags: W
LayerCount: 2
Fore
SplineSet
1198 1539 m 257
 1168 1457 l 257
 1766 1457 l 257
 1796 1539 l 257
 1198 1539 l 257
1199 1542 m 257
 1012 1028 l 257
 1096 1028 l 257
 1283 1542 l 257
 1199 1542 l 257
691 69 m 257
 666 0 l 257
 1374 0 l 257
 1399 69 l 257
 691 69 l 257
1330 0 m 257
 1410 0 l 257
 1539 355 l 257
 1459 355 l 257
 1330 0 l 257
1012 1028 m 257
 1458 355 l 257
 1539 355 l 257
 1096 1028 l 257
 1012 1028 l 257
1528 1636 m 257
 855 -215 l 257
 925 -215 l 257
 1598 1636 l 257
 1528 1636 l 257
EndSplineSet
EndChar

StartChar: dong
Encoding: 384 8363 384
GlifName: dong
Width: 2048
VWidth: 0
GlyphClass: 2
Flags: W
LayerCount: 2
Fore
SplineSet
693 18 m 257
 666 -56 l 257
 1283 -56 l 257
 1310 18 l 257
 693 18 l 257
1833 1527 m 257
 1313 98 l 257
 1387 98 l 257
 1907 1527 l 257
 1833 1527 l 257
1029 1023 m 257
 1002 949 l 257
 1686 949 l 257
 1713 1023 l 257
 1029 1023 l 257
963 1023 m 257
 626 98 l 257
 699 98 l 257
 1036 1023 l 257
 963 1023 l 257
720 174 m 257
 692 98 l 257
 1339 98 l 257
 1367 174 l 257
 720 174 l 257
1673 1403 m 257
 1644 1324 l 257
 1939 1324 l 257
 1968 1403 l 257
 1673 1403 l 257
EndSplineSet
EndChar

StartChar: dotaccent
Encoding: 385 729 385
GlifName: dotaccent
Width: 2048
VWidth: 0
GlyphClass: 2
Flags: W
LayerCount: 2
Fore
SplineSet
1360 1078 m 257
 1324 977 l 257
 1436 977 l 257
 1472 1078 l 257
 1360 1078 l 257
EndSplineSet
EndChar

StartChar: dotbelowcomb
Encoding: 386 803 386
GlifName: dotbelowcomb
Width: 0
VWidth: 0
GlyphClass: 4
Flags: W
HStem: -365 75
AnchorPoint: "base" -98 -263 mark 0
LayerCount: 2
Fore
SplineSet
-159 -271 m 257
 -200 -384 l 257
 -80 -384 l 257
 -39 -271 l 257
 -159 -271 l 257
EndSplineSet
PickledDataWithLists: "(dp0
Vcom.fontlab.hintData
p1
(dp2
Vhhints
p3
(lp4
(dp5
Vposition
p6
I-365
sVwidth
p7
I75
sass."
EndChar

StartChar: dotlessi
Encoding: 387 305 387
GlifName: dotlessi
Width: 2048
VWidth: 0
GlyphClass: 2
Flags: W
AnchorPoint: "top" 1460 1172 basechar 0
AnchorPoint: "base" 1060 -152 basechar 0
LayerCount: 2
Fore
SplineSet
1394 1023 m 257
 1041 52 l 257
 1101 52 l 257
 1454 1023 l 257
 1394 1023 l 257
163 60 m 257
 141 0 l 257
 1907 0 l 257
 1929 60 l 257
 163 60 l 257
563 1023 m 257
 541 962 l 257
 1389 962 l 257
 1411 1023 l 257
 563 1023 l 257
EndSplineSet
EndChar

StartChar: uni035F
Encoding: 389 863 389
GlifName: doublemacronbelowcomb
Width: 0
VWidth: 0
GlyphClass: 4
Flags: W
AnchorPoint: "base" -70 -201 mark 0
LayerCount: 2
Fore
SplineSet
-524 -204 m 257
 -540 -248 l 257
 352 -248 l 257
 368 -204 l 257
 -524 -204 l 257
EndSplineSet
EndChar

StartChar: arrowdown
Encoding: 390 8595 390
GlifName: downA_rrow
Width: 2048
VWidth: 0
GlyphClass: 2
Flags: W
LayerCount: 2
Fore
SplineSet
1126 -86 m 257
 1186 -163 l 257
 1186 1630 l 257
 1126 1707 l 257
 1126 -86 l 257
825 411 m 257
 1157 -190 l 257
 1157 -115 l 257
 825 486 l 257
 825 411 l 257
1157 -190 m 257
 1490 188 l 257
 1490 263 l 257
 1157 -114 l 257
 1157 -190 l 257
EndSplineSet
EndChar

StartChar: uni25BE
Encoding: 391 9662 391
GlifName: downB_lackS_mallT_riangle
Width: 2048
VWidth: 0
GlyphClass: 2
Flags: W
LayerCount: 2
Fore
SplineSet
1030 475 m 257
 1279 889 l 257
 785 891 l 257
 1030 475 l 257
EndSplineSet
EndChar

StartChar: triagdn
Encoding: 392 9660 392
GlifName: downB_lackT_riangle
Width: 2048
VWidth: 0
GlyphClass: 2
Flags: W
LayerCount: 2
Fore
SplineSet
1028 332 m 257
 1444 1021 l 257
 620 1024 l 257
 1028 332 l 257
EndSplineSet
EndChar

StartChar: uni25BF
Encoding: 393 9663 393
GlifName: downW_hiteS_mallT_riangle
Width: 2048
VWidth: 0
GlyphClass: 2
Flags: W
LayerCount: 2
Fore
SplineSet
1015 414 m 257
 1264 828 l 257
 770 830 l 257
 1015 414 l 257
1021 469 m 257
 824 801 l 257
 1220 800 l 257
 1021 469 l 257
EndSplineSet
EndChar

StartChar: uni25BD
Encoding: 394 9661 394
GlifName: downW_hiteT_riangle
Width: 2048
VWidth: 0
GlyphClass: 2
Flags: W
LayerCount: 2
Fore
SplineSet
1024 379 m 257
 1411 1027 l 257
 640 1029 l 257
 1024 379 l 257
1024 445 m 257
 714 989 l 257
 1330 990 l 257
 1024 445 l 257
EndSplineSet
EndChar

StartChar: uni045F
Encoding: 397 1119 397
GlifName: dzhe-cy
Width: 2048
VWidth: 0
Flags: W
LayerCount: 2
Fore
SplineSet
589 942 m 257
 62 18 l 257
 122 18 l 257
 649 942 l 257
 589 942 l 257
2454 946 m 257
 1920 3 l 257
 1980 3 l 257
 2514 946 l 257
 2454 946 l 257
128 60 m 257
 55 0 l 257
 1979 0 l 257
 2052 60 l 257
 128 60 l 257
1016 25 m 257
 840 -405 l 257
 900 -405 l 257
 1076 25 l 257
 1016 25 l 257
EndSplineSet
EndChar

StartChar: e
Encoding: 398 101 398
GlifName: e
Width: 2048
VWidth: 0
GlyphClass: 2
Flags: W
AnchorPoint: "top" 1447 1188 basechar 0
AnchorPoint: "base" 976 -151 basechar 0
LayerCount: 2
Fore
SplineSet
590 1023 m 257
 570 968 l 257
 2232 968 l 257
 2252 1023 l 257
 590 1023 l 257
538 1023 m 257
 166 0 l 257
 224 0 l 257
 596 1023 l 257
 538 1023 l 257
230 61 m 257
 208 0 l 257
 1876 0 l 257
 1898 61 l 257
 230 61 l 257
370 506 m 257
 356 446 l 257
 2010 446 l 257
 2032 506 l 257
 370 506 l 257
2183 993 m 257
 1984 445 l 257
 2044 445 l 257
 2243 993 l 257
 2183 993 l 257
EndSplineSet
EndChar

StartChar: uni0454
Encoding: 399 1108 399
GlifName: e-cy
Width: 2048
VWidth: 0
Flags: W
LayerCount: 2
Fore
SplineSet
1392 1026 m 257
 1349 966 l 257
 2352 966 l 257
 2395 1026 l 257
 1392 1026 l 257
414 536 m 257
 341 476 l 257
 2150 476 l 257
 2223 536 l 257
 414 536 l 257
976 67 m 257
 931 9 l 257
 1957 9 l 257
 2002 67 l 257
 976 67 l 257
1392 1025 m 257
 333 514 l 257
 436 514 l 257
 1495 1025 l 257
 1392 1025 l 257
335 514 m 257
 931 8 l 257
 1036 8 l 257
 440 514 l 257
 335 514 l 257
EndSplineSet
EndChar

StartChar: uni0444
Encoding: 409 1092 409
GlifName: ef-cy
Width: 2048
VWidth: 0
Flags: W
LayerCount: 2
Fore
SplineSet
1464 1541 m 257
 908 -430 l 257
 968 -430 l 257
 1524 1541 l 257
 1464 1541 l 257
449 968 m 257
 147 45 l 257
 208 45 l 257
 510 968 l 257
 449 968 l 257
2213 968 m 257
 1911 45 l 257
 1971 45 l 257
 2273 968 l 257
 2213 968 l 257
485 968 m 257
 463 908 l 257
 2223 908 l 257
 2245 968 l 257
 485 968 l 257
209 105 m 257
 187 45 l 257
 1931 45 l 257
 1953 105 l 257
 209 105 l 257
EndSplineSet
EndChar

StartChar: eight
Encoding: 411 56 411
GlifName: eight
Width: 2048
VWidth: 0
GlyphClass: 2
Flags: W
LayerCount: 2
Fore
SplineSet
620 1550 m 257
 56 0 l 257
 1992 -3 l 257
 2557 1550 l 257
 620 1550 l 257
2258 899 m 257
 1952 57 l 257
 140 57 l 257
 446 899 l 257
 2258 899 l 257
2281 959 m 257
 467 959 l 257
 660 1489 l 257
 2474 1489 l 257
 2281 959 l 257
EndSplineSet
Substitution2: "supsSuperscriptinLatinlookup16 subtable" uni2078
EndChar

StartChar: uni043B
Encoding: 412 1083 412
GlifName: el-cy
Width: 2048
VWidth: 0
Flags: W
LayerCount: 2
Fore
SplineSet
2526 1021 m 257
 1963 14 l 257
 2023 14 l 257
 2586 1021 l 257
 2526 1021 l 257
1218 1021 m 257
 1190 961 l 257
 2546 961 l 257
 2574 1021 l 257
 1218 1021 l 257
1217 1021 m 257
 344 0 l 257
 404 0 l 257
 1277 1021 l 257
 1217 1021 l 257
48 61 m 257
 20 1 l 257
 404 1 l 257
 432 61 l 257
 48 61 l 257
EndSplineSet
EndChar

StartChar: ellipsis
Encoding: 413 8230 413
GlifName: ellipsis
Width: 2048
VWidth: 0
GlyphClass: 2
Flags: W
LayerCount: 2
Fore
SplineSet
442 114 m 257
 401 0 l 257
 543 0 l 257
 584 114 l 257
 442 114 l 257
989 114 m 257
 948 0 l 257
 1092 0 l 257
 1133 114 l 257
 989 114 l 257
1538 114 m 257
 1497 0 l 257
 1639 0 l 257
 1680 114 l 257
 1538 114 l 257
EndSplineSet
EndChar

StartChar: uni043C
Encoding: 414 1084 414
GlifName: em-cy
Width: 2048
VWidth: 0
Flags: W
AnchorPoint: "base" 1040 -60 basechar 0
AnchorPoint: "top" 1588 1738 basechar 0
LayerCount: 2
Fore
SplineSet
493 1014 m 257
 100 0 l 257
 160 0 l 257
 553 1014 l 257
 493 1014 l 257
2279 1025 m 257
 1885 -3 l 257
 1947 -3 l 257
 2341 1025 l 257
 2279 1025 l 257
493 1014 m 257
 1214 298 l 257
 1284 298 l 257
 553 1014 l 257
 493 1014 l 257
2279 1025 m 257
 1216 298 l 257
 1284 298 l 257
 2341 1014 l 257
 2279 1025 l 257
EndSplineSet
EndChar

StartChar: emdash
Encoding: 416 8212 416
GlifName: emdash
Width: 2048
VWidth: 0
GlyphClass: 2
Flags: W
LayerCount: 2
Fore
SplineSet
218 600 m 257
 2232 600 l 257
 2264 688 l 257
 250 688 l 257
 218 600 l 257
EndSplineSet
EndChar

StartChar: uni043D
Encoding: 419 1085 419
GlifName: en-cy
Width: 2048
VWidth: 0
Flags: W
AnchorPoint: "top" 1520 1646 basechar 0
AnchorPoint: "base" 1000 -58 basechar 0
LayerCount: 2
Fore
SplineSet
527 1035 m 257
 114 0 l 257
 173 0 l 257
 586 1035 l 257
 527 1035 l 257
2286 1035 m 257
 1873 0 l 257
 1934 0 l 257
 2347 1035 l 257
 2286 1035 l 257
359 546 m 257
 337 487 l 257
 2078 487 l 257
 2100 546 l 257
 359 546 l 257
EndSplineSet
EndChar

StartChar: endash
Encoding: 420 8211 420
GlifName: endash
Width: 2048
VWidth: 0
GlyphClass: 2
Flags: W
LayerCount: 2
Fore
SplineSet
829 600 m 257
 1655 600 l 257
 1684 678 l 257
 858 678 l 257
 829 600 l 257
EndSplineSet
EndChar

StartChar: eng
Encoding: 421 331 421
GlifName: eng
Width: 2048
VWidth: 0
GlyphClass: 2
Flags: W
AnchorPoint: "top" 1412 1160 basechar 0
AnchorPoint: "base" 916 -400 basechar 0
LayerCount: 2
Fore
SplineSet
1367 -348 m 257
 1332 -408 l 257
 1718 -408 l 257
 1740 -348 l 257
 1367 -348 l 257
604 990 m 257
 244 0 l 257
 308 0 l 257
 668 990 l 257
 604 990 l 257
2159 976 m 257
 1656 -408 l 257
 1720 -408 l 257
 2223 976 l 257
 2159 976 l 257
437 1023 m 257
 417 963 l 257
 2219 963 l 257
 2239 1023 l 257
 437 1023 l 257
EndSplineSet
EndChar

StartChar: uni025B
Encoding: 423 603 423
GlifName: eopen
Width: 2048
VWidth: 0
GlyphClass: 2
Flags: W
AnchorPoint: "top" 1447 1210 basechar 0
AnchorPoint: "base" 976 -151 basechar 0
LayerCount: 2
Fore
SplineSet
518 1140 m 257
 417 599 l 257
 477 598 l 257
 578 1139 l 257
 518 1140 l 257
561 1139 m 257
 539 1079 l 257
 2317 1079 l 257
 2339 1139 l 257
 561 1139 l 257
180 60 m 257
 158 0 l 257
 1940 0 l 257
 1962 60 l 257
 180 60 l 257
477 600 m 257
 456 540 l 257
 1378 540 l 257
 1399 600 l 257
 477 600 l 257
398 543 m 257
 103 0 l 257
 164 0 l 257
 457 542 l 257
 398 543 l 257
EndSplineSet
EndChar

StartChar: epsilon
Encoding: 424 949 424
GlifName: epsilon
Width: 2048
VWidth: 0
GlyphClass: 2
Flags: W
LayerCount: 2
Fore
SplineSet
518 1140 m 257
 320 599 l 257
 380 598 l 257
 578 1139 l 257
 518 1140 l 257
561 1139 m 257
 539 1079 l 257
 2317 1079 l 257
 2339 1139 l 257
 561 1139 l 257
180 60 m 257
 158 0 l 257
 1940 0 l 257
 1962 60 l 257
 180 60 l 257
380 600 m 257
 359 540 l 257
 1378 540 l 257
 1399 600 l 257
 380 600 l 257
301 543 m 257
 103 0 l 257
 164 0 l 257
 360 542 l 257
 301 543 l 257
EndSplineSet
EndChar

StartChar: equal
Encoding: 426 61 426
GlifName: equal
Width: 2048
VWidth: 0
GlyphClass: 2
Flags: W
LayerCount: 2
Fore
SplineSet
916 824 m 257
 880 724 l 257
 1696 724 l 257
 1732 824 l 257
 916 824 l 257
813 540 m 257
 780 450 l 257
 1596 450 l 257
 1629 540 l 257
 813 540 l 257
EndSplineSet
EndChar

StartChar: uni044D
Encoding: 427 1101 427
GlifName: ereversed-cy
Width: 2048
VWidth: 0
Flags: W
LayerCount: 2
Fore
SplineSet
1482 1032 m 257
 479 1032 l 257
 442 972 l 257
 1445 972 l 257
 1482 1032 l 257
2099 569 m 257
 310 570 l 257
 278 510 l 257
 2054 509 l 257
 2099 569 l 257
1092 69 m 257
 66 69 l 257
 21 9 l 257
 1047 9 l 257
 1092 69 l 257
1481 1031 m 257
 1378 1031 l 257
 2030 548 l 257
 2133 548 l 257
 1481 1031 l 257
2131 548 m 257
 2026 548 l 257
 941 8 l 257
 1046 8 l 257
 2131 548 l 257
EndSplineSet
EndChar

StartChar: uni0283
Encoding: 428 643 428
GlifName: esh
Width: 2048
VWidth: 0
GlyphClass: 2
Flags: W
LayerCount: 2
Fore
SplineSet
1046 1641 m 257
 823 -390 l 257
 890 -390 l 257
 1113 1641 l 257
 1046 1641 l 257
351 -339 m 257
 351 -390 l 257
 890 -390 l 257
 890 -339 l 257
 351 -339 l 257
1101 1641 m 257
 1101 1575 l 257
 1778 1572 l 257
 1778 1638 l 257
 1101 1641 l 257
EndSplineSet
EndChar

StartChar: uni0285
Encoding: 429 645 429
GlifName: eshsquatreversed
Width: 2048
VWidth: 0
GlyphClass: 2
Flags: W
LayerCount: 2
Fore
SplineSet
837 1001 m 257
 1005 -399 l 257
 1072 -399 l 257
 904 1001 l 257
 837 1001 l 257
1004 -348 m 257
 1004 -399 l 257
 1725 -399 l 257
 1725 -348 l 257
 1004 -348 l 257
213 1004 m 257
 213 938 l 257
 873 935 l 257
 873 1001 l 257
 213 1004 l 257
EndSplineSet
EndChar

StartChar: estimated
Encoding: 430 8494 430
GlifName: estimated
Width: 2048
VWidth: 0
GlyphClass: 2
Flags: W
LayerCount: 2
Fore
SplineSet
683 798 m 257
 683 718 l 257
 1429 719 l 257
 1429 799 l 257
 683 798 l 257
1238 1098 m 257
 1244 727 l 257
 1428 727 l 257
 1422 1098 l 257
 1238 1098 l 257
679 1103 m 257
 680 731 l 257
 859 731 l 257
 858 1103 l 257
 679 1103 l 257
680 1175 m 257
 680 1081 l 257
 1025 1125 l 257
 1025 1219 l 257
 680 1175 l 257
1025 1221 m 257
 1024 1123 l 257
 1422 1081 l 257
 1423 1179 l 257
 1025 1221 l 257
683 731 m 257
 683 287 l 257
 764 287 l 257
 764 731 l 257
 683 731 l 257
683 342 m 257
 683 248 l 257
 1025 183 l 257
 1025 277 l 257
 683 342 l 257
1024 277 m 257
 1024 183 l 257
 1423 247 l 257
 1423 341 l 257
 1024 277 l 257
EndSplineSet
EndChar

StartChar: eta
Encoding: 431 951 431
GlifName: eta
Width: 2048
VWidth: 0
GlyphClass: 2
Flags: W
LayerCount: 2
Fore
SplineSet
749 990 m 257
 388 0 l 257
 448 0 l 257
 809 990 l 257
 749 990 l 257
2051 976 m 257
 1547 -409 l 257
 1607 -409 l 257
 2111 976 l 257
 2051 976 l 257
326 1023 m 257
 304 963 l 257
 2106 963 l 257
 2128 1023 l 257
 326 1023 l 257
EndSplineSet
EndChar

StartChar: eth
Encoding: 433 240 433
GlifName: eth
Width: 2048
VWidth: 0
GlyphClass: 2
Flags: W
AnchorPoint: "top" 1348 1664 basechar 0
AnchorPoint: "base" 1084 -112 basechar 0
LayerCount: 2
Fore
SplineSet
1316 1550 m 257
 1856 0 l 257
 1904 0 l 257
 1372 1550 l 257
 1316 1550 l 257
556 1023 m 257
 535 964 l 257
 1527 964 l 257
 1548 1023 l 257
 556 1023 l 257
516 1023 m 257
 144 0 l 257
 204 0 l 257
 576 1023 l 257
 516 1023 l 257
211 59 m 257
 190 0 l 257
 1856 0 l 257
 1877 59 l 257
 211 59 l 257
1187 1416 m 257
 1164 1351 l 257
 1508 1351 l 257
 1531 1416 l 257
 1187 1416 l 257
EndSplineSet
EndChar

StartChar: exclam
Encoding: 436 33 436
GlifName: exclam
Width: 2048
VWidth: 0
GlyphClass: 2
Flags: W
LayerCount: 2
Fore
SplineSet
1018 76 m 257
 1085 76 l 257
 1120 174 l 257
 1053 174 l 257
 1018 76 l 257
1138 411 m 257
 1210 411 l 257
 1580 1429 l 257
 1508 1429 l 257
 1138 411 l 257
EndSplineSet
EndChar

StartChar: exclamdown
Encoding: 437 161 437
GlifName: exclamdown
Width: 2048
VWidth: 0
GlyphClass: 2
Flags: W
LayerCount: 2
Fore
SplineSet
1607 1520 m 257
 1547 1520 l 257
 1457 1272 l 257
 1517 1272 l 257
 1607 1520 l 257
1427 1035 m 257
 1373 1035 l 257
 1002 17 l 257
 1060 17 l 257
 1427 1035 l 257
EndSplineSet
EndChar

StartChar: uni0292
Encoding: 438 658 438
GlifName: ezh
Width: 2048
VWidth: 0
GlyphClass: 2
Flags: W
LayerCount: 2
Fore
SplineSet
1830 0 m 257
 1902 60 l 257
 236 60 l 257
 164 0 l 257
 1830 0 l 257
1901 58 m 257
 2111 619 l 257
 2050 619 l 257
 1840 58 l 257
 1901 58 l 257
2026 559 m 257
 2099 619 l 257
 399 619 l 257
 326 559 l 257
 2026 559 l 257
585 1274 m 257
 513 1214 l 257
 2365 1214 l 257
 2437 1274 l 257
 585 1274 l 257
2202 1214 m 257
 399 619 l 257
 617 619 l 257
 2365 1214 l 257
 2202 1214 l 257
EndSplineSet
EndChar

StartChar: uni01B9
Encoding: 440 441 440
GlifName: ezhreversed
Width: 2048
VWidth: 0
GlyphClass: 2
Flags: W
LayerCount: 2
Fore
SplineSet
210 0 m 257
 1930 0 l 257
 2002 60 l 257
 282 60 l 257
 210 0 l 257
226 39 m 257
 287 39 l 257
 494 619 l 257
 433 619 l 257
 226 39 l 257
409 559 m 257
 2072 559 l 257
 2145 619 l 257
 482 619 l 257
 409 559 l 257
2437 1274 m 257
 585 1274 l 257
 513 1214 l 257
 2365 1214 l 257
 2437 1274 l 257
676 1214 m 257
 513 1214 l 257
 1927 619 l 257
 2150 619 l 257
 676 1214 l 257
EndSplineSet
EndChar

StartChar: f
Encoding: 441 102 441
GlifName: f
Width: 2048
VWidth: 0
GlyphClass: 2
Flags: W
AnchorPoint: "top" 1780 1649 basechar 0
AnchorPoint: "base" 772 -548 basechar 0
LayerCount: 2
Fore
SplineSet
1301 1423 m 257
 780 -10 l 257
 840 -10 l 257
 1361 1423 l 257
 1301 1423 l 257
1302 1423 m 257
 1281 1363 l 257
 2191 1363 l 257
 2212 1423 l 257
 1302 1423 l 257
375 862 m 257
 353 802 l 257
 1856 802 l 257
 1878 862 l 257
 375 862 l 257
EndSplineSet
EndChar

StartChar: five
Encoding: 445 53 445
GlifName: five
Width: 2048
VWidth: 0
GlyphClass: 2
Flags: W
LayerCount: 2
Fore
SplineSet
2268 899 m 257
 1962 58 l 257
 80 58 l 257
 59 0 l 257
 2001 0 l 257
 2350 959 l 257
 469 959 l 257
 663 1492 l 257
 2554 1492 l 257
 2575 1550 l 257
 624 1550 l 257
 387 899 l 257
 2268 899 l 257
EndSplineSet
Substitution2: "supsSuperscriptinLatinlookup16 subtable" uni2075
EndChar

StartChar: four
Encoding: 447 52 447
GlifName: four
Width: 2048
VWidth: 0
GlyphClass: 2
Flags: W
LayerCount: 2
Fore
SplineSet
368 761 m 257
 2173 761 l 257
 1899 7 l 257
 1956 7 l 257
 2517 1550 l 257
 2457 1550 l 257
 2192 821 l 257
 450 821 l 257
 715 1550 l 257
 655 1550 l 257
 368 761 l 257
EndSplineSet
Substitution2: "supsSuperscriptinLatinlookup16 subtable" uni2074
EndChar

StartChar: franc
Encoding: 448 8355 448
GlifName: franc
Width: 2048
VWidth: 0
GlyphClass: 2
Flags: W
LayerCount: 2
Fore
SplineSet
791 565 m 257
 779 531 l 257
 1113 531 l 257
 1125 565 l 257
 791 565 l 257
1290 1548 m 257
 726 0 l 257
 764 0 l 257
 1328 1548 l 257
 1290 1548 l 257
1324 1548 m 257
 1307 1501 l 257
 2009 1501 l 257
 2026 1548 l 257
 1324 1548 l 257
1043 828 m 257
 1029 791 l 257
 1653 791 l 257
 1667 828 l 257
 1043 828 l 257
EndSplineSet
EndChar

StartChar: g
Encoding: 449 103 449
GlifName: g
Width: 2048
VWidth: 0
GlyphClass: 2
Flags: W
AnchorPoint: "top" 1385 1103 basechar 0
AnchorPoint: "base" 996 -467 basechar 0
LayerCount: 2
Fore
SplineSet
595 1023 m 257
 223 0 l 257
 283 0 l 257
 655 1023 l 257
 595 1023 l 257
635 1023 m 257
 613 962 l 257
 2153 962 l 257
 2175 1023 l 257
 635 1023 l 257
2137 1023 m 257
 1615 -411 l 257
 1675 -411 l 257
 2197 1023 l 257
 2137 1023 l 257
307 58 m 257
 286 0 l 257
 1767 0 l 257
 1788 58 l 257
 307 58 l 257
134 -354 m 257
 113 -413 l 257
 1626 -413 l 257
 1647 -354 l 257
 134 -354 l 257
EndSplineSet
EndChar

StartChar: gamma
Encoding: 450 947 450
GlifName: gamma
Width: 2048
VWidth: 0
GlyphClass: 2
Flags: W
LayerCount: 2
Fore
SplineSet
964 235 m 257
 734 -398 l 257
 794 -398 l 257
 1024 235 l 257
 964 235 l 257
489 1026 m 257
 950 197 l 257
 1010 197 l 257
 552 1026 l 257
 489 1026 l 257
2018 1026 m 257
 950 197 l 257
 1010 197 l 257
 2077 1026 l 257
 2018 1026 l 257
EndSplineSet
EndChar

StartChar: uni0263
Encoding: 451 611 451
GlifName: gamma_latin
Width: 2048
VWidth: 0
GlyphClass: 2
Flags: W
LayerCount: 2
Fore
SplineSet
880 935 m 257
 1538 -158 l 257
 1598 -158 l 257
 940 935 l 257
 880 935 l 257
2424 965 m 257
 804 -158 l 257
 864 -158 l 257
 2485 965 l 257
 2424 965 l 257
731 -217 m 257
 1525 -218 l 257
 1599 -158 l 257
 805 -158 l 257
 731 -217 l 257
EndSplineSet
EndChar

StartChar: uni0433
Encoding: 456 1075 456
GlifName: ge-cy
Width: 2048
VWidth: 0
Flags: W
LayerCount: 2
Fore
SplineSet
478 1021 m 257
 457 961 l 257
 2255 961 l 257
 2276 1021 l 257
 478 1021 l 257
472 992 m 257
 131.184 6 l 257
 191.184 6 l 257
 532 992 l 257
 472 992 l 257
EndSplineSet
EndChar

StartChar: germandbls
Encoding: 457 223 457
GlifName: germandbls
Width: 2048
VWidth: 0
GlyphClass: 2
Flags: W
LayerCount: 2
Fore
SplineSet
471 1084 m 257
 448 1023 l 257
 699 1023 l 257
 722 1084 l 257
 471 1084 l 257
825 1550 m 257
 261 0 l 257
 325 0 l 257
 889 1550 l 257
 825 1550 l 257
877 1550 m 257
 855 1488 l 257
 2486 1488 l 257
 2508 1550 l 257
 877 1550 l 257
2474 1550 m 257
 2282 1023 l 257
 2343 1023 l 257
 2535 1550 l 257
 2474 1550 l 257
2221 848 m 257
 1976 175 l 257
 2034 175 l 257
 2279 848 l 257
 2221 848 l 257
1441 187 m 257
 1421 131 l 257
 2020 131 l 257
 2040 187 l 257
 1441 187 l 257
1771 1081 m 257
 1750 1027 l 257
 2284 1023 l 257
 2306 1080 l 257
 1771 1081 l 257
1687 847 m 257
 1666 787 l 257
 2202 787 l 257
 2226 847 l 257
 1687 847 l 257
1719 1080 m 257
 1615 786 l 257
 1666 787 l 257
 1771 1081 l 257
 1719 1080 l 257
EndSplineSet
EndChar

StartChar: uni0491
Encoding: 458 1169 458
GlifName: geupturn-cy
Width: 2048
VWidth: 0
Flags: W
LayerCount: 2
Fore
SplineSet
688 1023 m 257
 667 963 l 257
 2465 963 l 257
 2486 1023 l 257
 688 1023 l 257
682 994 m 257
 131.184 6 l 257
 191.184 6 l 257
 742 994 l 257
 682 994 l 257
2693 1375 m 257
 2403 969 l 257
 2466 969 l 257
 2756 1375 l 257
 2693 1375 l 257
EndSplineSet
EndChar

StartChar: uni0294
Encoding: 461 660 461
GlifName: glottalstop
Width: 2048
VWidth: 0
GlyphClass: 2
Flags: W
LayerCount: 2
Fore
SplineSet
1157 1543 m 257
 1085 1483 l 257
 1613 1483 l 257
 1685 1543 l 257
 1157 1543 l 257
1625 1543 m 257
 1438 1028 l 257
 1498 1028 l 257
 1685 1543 l 257
 1625 1543 l 257
1054 1073 m 257
 1026 1013 l 257
 1486 1013 l 257
 1514 1073 l 257
 1054 1073 l 257
1041 1073 m 257
 736 167 l 257
 796 167 l 257
 1101 1073 l 257
 1041 1073 l 257
EndSplineSet
EndChar

StartChar: uni02C0
Encoding: 462 704 462
GlifName: glottalstopmod
Width: 2048
VWidth: 0
GlyphClass: 2
Flags: W
LayerCount: 2
Fore
SplineSet
1157 1543 m 257
 1085 1483 l 257
 1613 1483 l 257
 1685 1543 l 257
 1157 1543 l 257
1625 1543 m 257
 1438 1028 l 257
 1498 1028 l 257
 1685 1543 l 257
 1625 1543 l 257
1054 1073 m 257
 1038 1013 l 257
 1498 1013 l 257
 1514 1073 l 257
 1054 1073 l 257
1041 1073 m 257
 859 572 l 257
 919 572 l 257
 1101 1073 l 257
 1041 1073 l 257
EndSplineSet
EndChar

StartChar: uni0295
Encoding: 463 661 463
GlifName: glottalstopreversed
Width: 2048
VWidth: 0
GlyphClass: 2
Flags: W
LayerCount: 2
Fore
SplineSet
1833 1543 m 257
 1305 1543 l 257
 1276 1483 l 257
 1804 1483 l 257
 1833 1543 l 257
1365 1543 m 257
 1305 1543 l 257
 1117 1028 l 257
 1177 1028 l 257
 1365 1543 l 257
1594 1073 m 257
 1134 1073 l 257
 1111 1013 l 257
 1571 1013 l 257
 1594 1073 l 257
1607 1073 m 257
 1547 1073 l 257
 1217 167 l 257
 1277 167 l 257
 1607 1073 l 257
EndSplineSet
EndChar

StartChar: grave
Encoding: 465 96 465
GlifName: grave
Width: 2048
VWidth: 0
GlyphClass: 2
Flags: W
LayerCount: 2
Fore
SplineSet
1406 1286 m 257
 1533 1078 l 257
 1579 1103 l 257
 1444 1310 l 257
 1406 1286 l 257
EndSplineSet
EndChar

StartChar: gravecomb
Encoding: 466 768 466
GlifName: gravecomb
Width: 0
VWidth: 0
GlyphClass: 4
Flags: W
AnchorPoint: "top" 17 795 mark 0
LayerCount: 2
Fore
SplineSet
-63 1017 m 257
 -14 813 l 257
 66 867 l 257
 17 1072 l 257
 -63 1017 l 257
EndSplineSet
EndChar

StartChar: greater
Encoding: 468 62 468
GlifName: greater
Width: 2048
VWidth: 0
GlyphClass: 2
Flags: W
LayerCount: 2
Fore
SplineSet
1663 632 m 257
 986 1013 l 257
 964 952 l 257
 1640 569 l 257
 1663 632 l 257
1663 632 m 257
 683 186 l 257
 659 122 l 257
 1640 569 l 257
 1663 632 l 257
EndSplineSet
EndChar

StartChar: greaterequal
Encoding: 469 8805 469
GlifName: greaterequal
Width: 2048
VWidth: 0
GlyphClass: 2
Flags: W
LayerCount: 2
Fore
SplineSet
290 -5 m 257
 277 -41 l 257
 1907 -41 l 257
 1920 -5 l 257
 290 -5 l 257
2185 712 m 257
 650 1012 l 257
 634 967 l 257
 2171 664 l 257
 2185 712 l 257
2184 711 m 257
 378 253 l 257
 362 209 l 257
 2168 655 l 257
 2184 711 l 257
EndSplineSet
EndChar

StartChar: guillemotleft
Encoding: 472 171 472
GlifName: guillemotleft
Width: 2048
VWidth: 0
GlyphClass: 2
Flags: W
LayerCount: 2
Fore
SplineSet
795 509 m 257
 782 472 l 257
 1323 757 l 257
 1332 784 l 257
 795 509 l 257
795 509 m 257
 782 472 l 257
 1022 122 l 257
 1044 160 l 257
 795 509 l 257
1220 527 m 257
 1209 498 l 257
 1723 783 l 257
 1738 823 l 257
 1220 527 l 257
1219 527 m 257
 1208 497 l 257
 1437 122 l 257
 1464 149 l 257
 1219 527 l 257
EndSplineSet
EndChar

StartChar: guillemotright
Encoding: 473 187 473
GlifName: guillemotright
Width: 2048
VWidth: 0
GlyphClass: 2
Flags: W
LayerCount: 2
Fore
SplineSet
1623 509 m 257
 1286 784 l 257
 1277 757 l 257
 1609 472 l 257
 1623 509 l 257
1623 509 m 257
 1120 160 l 257
 1114 122 l 257
 1609 472 l 257
 1623 509 l 257
1212 527 m 257
 910 823 l 257
 895 783 l 257
 1202 498 l 257
 1212 527 l 257
1213 527 m 257
 692 149 l 257
 699 122 l 257
 1202 497 l 257
 1213 527 l 257
EndSplineSet
EndChar

StartChar: guilsinglleft
Encoding: 474 8249 474
GlifName: guilsinglleft
Width: 2048
VWidth: 0
GlyphClass: 2
Flags: W
LayerCount: 2
Fore
SplineSet
340 652 m 257
 310 569 l 257
 1265 946 l 257
 1290 1013 l 257
 340 652 l 257
340 652 m 257
 310 569 l 257
 959 122 l 257
 987 199 l 257
 340 652 l 257
EndSplineSet
EndChar

StartChar: guilsinglright
Encoding: 475 8250 475
GlifName: guilsinglright
Width: 2048
VWidth: 0
GlyphClass: 2
Flags: W
LayerCount: 2
Fore
SplineSet
1151 632 m 257
 474 1013 l 257
 452 952 l 257
 1128 569 l 257
 1151 632 l 257
1151 632 m 257
 171 186 l 257
 147 122 l 257
 1128 569 l 257
 1151 632 l 257
EndSplineSet
EndChar

StartChar: h
Encoding: 476 104 476
GlifName: h
Width: 2048
VWidth: 0
GlyphClass: 2
Flags: W
AnchorPoint: "top" 780 1638 basechar 0
AnchorPoint: "base" 1160 -26 basechar 0
LayerCount: 2
Fore
SplineSet
729 1525 m 257
 176 6 l 257
 235 6 l 257
 788 1525 l 257
 729 1525 l 257
588 1028 m 257
 566 968 l 257
 2179 968 l 257
 2201 1028 l 257
 588 1028 l 257
2189 1028 m 257
 1815 0 l 257
 1874 0 l 257
 2248 1028 l 257
 2189 1028 l 257
EndSplineSet
EndChar

StartChar: uni044A
Encoding: 477 1098 477
GlifName: hardsign-cy
Width: 2048
VWidth: 0
Flags: W
AnchorPoint: "base" 1121 -189 basechar 0
AnchorPoint: "top" 814 1723 basechar 0
LayerCount: 2
Fore
SplineSet
1210 1012 m 257
 779 0 l 257
 839 0 l 257
 1270 1012 l 257
 1210 1012 l 257
1036 584 m 257
 1013 523 l 257
 2165 523 l 257
 2188 584 l 257
 1036 584 l 257
2175 584 m 257
 1927 0 l 257
 1987 0 l 257
 2235 584 l 257
 2175 584 l 257
836 60 m 257
 814 0 l 257
 1965 0 l 257
 1987 60 l 257
 836 60 l 257
524 1019 m 257
 516 958 l 257
 1208 958 l 257
 1217 1019 l 257
 524 1019 l 257
EndSplineSet
EndChar

StartChar: hbar
Encoding: 478 295 478
GlifName: hbar
Width: 2048
VWidth: 0
GlyphClass: 2
Flags: W
LayerCount: 2
Fore
SplineSet
803 1541 m 257
 244 6 l 257
 304 6 l 257
 863 1541 l 257
 803 1541 l 257
648 1023 m 257
 628 966 l 257
 2286 966 l 257
 2306 1023 l 257
 648 1023 l 257
2255 1023 m 257
 1883 0 l 257
 1942 0 l 257
 2314 1023 l 257
 2255 1023 l 257
626 1429 m 257
 604 1369 l 257
 1060 1369 l 257
 1082 1429 l 257
 626 1429 l 257
EndSplineSet
EndChar

StartChar: hookabovecomb
Encoding: 483 777 483
GlifName: hookabovecomb
Width: 0
VWidth: 0
GlyphClass: 4
Flags: W
AnchorPoint: "top" -31 782 mark 0
LayerCount: 2
Fore
SplineSet
43 1081 m 257
 28 1046 l 257
 290 1046 l 257
 305 1081 l 257
 43 1081 l 257
271 1081 m 257
 199 914 l 257
 236 914 l 257
 308 1081 l 257
 271 1081 l 257
26 924 m 257
 12 891 l 257
 226 891 l 257
 240 924 l 257
 26 924 l 257
26 924 m 257
 -29 795 l 257
 7 795 l 257
 62 924 l 257
 26 924 l 257
EndSplineSet
EndChar

StartChar: uni20B4
Encoding: 485 8372 485
GlifName: hryvnia
Width: 2048
VWidth: 0
GlyphClass: 2
Flags: W
LayerCount: 2
Fore
SplineSet
2009 1553 m 257
 1411 1553 l 257
 1338 1494 l 257
 1936 1494 l 257
 2009 1553 l 257
2011 1542 m 257
 1952 1542 l 257
 1765 1028 l 257
 1824 1028 l 257
 2011 1542 l 257
1494 60 m 257
 786 60 l 257
 714 0 l 257
 1422 0 l 257
 1494 60 l 257
737 0 m 257
 866 355 l 257
 807 355 l 257
 678 0 l 257
 737 0 l 257
1824 1028 m 257
 1764 1030 l 257
 807 355 l 257
 866 355 l 257
 1824 1028 l 257
946 906 m 257
 946 846 l 257
 1690 846 l 257
 1690 906 l 257
 946 906 l 257
841 635 m 257
 841 575 l 257
 1591 575 l 257
 1591 635 l 257
 841 635 l 257
EndSplineSet
EndChar

StartChar: hungarumlaut
Encoding: 489 733 489
GlifName: hungarumlaut
Width: 2048
VWidth: 0
GlyphClass: 2
Flags: W
LayerCount: 2
Fore
SplineSet
836 122 m 257
 902 122 l 257
 993 370 l 257
 927 370 l 257
 836 122 l 257
1240 122 m 257
 1300 122 l 257
 1391 370 l 257
 1331 370 l 257
 1240 122 l 257
EndSplineSet
EndChar

StartChar: hyphen
Encoding: 490 45 490
GlifName: hyphen
Width: 2048
VWidth: 0
GlyphClass: 2
Flags: W
LayerCount: 2
Fore
SplineSet
900 793 m 257
 864 733 l 257
 1690 733 l 257
 1726 793 l 257
 900 793 l 257
EndSplineSet
EndChar

StartChar: i
Encoding: 492 105 492
GlifName: i
Width: 2048
VWidth: 0
GlyphClass: 2
Flags: W
AnchorPoint: "top" 1352 1356 basechar 0
AnchorPoint: "base" 933 -110 basechar 0
LayerCount: 2
Fore
SplineSet
1394 1023 m 257
 1041 52 l 257
 1101 52 l 257
 1454 1023 l 257
 1394 1023 l 257
163 60 m 257
 141 0 l 257
 1907 0 l 257
 1929 60 l 257
 163 60 l 257
1306 1292 m 257
 1263 1174 l 257
 1376 1174 l 257
 1419 1292 l 257
 1306 1292 l 257
563 1023 m 257
 541 962 l 257
 1389 962 l 257
 1411 1023 l 257
 563 1023 l 257
EndSplineSet
Substitution2: "Single Substitution lookup 5 subtable" dotlessi
EndChar

StartChar: uni026A
Encoding: 495 618 495
GlifName: icapitalsmall
Width: 2048
VWidth: 0
GlyphClass: 2
Flags: W
AnchorPoint: "top" 1680 1718 basechar 0
AnchorPoint: "base" 1084 -56 basechar 0
LayerCount: 2
Fore
SplineSet
718 1032 m 257
 696 971 l 257
 2421 971 l 257
 2443 1032 l 257
 718 1032 l 257
1609 997 m 257
 1070 34 l 257
 1129 34 l 257
 1668 997 l 257
 1609 997 l 257
158 66 m 257
 136 6 l 257
 1916 6 l 257
 1938 66 l 257
 158 66 l 257
EndSplineSet
EndChar

StartChar: uni0438
Encoding: 500 1080 500
GlifName: ii-cy
Width: 2048
VWidth: 0
Flags: W
LayerCount: 2
Fore
SplineSet
599 1019 m 257
 34 0 l 257
 94 0 l 257
 659 1019 l 257
 599 1019 l 257
2518 1019 m 257
 1953 0 l 257
 2013 0 l 257
 2578 1019 l 257
 2518 1019 l 257
2518 1019 m 257
 34 0 l 257
 94 0 l 257
 2579 1019 l 257
 2518 1019 l 257
EndSplineSet
EndChar

StartChar: Delta
Encoding: 505 8710 505
GlifName: increment
Width: 2048
VWidth: 0
GlyphClass: 2
Flags: W
LayerCount: 2
Fore
SplineSet
145.746 57 m 257
 125 0 l 257
 1923 0 l 257
 1943.75 57 l 257
 145.746 57 l 257
1941 0 m 257
 1653.43 1548 l 257
 1581.43 1548 l 257
 1889 0 l 257
 1941 0 l 257
155 0 m 257
 1586.43 1548 l 257
 1515.43 1548 l 257
 106 0 l 257
 155 0 l 257
EndSplineSet
EndChar

StartChar: infinity
Encoding: 506 8734 506
GlifName: infinity
Width: 2048
VWidth: 0
GlyphClass: 2
Flags: W
LayerCount: 2
Fore
SplineSet
400 1023 m 257
 378 963 l 257
 1023 963 l 257
 1045 1023 l 257
 400 1023 l 257
388 984 m 257
 30 0 l 257
 90 0 l 257
 448 984 l 257
 388 984 l 257
80 60 m 257
 58 0 l 257
 696 5 l 257
 717 65 l 257
 80 60 l 257
1329 1 m 257
 1352 62 l 257
 1043 1024 l 257
 980 990 l 257
 1329 1 l 257
695 3 m 257
 1807 984 l 257
 1736 1029 l 257
 656 39 l 257
 695 3 l 257
1738 1027 m 257
 1695 938 l 257
 2304 935 l 257
 2328 1016 l 257
 1738 1027 l 257
2286 1016 m 257
 1920 1 l 257
 1980 1 l 257
 2346 1016 l 257
 2286 1016 l 257
1352 62 m 257
 1328 1 l 257
 1974 -2 l 257
 1998 59 l 257
 1352 62 l 257
EndSplineSet
EndChar

StartChar: integral
Encoding: 507 8747 507
GlifName: integral
Width: 2048
VWidth: 0
GlyphClass: 2
Flags: W
LayerCount: 2
Fore
SplineSet
1046 1641 m 257
 823 -390 l 257
 890 -390 l 257
 1113 1641 l 257
 1046 1641 l 257
351 -339 m 257
 351 -390 l 257
 890 -390 l 257
 890 -339 l 257
 351 -339 l 257
1118 1641 m 257
 1118 1575 l 257
 1778 1572 l 257
 1778 1638 l 257
 1118 1641 l 257
EndSplineSet
EndChar

StartChar: iota
Encoding: 510 953 510
GlifName: iota
Width: 2048
VWidth: 0
GlyphClass: 2
Flags: W
LayerCount: 2
Fore
SplineSet
992 1018 m 257
 661 107 l 257
 721 107 l 257
 1052 1018 l 257
 992 1018 l 257
684 172 m 257
 660 106 l 257
 1632 6 l 257
 1656 72 l 257
 684 172 l 257
EndSplineSet
EndChar

StartChar: uni0269
Encoding: 511 617 511
GlifName: iota_latin
Width: 2048
VWidth: 0
GlyphClass: 2
Flags: W
AnchorPoint: "top" 1460 1172 basechar 0
LayerCount: 2
Fore
SplineSet
992 1018 m 257
 661 107 l 257
 721 107 l 257
 1052 1018 l 257
 992 1018 l 257
684 172 m 257
 660 106 l 257
 1632 6 l 257
 1656 72 l 257
 684 172 l 257
EndSplineSet
EndChar

StartChar: uni0475
Encoding: 522 1141 522
GlifName: izhitsa-cy
Width: 1024
VWidth: 0
Flags: W
AnchorPoint: "top" 1644 1634 basechar 0
AnchorPoint: "base" 1070 -175 basechar 0
LayerCount: 2
Fore
SplineSet
415 1029 m 257
 1062 0 l 257
 1122 0 l 257
 479 1029 l 257
 415 1029 l 257
2181 1029 m 257
 1062 0 l 257
 1122 0 l 257
 2251 1029 l 257
 2181 1029 l 257
2128 984 m 257
 2258 987 l 257
 2312 1032 l 257
 2182 1028 l 257
 2128 984 l 257
EndSplineSet
EndChar

StartChar: j
Encoding: 523 106 523
GlifName: j
Width: 2048
VWidth: 0
GlyphClass: 2
Flags: W
AnchorPoint: "top" 2304 1348 basechar 0
AnchorPoint: "base" 1018 -497 basechar 0
LayerCount: 2
Fore
SplineSet
2164 1023 m 257
 1642 -411 l 257
 1700 -411 l 257
 2222 1023 l 257
 2164 1023 l 257
71 -348 m 257
 49 -409 l 257
 1663 -409 l 257
 1685 -348 l 257
 71 -348 l 257
196 -6 m 257
 60 -378 l 257
 120 -378 l 257
 256 -6 l 257
 196 -6 l 257
2218 1216 m 257
 2185 1127 l 257
 2275 1127 l 257
 2308 1216 l 257
 2218 1216 l 257
EndSplineSet
Substitution2: "Single Substitution lookup 5 subtable" uni0237
EndChar

StartChar: uni029D
Encoding: 526 669 526
GlifName: jcrossedtail
Width: 2048
VWidth: 0
GlyphClass: 2
Flags: W
AnchorPoint: "top" 2304 1348 basechar 0
AnchorPoint: "base" 1018 -497 basechar 0
LayerCount: 2
Fore
SplineSet
2164 1023 m 257
 1642 -411 l 257
 1700 -411 l 257
 2222 1023 l 257
 2164 1023 l 257
71 -348 m 257
 49 -409 l 257
 1663 -409 l 257
 1685 -348 l 257
 71 -348 l 257
196 -6 m 257
 60 -378 l 257
 120 -378 l 257
 256 -6 l 257
 196 -6 l 257
2218 1216 m 257
 2185 1127 l 257
 2275 1127 l 257
 2308 1216 l 257
 2218 1216 l 257
198.028 -8 m 257
 2071.25 -8 l 257
 2137.02 70 l 257
 263.795 70 l 257
 198.028 -8 l 257
EndSplineSet
EndChar

StartChar: k
Encoding: 530 107 530
GlifName: k
Width: 2048
VWidth: 0
GlyphClass: 2
Flags: W
AnchorPoint: "base" 811 -133 basechar 0
AnchorPoint: "top" 756 1678 basechar 0
LayerCount: 2
Fore
SplineSet
647 1535 m 257
 90 5 l 257
 150 5 l 257
 707 1535 l 257
 647 1535 l 257
290 421 m 257
 265 352 l 257
 2166 1023 l 257
 2106 1023 l 257
 290 421 l 257
690 551 m 257
 632 508 l 257
 1899 0 l 257
 1960 0 l 257
 690 551 l 257
EndSplineSet
EndChar

StartChar: uni03D7
Encoding: 531 983 531
GlifName: kaiS_ymbol
Width: 2048
VWidth: 0
GlyphClass: 2
Flags: W
LayerCount: 2
Fore
SplineSet
549 1017 m 257
 480 961 l 257
 1055 851 l 257
 1196 909 l 257
 549 1017 l 257
1136 925 m 257
 518 39 l 257
 576 22 l 257
 1194 908 l 257
 1136 925 l 257
2074 1033 m 257
 513 37 l 257
 583 18 l 257
 2144 1014 l 257
 2074 1033 l 257
2066 1035 m 257
 1407 39 l 257
 1468 -5 l 257
 2127 991 l 257
 2066 1035 l 257
1479 39 m 257
 1469 -5 l 257
 2002 -1 l 257
 2107 39 l 257
 1479 39 l 257
1202 -294 m 257
 1263 -314 l 257
 1838 -238 l 257
 1862 -214 l 257
 1202 -294 l 257
2107 39 m 257
 2002 -1 l 257
 1812 -224 l 257
 1838 -239 l 257
 2107 39 l 257
EndSplineSet
EndChar

StartChar: kgreenlandic
Encoding: 533 312 533
GlifName: kgreenlandic
Width: 2048
VWidth: 0
GlyphClass: 2
Flags: W
AnchorPoint: "base" 1006 -48 basechar 0
AnchorPoint: "top" 731 1151 basechar 0
LayerCount: 2
Fore
SplineSet
647 1033 m 257
 90 5 l 257
 150 5 l 257
 707 1033 l 257
 647 1033 l 257
290 421 m 257
 265 352 l 257
 2166 1023 l 257
 2106 1023 l 257
 290 421 l 257
690 551 m 257
 632 508 l 257
 1899 0 l 257
 1960 0 l 257
 690 551 l 257
EndSplineSet
EndChar

StartChar: l
Encoding: 538 108 538
GlifName: l
Width: 2048
VWidth: 0
GlyphClass: 2
Flags: W
AnchorPoint: "base" 1011 -189 basechar 0
AnchorPoint: "top" 1640 1670 basechar 0
LayerCount: 2
Fore
SplineSet
233 72 m 257
 207 0 l 257
 1841 0 l 257
 1867 72 l 257
 233 72 l 257
1571 1553 m 257
 1027 57 l 257
 1087 57 l 257
 1631 1553 l 257
 1571 1553 l 257
833 1553 m 257
 812 1494 l 257
 1559 1494 l 257
 1580 1553 l 257
 833 1553 l 257
EndSplineSet
EndChar

StartChar: lambda
Encoding: 541 955 541
GlifName: lambda
Width: 2048
VWidth: 0
GlyphClass: 2
Flags: W
LayerCount: 2
Fore
SplineSet
-10 0 m 257
 189 0 l 257
 1404 777 l 257
 1197 777 l 257
 -10 0 l 257
1476 0 m 257
 1676 0 l 257
 1318 1047 l 257
 1111 1047 l 257
 1476 0 l 257
EndSplineSet
EndChar

StartChar: uni20BE
Encoding: 542 8382 542
GlifName: lari
Width: 2048
VWidth: 0
GlyphClass: 2
Flags: W
LayerCount: 2
Fore
SplineSet
697 62 m 257
 623 2 l 257
 1458 2 l 257
 1532 62 l 257
 697 62 l 257
1150 1033 m 257
 1081 973 l 257
 1709 973 l 257
 1778 1033 l 257
 1150 1033 l 257
1332 1152 m 257
 1169 704 l 257
 1224 704 l 257
 1387 1152 l 257
 1332 1152 l 257
1779 1033 m 257
 1698 1009 l 257
 1717 604 l 257
 1761 605 l 257
 1779 1033 l 257
793 602 m 257
 801 585 l 257
 1141 975 l 257
 1151 1032 l 257
 793 602 l 257
824 58 m 257
 882 57 l 257
 851 585 l 257
 794 602 l 257
 824 58 l 257
1565 1160 m 257
 1402 712 l 257
 1445 715 l 257
 1608 1163 l 257
 1565 1160 l 257
EndSplineSet
EndChar

StartChar: lcaron
Encoding: 543 318 543
GlifName: lcaron
Width: 2048
VWidth: 0
GlyphClass: 2
Flags: W
LayerCount: 2
Fore
SplineSet
219 62 m 257
 196 0 l 257
 1854 0 l 257
 1877 62 l 257
 219 62 l 257
1567 1547 m 257
 1021 46 l 257
 1079 46 l 257
 1625 1547 l 257
 1567 1547 l 257
758 1550 m 257
 736 1489 l 257
 1560 1489 l 257
 1582 1550 l 257
 758 1550 l 257
1686 1496 m 257
 1602 1264 l 257
 1654 1264 l 257
 1738 1496 l 257
 1686 1496 l 257
EndSplineSet
EndChar

StartChar: uni0234
Encoding: 545 564 545
GlifName: lcurl
Width: 2048
VWidth: 0
GlyphClass: 2
Flags: W
AnchorPoint: "base" 1011 -189 basechar 0
AnchorPoint: "top" 1640 1670 basechar 0
LayerCount: 2
Fore
SplineSet
1111 129 m 257
 1085 57 l 257
 1854 340 l 257
 1880 412 l 257
 1111 129 l 257
1571 1553 m 257
 1027 57 l 257
 1084 57 l 257
 1628 1553 l 257
 1571 1553 l 257
833 1553 m 257
 812 1494 l 257
 1559 1494 l 257
 1580 1553 l 257
 833 1553 l 257
215 362 m 257
 189 290 l 257
 1858 352 l 257
 1884 424 l 257
 215 362 l 257
EndSplineSet
EndChar

StartChar: arrowleft
Encoding: 547 8592 547
GlifName: leftA_rrow
Width: 2048
VWidth: 0
GlyphClass: 2
Flags: W
LayerCount: 2
Fore
SplineSet
313 790 m 257
 236 730 l 257
 2029 730 l 257
 2106 790 l 257
 313 790 l 257
810 1091 m 257
 209 759 l 257
 284 759 l 257
 885 1091 l 257
 810 1091 l 257
209 759 m 257
 587 426 l 257
 662 426 l 257
 285 759 l 257
 209 759 l 257
EndSplineSet
EndChar

StartChar: uni25C2
Encoding: 548 9666 548
GlifName: leftB_lackS_mallT_riangle
Width: 2048
VWidth: 0
GlyphClass: 2
Flags: W
LayerCount: 2
Fore
SplineSet
737 666 m 257
 1150 426 l 257
 1153 910 l 257
 737 666 l 257
EndSplineSet
EndChar

StartChar: uni25C0
Encoding: 549 9664 549
GlifName: leftB_lackT_riangle
Width: 2048
VWidth: 0
GlyphClass: 2
Flags: W
LayerCount: 2
Fore
SplineSet
569 654 m 257
 1257 254 l 257
 1261 1062 l 257
 569 654 l 257
EndSplineSet
EndChar

StartChar: arrowboth
Encoding: 550 8596 550
GlifName: leftR_ightA_rrow
Width: 2048
VWidth: 0
GlyphClass: 2
Flags: W
LayerCount: 2
Fore
SplineSet
670 845 m 257
 670 785 l 257
 1398 785 l 257
 1398 845 l 257
 670 845 l 257
793 1146 m 257
 617 814 l 257
 677 814 l 257
 852 1146 l 257
 793 1146 l 257
617 814 m 257
 808 481 l 257
 867 481 l 257
 677 814 l 257
 617 814 l 257
1249 484 m 257
 1425 816 l 257
 1367 816 l 257
 1191 484 l 257
 1249 484 l 257
1438 816 m 257
 1247 1149 l 257
 1189 1149 l 257
 1379 816 l 257
 1438 816 l 257
EndSplineSet
EndChar

StartChar: uni25C3
Encoding: 551 9667 551
GlifName: leftW_hiteS_mallT_riangle
Width: 2048
VWidth: 0
GlyphClass: 2
Flags: W
LayerCount: 2
Fore
SplineSet
743 661 m 257
 1156 421 l 257
 1159 905 l 257
 743 661 l 257
801 661 m 257
 1133 857 l 257
 1132 469 l 257
 801 661 l 257
EndSplineSet
EndChar

StartChar: uni25C1
Encoding: 552 9665 552
GlifName: leftW_hiteT_riangle
Width: 2048
VWidth: 0
GlyphClass: 2
Flags: W
LayerCount: 2
Fore
SplineSet
645 674 m 257
 1333 274 l 257
 1337 1082 l 257
 645 674 l 257
741 675 m 257
 1295 1001 l 257
 1292 355 l 257
 741 675 l 257
EndSplineSet
EndChar

StartChar: less
Encoding: 553 60 553
GlifName: less
Width: 2048
VWidth: 0
GlyphClass: 2
Flags: W
LayerCount: 2
Fore
SplineSet
852 652 m 257
 822 569 l 257
 1777 946 l 257
 1802 1013 l 257
 852 652 l 257
852 652 m 257
 822 569 l 257
 1471 122 l 257
 1499 199 l 257
 852 652 l 257
EndSplineSet
EndChar

StartChar: lessequal
Encoding: 554 8804 554
GlifName: lessequal
Width: 2048
VWidth: 0
GlyphClass: 2
Flags: W
LayerCount: 2
Fore
SplineSet
116 0 m 257
 115 -36 l 257
 1913 -30 l 257
 1914 0 l 257
 116 0 l 257
478 712 m 257
 457 664 l 257
 2215 967 l 257
 2231 1012 l 257
 478 712 l 257
478 711 m 257
 454 655 l 257
 1935 209 l 257
 1951 253 l 257
 478 711 l 257
EndSplineSet
EndChar

StartChar: lira
Encoding: 555 8356 555
GlifName: lira
Width: 2048
VWidth: 0
GlyphClass: 2
Flags: W
LayerCount: 2
Fore
SplineSet
887 770 m 257
 857 688 l 257
 1583 688 l 257
 1613 770 l 257
 887 770 l 257
1496 1543 m 257
 1473 1481 l 257
 1764 1481 l 257
 1787 1543 l 257
 1496 1543 l 257
983 1033 m 257
 956 959 l 257
 1682 959 l 257
 1709 1033 l 257
 983 1033 l 257
1451 1542 m 257
 890 0 l 257
 952 0 l 257
 1513 1542 l 257
 1451 1542 l 257
745 82 m 257
 715 0 l 257
 1441 0 l 257
 1471 82 l 257
 745 82 l 257
EndSplineSet
EndChar

StartChar: uni2113
Encoding: 556 8467 556
GlifName: literS_ign
Width: 2048
VWidth: 0
GlyphClass: 2
Flags: W
LayerCount: 2
Fore
SplineSet
749 151 m 257
 676 90 l 257
 1061 9 l 257
 1134 70 l 257
 749 151 l 257
1204 1548 m 257
 672 86 l 257
 743 79 l 257
 1275 1541 l 257
 1204 1548 l 257
1207 1546 m 257
 1128 1479 l 257
 1517 1477 l 257
 1596 1544 l 257
 1207 1546 l 257
1597 1545 m 257
 691 123 l 257
 732 100 l 257
 1639 1522 l 257
 1597 1545 l 257
EndSplineSet
EndChar

StartChar: uni0459
Encoding: 557 1113 557
GlifName: lje-cy
Width: 2048
VWidth: 0
Flags: W
LayerCount: 2
Fore
SplineSet
1828 1024 m 257
 1381 1 l 257
 1441 1 l 257
 1888 1024 l 257
 1828 1024 l 257
975 1024 m 257
 947 964 l 257
 1848 964 l 257
 1876 1024 l 257
 975 1024 l 257
974 1024 m 257
 229 0 l 257
 289 0 l 257
 1034 1024 l 257
 974 1024 l 257
48 61 m 257
 20 1 l 257
 289 1 l 257
 317 61 l 257
 48 61 l 257
1461 60 m 257
 1433 0 l 257
 1839 0 l 257
 1867 60 l 257
 1461 60 l 257
1601 434 m 257
 1573 374 l 257
 2015 364 l 257
 2043 424 l 257
 1601 434 l 257
1762 12 m 257
 1841 5 l 257
 2038 418 l 257
 1965 419 l 257
 1762 12 l 257
EndSplineSet
EndChar

StartChar: logicalnot
Encoding: 559 172 559
GlifName: logicalnot
Width: 2048
VWidth: 0
GlyphClass: 2
Flags: W
LayerCount: 2
Fore
SplineSet
1581 935 m 257
 1474 640 l 257
 1527 640 l 257
 1634 935 l 257
 1581 935 l 257
1094 935 m 257
 1072 875 l 257
 1606 875 l 257
 1628 935 l 257
 1094 935 l 257
EndSplineSet
EndChar

StartChar: longs
Encoding: 560 383 560
GlifName: longs
Width: 2048
VWidth: 0
GlyphClass: 2
Flags: W
LayerCount: 2
Fore
SplineSet
471 1084 m 257
 448 1023 l 257
 699 1023 l 257
 722 1084 l 257
 471 1084 l 257
825 1550 m 257
 261 0 l 257
 325 0 l 257
 889 1550 l 257
 825 1550 l 257
877 1550 m 257
 855 1488 l 257
 2486 1488 l 257
 2508 1550 l 257
 877 1550 l 257
EndSplineSet
EndChar

StartChar: lozenge
Encoding: 562 9674 562
GlifName: lozenge
Width: 2048
VWidth: 0
GlyphClass: 2
Flags: W
LayerCount: 2
Fore
SplineSet
836 809 m 257
 1024 382 l 257
 1231 800 l 257
 1025 1235 l 257
 836 809 l 257
EndSplineSet
EndChar

StartChar: lslash
Encoding: 563 322 563
GlifName: lslash
Width: 2048
VWidth: 0
GlyphClass: 2
Flags: W
LayerCount: 2
Fore
SplineSet
217 60 m 257
 195 0 l 257
 1853 0 l 257
 1875 60 l 257
 217 60 l 257
1629 1553 m 257
 1072 22 l 257
 1132 22 l 257
 1689 1553 l 257
 1629 1553 l 257
821 1553 m 257
 799 1493 l 257
 1633 1493 l 257
 1655 1553 l 257
 821 1553 l 257
1705 1039 m 257
 1004 702 l 257
 1106 702 l 257
 1807 1039 l 257
 1705 1039 l 257
EndSplineSet
EndChar

StartChar: m
Encoding: 564 109 564
GlifName: m
Width: 2048
VWidth: 0
GlyphClass: 2
Flags: W
AnchorPoint: "base" 1178 -159 basechar 0
AnchorPoint: "top" 1554 1098 basechar 0
LayerCount: 2
Fore
SplineSet
695 993 m 257
 334 0 l 257
 394 0 l 257
 755 993 l 257
 695 993 l 257
1535 972 m 257
 1181 0 l 257
 1241 0 l 257
 1595 972 l 257
 1535 972 l 257
2283 976 m 257
 1928 0 l 257
 1988 0 l 257
 2343 976 l 257
 2283 976 l 257
432 1023 m 257
 412 966 l 257
 2340 966 l 257
 2360 1023 l 257
 432 1023 l 257
EndSplineSet
EndChar

StartChar: macron
Encoding: 565 175 565
GlifName: macron
Width: 2048
VWidth: 0
GlyphClass: 2
Flags: W
LayerCount: 2
Fore
SplineSet
1108 1019 m 257
 1093 977 l 257
 1653 977 l 257
 1668 1019 l 257
 1108 1019 l 257
EndSplineSet
EndChar

StartChar: mu
Encoding: 573 181 573
GlifName: mu
Width: 2048
VWidth: 0
GlyphClass: 2
Flags: W
LayerCount: 2
Fore
SplineSet
1791 935 m 257
 1451 0 l 257
 1511 0 l 257
 1851 935 l 257
 1791 935 l 257
360 60 m 257
 338 0 l 257
 1508 0 l 257
 1530 60 l 257
 360 60 l 257
657 935 m 257
 161 -430 l 257
 221 -430 l 257
 717 935 l 257
 657 935 l 257
EndSplineSet
EndChar

StartChar: multiply
Encoding: 574 215 574
GlifName: multiply
Width: 2048
VWidth: 0
GlyphClass: 2
Flags: W
LayerCount: 2
Fore
SplineSet
199 295 m 257
 295 295 l 257
 2430 1323 l 257
 2348 1323 l 257
 199 295 l 257
571 1322 m 257
 1975 288 l 257
 2063 288 l 257
 655 1322 l 257
 571 1322 l 257
EndSplineSet
EndChar

StartChar: n
Encoding: 575 110 575
GlifName: n
Width: 2048
VWidth: 0
GlyphClass: 2
Flags: W
AnchorPoint: "base" 1203 -133 basechar 0
AnchorPoint: "top" 1631 1124 basechar 0
LayerCount: 2
Fore
SplineSet
862 990 m 257
 502 0 l 257
 563 0 l 257
 923 990 l 257
 862 990 l 257
2221 976 m 257
 1866 0 l 257
 1926 0 l 257
 2281 976 l 257
 2221 976 l 257
496 1027 m 257
 474 967 l 257
 2276 967 l 257
 2298 1027 l 257
 496 1027 l 257
EndSplineSet
EndChar

StartChar: uni0235
Encoding: 580 565 580
GlifName: ncurl
Width: 2048
VWidth: 0
GlyphClass: 2
Flags: W
AnchorPoint: "base" 1203 -133 basechar 0
AnchorPoint: "top" 1631 1124 basechar 0
LayerCount: 2
Fore
SplineSet
767 982 m 257
 407 -8 l 257
 468 -8 l 257
 828 982 l 257
 767 982 l 257
1975 968 m 257
 1620 -8 l 257
 1680 -8 l 257
 2035 968 l 257
 1975 968 l 257
401 1019 m 257
 379 959 l 257
 2030 959 l 257
 2052 1019 l 257
 401 1019 l 257
1052 54 m 257
 1030 -6 l 257
 2138 303 l 257
 2160 363 l 257
 1052 54 l 257
1678 51 m 257
 1675 -9 l 257
 1921 -9 l 257
 1924 51 l 257
 1678 51 l 257
2160 363 m 257
 1877 -9 l 257
 1937 -9 l 257
 2220 363 l 257
 2160 363 l 257
EndSplineSet
EndChar

StartChar: nine
Encoding: 582 57 582
GlifName: nine
Width: 2048
VWidth: 0
GlyphClass: 2
Flags: W
LayerCount: 2
Fore
SplineSet
2221 759 m 257
 1966 59 l 257
 100 59 l 257
 79 0 l 257
 2001 0 l 257
 2566 1553 l 257
 622 1553 l 257
 618 1541 l 257
 333 759 l 257
 2221 759 l 257
2240 818 m 257
 415 818 l 257
 661 1495 l 257
 2486 1495 l 257
 2240 818 l 257
EndSplineSet
Substitution2: "supsSuperscriptinLatinlookup16 subtable" uni2079
EndChar

StartChar: uni045A
Encoding: 583 1114 583
GlifName: nje-cy
Width: 2048
VWidth: 0
Flags: W
LayerCount: 2
Fore
SplineSet
468 1021 m 257
 34 0 l 257
 94 0 l 257
 528 1021 l 257
 468 1021 l 257
1427 1021 m 257
 993 0 l 257
 1053 0 l 257
 1487 1021 l 257
 1427 1021 l 257
264 566 m 257
 225 502 l 257
 2148 502 l 257
 2187 566 l 257
 264 566 l 257
2161 566 m 257
 1953 1 l 257
 2013 0 l 257
 2221 565 l 257
 2161 566 l 257
1066 66 m 257
 1044 0 l 257
 2014 0 l 257
 2036 66 l 257
 1066 66 l 257
EndSplineSet
EndChar

StartChar: uni2197
Encoding: 586 8599 586
GlifName: northE_astA_rrow
Width: 2048
VWidth: 0
GlyphClass: 2
Flags: W
LayerCount: 2
Fore
SplineSet
1777 1333 m 257
 1789 1430 l 257
 521 162 l 257
 509 66 l 257
 1777 1333 l 257
1638 769 m 257
 1829 1429 l 257
 1776 1376 l 257
 1585 716 l 257
 1638 769 l 257
1829 1429 m 257
 1326 1397 l 257
 1273 1344 l 257
 1775 1375 l 257
 1829 1429 l 257
EndSplineSet
EndChar

StartChar: uni2196
Encoding: 587 8598 587
GlifName: northW_estA_rrow
Width: 2048
VWidth: 0
GlyphClass: 2
Flags: W
LayerCount: 2
Fore
SplineSet
583 1378 m 257
 486 1390 l 257
 1754 122 l 257
 1850 110 l 257
 583 1378 l 257
1147 1239 m 257
 487 1430 l 257
 540 1377 l 257
 1200 1186 l 257
 1147 1239 l 257
487 1430 m 257
 519 927 l 257
 572 874 l 257
 541 1376 l 257
 487 1430 l 257
EndSplineSet
EndChar

StartChar: notequal
Encoding: 588 8800 588
GlifName: notequal
Width: 2048
VWidth: 0
GlyphClass: 2
Flags: W
LayerCount: 2
Fore
SplineSet
1911 1101 m 257
 436 182 l 257
 440 109 l 257
 1914 1028 l 257
 1911 1101 l 257
513 837 m 257
 490 775 l 257
 2122 775 l 257
 2145 837 l 257
 513 837 l 257
390 500 m 257
 365 432 l 257
 1997 432 l 257
 2022 500 l 257
 390 500 l 257
EndSplineSet
EndChar

StartChar: numbersign
Encoding: 591 35 591
GlifName: numbersign
Width: 2048
VWidth: 0
GlyphClass: 2
Flags: W
LayerCount: 2
Fore
SplineSet
1172 1184 m 257
 777 99 l 257
 836 99 l 257
 1231 1184 l 257
 1172 1184 l 257
1670 1192 m 257
 1271 95 l 257
 1342 95 l 257
 1741 1192 l 257
 1670 1192 l 257
979 995 m 257
 958 937 l 257
 1759 937 l 257
 1780 995 l 257
 979 995 l 257
800 493 m 257
 773 417 l 257
 1583 417 l 257
 1610 493 l 257
 800 493 l 257
EndSplineSet
EndChar

StartChar: o
Encoding: 593 111 593
GlifName: o
Width: 2048
VWidth: 0
GlyphClass: 2
Flags: W
AnchorPoint: "top" 1346 1038 basechar 0
AnchorPoint: "base" 954 -166 basechar 0
LayerCount: 2
Fore
SplineSet
476 1023 m 257
 104 0 l 257
 160 0 l 257
 532 1023 l 257
 476 1023 l 257
2256 1023 m 257
 1884 0 l 257
 1946 0 l 257
 2318 1023 l 257
 2256 1023 l 257
524 1023 m 257
 504 967 l 257
 2241 967 l 257
 2261 1023 l 257
 524 1023 l 257
173 62 m 257
 150 0 l 257
 1892 0 l 257
 1915 62 l 257
 173 62 l 257
EndSplineSet
EndChar

StartChar: uni0275
Encoding: 596 629 596
GlifName: obarred
Width: 2048
VWidth: 0
GlyphClass: 2
Flags: W
AnchorPoint: "top" 1442 1086 basechar 0
AnchorPoint: "base" 1008 -118 basechar 0
LayerCount: 2
Fore
SplineSet
476 1023 m 257
 104 0 l 257
 160 0 l 257
 532 1023 l 257
 476 1023 l 257
2256 1023 m 257
 1884 0 l 257
 1946 0 l 257
 2318 1023 l 257
 2256 1023 l 257
524 1023 m 257
 504 967 l 257
 2241 967 l 257
 2261 1023 l 257
 524 1023 l 257
173 62 m 257
 150 0 l 257
 1892 0 l 257
 1915 62 l 257
 173 62 l 257
376.019 578 m 257
 298.979 518 l 257
 2066.64 518 l 257
 2143.68 578 l 257
 376.019 578 l 257
EndSplineSet
EndChar

StartChar: uni04E9
Encoding: 597 1257 597
GlifName: obarred-cy
Width: 2048
VWidth: 0
Flags: W
AnchorPoint: "top" 1442 1086 basechar 0
AnchorPoint: "base" 1008 -118 basechar 0
LayerCount: 2
Fore
SplineSet
476 1023 m 257
 104 0 l 257
 160 0 l 257
 532 1023 l 257
 476 1023 l 257
2256 1023 m 257
 1884 0 l 257
 1946 0 l 257
 2318 1023 l 257
 2256 1023 l 257
524 1023 m 257
 504 967 l 257
 2241 967 l 257
 2261 1023 l 257
 524 1023 l 257
173 62 m 257
 150 0 l 257
 1892 0 l 257
 1915 62 l 257
 173 62 l 257
376.019 578 m 257
 298.979 518 l 257
 2066.64 518 l 257
 2143.68 578 l 257
 376.019 578 l 257
EndSplineSet
EndChar

StartChar: oe
Encoding: 601 339 601
GlifName: oe
Width: 2048
VWidth: 0
GlyphClass: 2
Flags: W
AnchorPoint: "top" 1468 1152 basechar 0
AnchorPoint: "base" 1076 -128 basechar 0
LayerCount: 2
Fore
SplineSet
1283 506 m 257
 1261 446 l 257
 2073 446 l 257
 2095 506 l 257
 1283 506 l 257
2258 1023 m 257
 2048 445 l 257
 2107 445 l 257
 2317 1023 l 257
 2258 1023 l 257
465 1023 m 257
 93 0 l 257
 152 0 l 257
 524 1023 l 257
 465 1023 l 257
1432 1023 m 257
 1060 0 l 257
 1121 0 l 257
 1493 1023 l 257
 1432 1023 l 257
520 1023 m 257
 499 964 l 257
 2297 964 l 257
 2318 1023 l 257
 520 1023 l 257
162 62 m 257
 139 0 l 257
 1955 0 l 257
 1978 62 l 257
 162 62 l 257
EndSplineSet
EndChar

StartChar: ogonek
Encoding: 602 731 602
GlifName: ogonek
Width: 2048
VWidth: 0
GlyphClass: 2
Flags: W
LayerCount: 2
Fore
SplineSet
644 -300 m 257
 622 -360 l 257
 1163 -360 l 257
 1185 -300 l 257
 644 -300 l 257
772 51 m 257
 622 -360 l 257
 682 -360 l 257
 832 51 l 257
 772 51 l 257
772 51 m 257
 750 -8 l 257
 1292 -8 l 257
 1314 51 l 257
 772 51 l 257
EndSplineSet
EndChar

StartChar: omega
Encoding: 607 969 607
GlifName: omega
Width: 2048
VWidth: 0
GlyphClass: 2
Flags: W
LayerCount: 2
Fore
SplineSet
567 1023 m 257
 168 47 l 257
 228 47 l 257
 627 1023 l 257
 567 1023 l 257
2242 1024 m 257
 1950 56 l 257
 2010 56 l 257
 2302 1024 l 257
 2242 1024 l 257
1260 611 m 257
 993 136 l 257
 1053 136 l 257
 1320 611 l 257
 1260 611 l 257
175 65 m 257
 147 2 l 257
 996 137 l 257
 1032 200 l 257
 175 65 l 257
1078 211 m 257
 1051 137 l 257
 1990 2 l 257
 2017 76 l 257
 1078 211 l 257
EndSplineSet
EndChar

StartChar: uniA7B7
Encoding: 608 42935 608
GlifName: omega_latin
Width: 2048
VWidth: 0
GlyphClass: 2
Flags: W
AnchorPoint: "base" 1041 -75 basechar 0
AnchorPoint: "top" 1589 1045 basechar 0
LayerCount: 2
Fore
SplineSet
645 1025 m 257
 82 0 l 257
 142 0 l 257
 705 1025 l 257
 645 1025 l 257
2504 1025 m 257
 1941 0 l 257
 2001 0 l 257
 2567 1026 l 257
 2504 1025 l 257
1254 669 m 257
 1064 146 l 257
 1124 146 l 257
 1314 669 l 257
 1254 669 l 257
164 60 m 257
 142 0 l 257
 1064 146 l 257
 1086 206 l 257
 164 60 l 257
1145 206 m 257
 1124 146 l 257
 1941 1 l 257
 1962 61 l 257
 1145 206 l 257
676 1025 m 257
 648 965 l 257
 1204 965 l 257
 1232 1025 l 257
 676 1025 l 257
1968 1025 m 257
 1918 965 l 257
 2516 965 l 257
 2566 1025 l 257
 1968 1025 l 257
EndSplineSet
EndChar

StartChar: one
Encoding: 613 49 613
GlifName: one
Width: 2048
VWidth: 0
GlyphClass: 2
Flags: W
LayerCount: 2
Fore
SplineSet
1054 0 m 257
 1114 0 l 257
 1678 1550 l 257
 1618 1550 l 257
 1054 0 l 257
1618 1550 m 257
 1453 1426 l 257
 1495 1398 l 257
 1678 1550 l 257
 1618 1550 l 257
EndSplineSet
Substitution2: "supsSuperscriptinLatinlookup16 subtable" uni00B9
EndChar

StartChar: onequarter
Encoding: 616 188 616
GlifName: onequarter
Width: 2048
VWidth: 0
GlyphClass: 2
Flags: W
LayerCount: 2
Fore
SplineSet
79 10 m 257
 182 10 l 257
 79 10 l 257
873 7 m 257
 932 7 l 257
 873 7 l 257
EndSplineSet
Refer: 752 185 N 1 0 0 1 -630 239 2
Refer: 701 47 N 1 0 0 1 -232 -16 2
Refer: 1749 8324 N 1 0 0 1 470 13 2
EndChar

StartChar: uni0254
Encoding: 618 596 618
GlifName: oopen
Width: 2048
VWidth: 0
GlyphClass: 2
Flags: W
AnchorPoint: "base" 978 -112 basechar 0
AnchorPoint: "top" 1504 1173 basechar 0
LayerCount: 2
Fore
SplineSet
1886 0 m 257
 1908 60 l 257
 188 60 l 257
 166 0 l 257
 1886 0 l 257
1900 43 m 257
 2258 1027 l 257
 2198 1027 l 257
 1840 43 l 257
 1900 43 l 257
2188 967 m 257
 2210 1027 l 257
 546 1027 l 257
 524 967 l 257
 2188 967 l 257
EndSplineSet
EndChar

StartChar: ordfeminine
Encoding: 619 170 619
GlifName: ordfeminine
Width: 2048
VWidth: 0
GlyphClass: 2
Flags: W
LayerCount: 2
Fore
SplineSet
1355 1819 m 257
 1331 1752 l 257
 1980 1752 l 257
 2004 1819 l 257
 1355 1819 l 257
1966 1820 m 257
 1594 796 l 257
 1671 796 l 257
 2043 1820 l 257
 1966 1820 l 257
1204 1395 m 257
 1181 1333 l 257
 1805 1333 l 257
 1828 1395 l 257
 1204 1395 l 257
1196 1372 m 257
 986 794 l 257
 1057 794 l 257
 1267 1372 l 257
 1196 1372 l 257
1022 869 m 257
 995 794 l 257
 1659 794 l 257
 1686 869 l 257
 1022 869 l 257
796 567 m 257
 773 504 l 257
 1641 504 l 257
 1664 567 l 257
 796 567 l 257
EndSplineSet
EndChar

StartChar: ordmasculine
Encoding: 620 186 620
GlifName: ordmasculine
Width: 2048
VWidth: 0
GlyphClass: 2
Flags: W
LayerCount: 2
Fore
SplineSet
992 1360 m 257
 620 337 l 257
 679 337 l 257
 1051 1360 l 257
 992 1360 l 257
1749 1360 m 257
 1377 337 l 257
 1438 337 l 257
 1810 1360 l 257
 1749 1360 l 257
1055 1364 m 257
 1033 1304 l 257
 1734 1304 l 257
 1756 1364 l 257
 1055 1364 l 257
689 399 m 257
 666 337 l 257
 1385 337 l 257
 1408 399 l 257
 689 399 l 257
487 267 m 257
 462 201 l 257
 1486 201 l 257
 1511 267 l 257
 487 267 l 257
EndSplineSet
EndChar

StartChar: oslash
Encoding: 621 248 621
GlifName: oslash
Width: 2048
VWidth: 0
GlyphClass: 2
Flags: W
AnchorPoint: "top" 1346 1038 basechar 0
AnchorPoint: "base" 1013 -139 basechar 0
LayerCount: 2
Fore
SplineSet
2337 1125 m 257
 65 -36 l 257
 93 -70 l 257
 2361 1073 l 257
 2337 1125 l 257
484 1023 m 257
 112 0 l 257
 172 0 l 257
 544 1023 l 257
 484 1023 l 257
2240 1023 m 257
 1868 0 l 257
 1928 0 l 257
 2300 1023 l 257
 2240 1023 l 257
526 1023 m 257
 505 963 l 257
 2250 963 l 257
 2272 1023 l 257
 526 1023 l 257
179 63 m 257
 156 0 l 257
 1904 0 l 257
 1927 63 l 257
 179 63 l 257
EndSplineSet
EndChar

StartChar: p
Encoding: 625 112 625
GlifName: p
Width: 2048
VWidth: 0
GlyphClass: 2
Flags: W
AnchorPoint: "base" 812 -364 basechar 0
AnchorPoint: "top" 1404 1250 basechar 0
LayerCount: 2
Fore
SplineSet
620 1181 m 257
 42 -406 l 257
 102 -406 l 257
 680 1181 l 257
 620 1181 l 257
606 1023 m 257
 585 964 l 257
 2195 964 l 257
 2216 1023 l 257
 606 1023 l 257
258 61 m 257
 236 0 l 257
 1856 0 l 257
 1878 61 l 257
 258 61 l 257
2168 1023 m 257
 1796 0 l 257
 1854 0 l 257
 2226 1023 l 257
 2168 1023 l 257
EndSplineSet
EndChar

StartChar: paragraph
Encoding: 626 182 626
GlifName: paragraph
Width: 2048
VWidth: 0
GlyphClass: 2
Flags: W
LayerCount: 2
Fore
SplineSet
982 1044 m 257
 961 985 l 257
 1525 985 l 257
 1546 1044 l 257
 982 1044 l 257
1166 1550 m 257
 966 1000 l 257
 1028 1000 l 257
 1228 1550 l 257
 1166 1550 l 257
1166 1550 m 257
 1145 1493 l 257
 1965 1493 l 257
 1986 1550 l 257
 1166 1550 l 257
1716 1550 m 257
 1152 0 l 257
 1216 0 l 257
 1780 1550 l 257
 1716 1550 l 257
1948 1550 m 257
 1384 0 l 257
 1446 0 l 257
 2010 1550 l 257
 1948 1550 l 257
EndSplineSet
EndChar

StartChar: parenleft
Encoding: 627 40 627
GlifName: parenleft
Width: 2048
VWidth: 0
GlyphClass: 2
Flags: W
LayerCount: 2
Fore
SplineSet
1201 1026 m 257
 893 179 l 257
 1021 179 l 257
 1329 1026 l 257
 1201 1026 l 257
1787 1636 m 257
 1201 1026 l 257
 1329 1026 l 257
 1814 1633 l 257
 1787 1636 l 257
893 179 m 257
 1054 -309 l 257
 1082 -309 l 257
 1021 179 l 257
 893 179 l 257
EndSplineSet
EndChar

StartChar: parenright
Encoding: 628 41 628
GlifName: parenright
Width: 2048
VWidth: 0
GlyphClass: 2
Flags: W
LayerCount: 2
Fore
SplineSet
1435 1026 m 257
 1127 179 l 257
 1255 179 l 257
 1563 1026 l 257
 1435 1026 l 257
1453 1635 m 257
 1435 1026 l 257
 1563 1026 l 257
 1491 1635 l 257
 1453 1635 l 257
1127 179 m 257
 746 -309 l 257
 774 -309 l 257
 1255 179 l 257
 1127 179 l 257
EndSplineSet
EndChar

StartChar: partialdiff
Encoding: 629 8706 629
GlifName: partialdiff
Width: 2048
VWidth: 0
GlyphClass: 2
Flags: W
LayerCount: 2
Fore
SplineSet
1316 1550 m 257
 1856 0 l 257
 1904 0 l 257
 1372 1550 l 257
 1316 1550 l 257
556 1023 m 257
 535 964 l 257
 1527 964 l 257
 1548 1023 l 257
 556 1023 l 257
516 1023 m 257
 144 0 l 257
 204 0 l 257
 576 1023 l 257
 516 1023 l 257
211 59 m 257
 190 0 l 257
 1856 0 l 257
 1877 59 l 257
 211 59 l 257
1121 1540 m 257
 1098 1472 l 257
 1357 1482 l 257
 1380 1550 l 257
 1121 1540 l 257
EndSplineSet
EndChar

StartChar: percent
Encoding: 631 37 631
GlifName: percent
Width: 2048
VWidth: 0
GlyphClass: 2
Flags: W
LayerCount: 2
Fore
SplineSet
796 444 m 257
 815 417 l 257
 1692 775 l 257
 1683 801 l 257
 796 444 l 257
1158 1148 m 257
 1032 803 l 257
 1063 803 l 257
 1189 1148 l 257
 1158 1148 l 257
1159 1152 m 257
 1150 1126 l 257
 1497 1126 l 257
 1506 1152 l 257
 1159 1152 l 257
1041 826 m 257
 1027 789 l 257
 1371 789 l 257
 1385 826 l 257
 1041 826 l 257
1470 1152 m 257
 1339 791 l 257
 1375 791 l 257
 1506 1152 l 257
 1470 1152 l 257
1226 436 m 257
 1101 94 l 257
 1144 94 l 257
 1269 436 l 257
 1226 436 l 257
1227 440 m 257
 1212 397 l 257
 1558 397 l 257
 1574 440 l 257
 1227 440 l 257
1107 109 m 257
 1095 77 l 257
 1439 77 l 257
 1451 109 l 257
 1107 109 l 257
1540 440 m 257
 1409 79 l 257
 1443 79 l 257
 1574 440 l 257
 1540 440 l 257
EndSplineSet
EndChar

StartChar: period
Encoding: 632 46 632
GlifName: period
Width: 2048
VWidth: 0
GlyphClass: 2
Flags: W
LayerCount: 2
Fore
SplineSet
993 113 m 257
 952 0 l 257
 1096 0 l 257
 1137 113 l 257
 993 113 l 257
EndSplineSet
EndChar

StartChar: periodcentered
Encoding: 633 183 633
GlifName: periodcentered
Width: 0
VWidth: 0
GlyphClass: 2
Flags: W
LayerCount: 2
Fore
SplineSet
336 1056 m 257
 300 955 l 257
 396 955 l 257
 432 1056 l 257
 336 1056 l 257
EndSplineSet
EndChar

StartChar: perthousand
Encoding: 635 8240 635
GlifName: perthousand
Width: 2048
VWidth: 0
GlyphClass: 2
Flags: W
LayerCount: 2
Fore
SplineSet
1333 436 m 257
 1214 110 l 257
 1292 110 l 257
 1411 436 l 257
 1333 436 l 257
1334 440 m 257
 1300 345 l 257
 1646 345 l 257
 1680 440 l 257
 1334 440 l 257
1232 159 m 257
 1202 77 l 257
 1546 77 l 257
 1576 159 l 257
 1232 159 l 257
1588 440 m 257
 1457 79 l 257
 1549 79 l 257
 1680 440 l 257
 1588 440 l 257
718 522 m 257
 707 377 l 257
 1655 716 l 257
 1663 860 l 257
 718 522 l 257
1086 1148 m 257
 967 822 l 257
 1045 822 l 257
 1164 1148 l 257
 1086 1148 l 257
1087 1152 m 257
 1053 1057 l 257
 1399 1057 l 257
 1433 1152 l 257
 1087 1152 l 257
985 871 m 257
 955 789 l 257
 1299 789 l 257
 1329 871 l 257
 985 871 l 257
1341 1152 m 257
 1210 791 l 257
 1302 791 l 257
 1433 1152 l 257
 1341 1152 l 257
931 436 m 257
 812 110 l 257
 890 110 l 257
 1009 436 l 257
 931 436 l 257
932 440 m 257
 898 345 l 257
 1246 345 l 257
 1280 440 l 257
 932 440 l 257
830 159 m 257
 800 77 l 257
 1144 77 l 257
 1174 159 l 257
 830 159 l 257
1188 440 m 257
 1057 79 l 257
 1149 79 l 257
 1280 440 l 257
 1188 440 l 257
EndSplineSet
EndChar

StartChar: peseta
Encoding: 636 8359 636
GlifName: peseta
Width: 2048
VWidth: 0
GlyphClass: 2
Flags: W
LayerCount: 2
Fore
SplineSet
1231 1550 m 257
 671 0 l 257
 721 0 l 257
 1281 1550 l 257
 1231 1550 l 257
1260 1550 m 257
 1241 1494 l 257
 1483 1494 l 257
 1503 1550 l 257
 1260 1550 l 257
1455 1550 m 257
 1212 881 l 257
 1267 881 l 257
 1510 1550 l 257
 1455 1550 l 257
1031 934 m 257
 1007 868 l 257
 1261 868 l 257
 1285 934 l 257
 1031 934 l 257
1599 1526 m 257
 1044 0 l 257
 1091 0 l 257
 1646 1526 l 257
 1599 1526 l 257
1071 68 m 257
 1047 0 l 257
 1176 0 l 257
 1200 68 l 257
 1071 68 l 257
1321 977 m 257
 1298 915 l 257
 1521 915 l 257
 1543 977 l 257
 1321 977 l 257
1448 609 m 257
 1431 563 l 257
 1585 563 l 257
 1602 609 l 257
 1448 609 l 257
1448 609 m 257
 1385 438 l 257
 1436 438 l 257
 1498 609 l 257
 1448 609 l 257
1248 61 m 257
 1225 0 l 257
 1379 0 l 257
 1402 61 l 257
 1248 61 l 257
1391 173 m 257
 1330 5 l 257
 1381 5 l 257
 1442 173 l 257
 1391 173 l 257
1385 438 m 257
 1391 173 l 257
 1442 173 l 257
 1436 438 l 257
 1385 438 l 257
EndSplineSet
EndChar

StartChar: phi
Encoding: 637 966 637
GlifName: phi
Width: 2048
VWidth: 0
GlyphClass: 2
Flags: W
LayerCount: 2
Fore
SplineSet
627 1023 m 257
 254 0 l 257
 314 0 l 257
 687 1023 l 257
 627 1023 l 257
2408 1023 m 257
 2035 0 l 257
 2095 0 l 257
 2468 1023 l 257
 2408 1023 l 257
638 1023 m 257
 565 963 l 257
 2384 963 l 257
 2457 1023 l 257
 638 1023 l 257
342 60 m 257
 269 0 l 257
 2074 0 l 257
 2147 60 l 257
 342 60 l 257
1583 1202 m 257
 995 -413 l 257
 1055 -413 l 257
 1643 1202 l 257
 1583 1202 l 257
EndSplineSet
EndChar

StartChar: phi1
Encoding: 638 981 638
GlifName: phiS_ymbol
Width: 2048
VWidth: 0
GlyphClass: 2
Flags: W
LayerCount: 2
Fore
SplineSet
365 1110 m 257
 -30 25 l 257
 30 25 l 257
 425 1110 l 257
 365 1110 l 257
-10 62 m 257
 -39 1 l 257
 1871 1 l 257
 1900 62 l 257
 -10 62 l 257
2228 1098 m 257
 1829 0 l 257
 1889 0 l 257
 2288 1098 l 257
 2228 1098 l 257
1269 1098 m 257
 1243 1038 l 257
 2257 1038 l 257
 2288 1098 l 257
 1269 1098 l 257
1252 1098 m 257
 669 -503 l 257
 730 -503 l 257
 1313 1098 l 257
 1252 1098 l 257
EndSplineSet
EndChar

StartChar: pi
Encoding: 640 960 640
GlifName: pi
Width: 2048
VWidth: 0
GlyphClass: 2
Flags: W
LayerCount: 2
Fore
SplineSet
560 990 m 257
 188 0 l 257
 248 0 l 257
 620 990 l 257
 560 990 l 257
2119 976 m 257
 1752 0 l 257
 1812 0 l 257
 2179 976 l 257
 2119 976 l 257
452 1023 m 257
 378 963 l 257
 2264 963 l 257
 2338 1023 l 257
 452 1023 l 257
EndSplineSet
EndChar

StartChar: plus
Encoding: 641 43 641
GlifName: plus
Width: 2048
VWidth: 0
GlyphClass: 2
Flags: W
LayerCount: 2
Fore
SplineSet
1390 1221 m 257
 1006 165 l 257
 1116 165 l 257
 1500 1221 l 257
 1390 1221 l 257
863 796 m 257
 825 693 l 257
 1727 693 l 257
 1765 796 l 257
 863 796 l 257
EndSplineSet
EndChar

StartChar: plusminus
Encoding: 642 177 642
GlifName: plusminus
Width: 2048
VWidth: 0
GlyphClass: 2
Flags: W
LayerCount: 2
Fore
SplineSet
651 110 m 257
 628 48 l 257
 1454 48 l 257
 1477 110 l 257
 651 110 l 257
1422 1221 m 257
 1061 228 l 257
 1122 228 l 257
 1483 1221 l 257
 1422 1221 l 257
844 744 m 257
 823 686 l 257
 1725 686 l 257
 1746 744 l 257
 844 744 l 257
EndSplineSet
EndChar

StartChar: product
Encoding: 644 8719 644
GlifName: product
Width: 2048
VWidth: 0
GlyphClass: 2
Flags: W
LayerCount: 2
Fore
SplineSet
925 1537 m 257
 366 0 l 257
 426 0 l 257
 985 1537 l 257
 925 1537 l 257
2176 1535 m 257
 1617 -2 l 257
 1678 0 l 257
 2237 1537 l 257
 2176 1535 l 257
592 1537 m 257
 520 1477 l 257
 2514 1477 l 257
 2586 1537 l 257
 592 1537 l 257
EndSplineSet
EndChar

StartChar: psi
Encoding: 645 968 645
GlifName: psi
Width: 2048
VWidth: 0
GlyphClass: 2
Flags: W
LayerCount: 2
Fore
SplineSet
1425 1015 m 257
 993 -129 l 257
 1053 -129 l 257
 1485 1015 l 257
 1425 1015 l 257
597 1020 m 257
 318 278 l 257
 378 278 l 257
 657 1020 l 257
 597 1020 l 257
2265 1020 m 257
 1986 278 l 257
 2046 278 l 257
 2325 1020 l 257
 2265 1020 l 257
393 338 m 257
 369 278 l 257
 1996 278 l 257
 2020 338 l 257
 393 338 l 257
EndSplineSet
EndChar

StartChar: q
Encoding: 649 113 649
GlifName: q
Width: 2048
VWidth: 0
GlyphClass: 2
Flags: W
AnchorPoint: "top" 1244 1244 basechar 0
AnchorPoint: "base" 836 -332 basechar 0
LayerCount: 2
Fore
SplineSet
1982 1188 m 257
 1401 -410 l 257
 1461 -410 l 257
 2042 1188 l 257
 1982 1188 l 257
518 1023 m 257
 496 961 l 257
 1944 961 l 257
 1966 1023 l 257
 518 1023 l 257
173 57 m 257
 152 0 l 257
 1568 0 l 257
 1589 57 l 257
 173 57 l 257
510 1023 m 257
 138 0 l 257
 196 0 l 257
 568 1023 l 257
 510 1023 l 257
1429 -344 m 257
 1405 -410 l 257
 1761 -410 l 257
 1785 -344 l 257
 1429 -344 l 257
EndSplineSet
EndChar

StartChar: question
Encoding: 650 63 650
GlifName: question
Width: 2048
VWidth: 0
GlyphClass: 2
Flags: W
LayerCount: 2
Fore
SplineSet
929 134 m 257
 880 0 l 257
 992 0 l 257
 1041 134 l 257
 929 134 l 257
1257 1519 m 257
 1223 1426 l 257
 1859 1426 l 257
 1893 1519 l 257
 1257 1519 l 257
1809 1514 m 257
 1610 966 l 257
 1696 966 l 257
 1895 1514 l 257
 1809 1514 l 257
1249 1015 m 257
 1225 948 l 257
 1689 948 l 257
 1713 1015 l 257
 1249 1015 l 257
1248 1011 m 257
 1023 392 l 257
 1119 392 l 257
 1344 1011 l 257
 1248 1011 l 257
EndSplineSet
EndChar

StartChar: questiondown
Encoding: 651 191 651
GlifName: questiondown
Width: 2048
VWidth: 0
GlyphClass: 2
Flags: W
LayerCount: 2
Fore
SplineSet
1631 1273 m 257
 1721 1519 l 257
 1663 1519 l 257
 1573 1272 l 257
 1631 1273 l 257
1344 0 m 257
 1366 61 l 257
 730 61 l 257
 708 0 l 257
 1344 0 l 257
766 5 m 257
 965 553 l 257
 905 553 l 257
 706 5 l 257
 766 5 l 257
1351 504 m 257
 1374 566 l 257
 910 566 l 257
 887 504 l 257
 1351 504 l 257
1353 508 m 257
 1578 1127 l 257
 1520 1127 l 257
 1295 508 l 257
 1353 508 l 257
EndSplineSet
EndChar

StartChar: quotedbl
Encoding: 653 34 653
GlifName: quotedbl
Width: 2048
VWidth: 0
GlyphClass: 2
Flags: W
LayerCount: 2
Fore
SplineSet
1275 1326 m 257
 1341 1326 l 257
 1431 1574 l 257
 1365 1574 l 257
 1275 1326 l 257
1679 1326 m 257
 1739 1326 l 257
 1829 1574 l 257
 1769 1574 l 257
 1679 1326 l 257
EndSplineSet
EndChar

StartChar: quotedblbase
Encoding: 654 8222 654
GlifName: quotedblbase
Width: 2048
VWidth: 0
GlyphClass: 2
Flags: W
LayerCount: 2
Fore
SplineSet
938 126 m 257
 895 8 l 257
 1004 8 l 257
 1047 126 l 257
 938 126 l 257
895 8 m 257
 779 -118 l 257
 829 -129 l 257
 1004 8 l 257
 895 8 l 257
1163 126 m 257
 1120 8 l 257
 1229 8 l 257
 1272 126 l 257
 1163 126 l 257
1120 8 m 257
 1004 -118 l 257
 1054 -129 l 257
 1229 8 l 257
 1120 8 l 257
EndSplineSet
EndChar

StartChar: quotedblleft
Encoding: 655 8220 655
GlifName: quotedblleft
Width: 2048
VWidth: 0
GlyphClass: 2
Flags: W
LayerCount: 2
Fore
SplineSet
1708 1953 m 257
 1749 2067 l 257
 1625 2067 l 257
 1584 1953 l 257
 1708 1953 l 257
1677 2004 m 257
 1787 2144 l 257
 1726 2174 l 257
 1627 2069 l 257
 1677 2004 l 257
1876 1953 m 257
 1917 2067 l 257
 1793 2067 l 257
 1752 1953 l 257
 1876 1953 l 257
1845 2004 m 257
 1955 2144 l 257
 1894 2174 l 257
 1795 2069 l 257
 1845 2004 l 257
EndSplineSet
EndChar

StartChar: quotedblright
Encoding: 656 8221 656
GlifName: quotedblright
Width: 2048
VWidth: 0
GlyphClass: 2
Flags: W
LayerCount: 2
Fore
SplineSet
1837 2174 m 257
 1796 2060 l 257
 1920 2060 l 257
 1961 2174 l 257
 1837 2174 l 257
1869 2123 m 257
 1759 1983 l 257
 1819 1953 l 257
 1918 2058 l 257
 1869 2123 l 257
1678 2174 m 257
 1637 2060 l 257
 1761 2060 l 257
 1802 2174 l 257
 1678 2174 l 257
1710 2123 m 257
 1600 1983 l 257
 1660 1953 l 257
 1759 2058 l 257
 1710 2123 l 257
EndSplineSet
EndChar

StartChar: quoteleft
Encoding: 657 8216 657
GlifName: quoteleft
Width: 2048
VWidth: 0
GlyphClass: 2
Flags: W
LayerCount: 2
Fore
SplineSet
1019 1085 m 257
 1079 1250 l 257
 948 1250 l 257
 890 1089 l 257
 1019 1085 l 257
1040 1238 m 257
 1182 1447 l 257
 1116 1457 l 257
 946 1226 l 257
 1040 1238 l 257
EndSplineSet
EndChar

StartChar: quoteright
Encoding: 658 8217 658
GlifName: quoteright
Width: 2048
VWidth: 0
GlyphClass: 2
Flags: W
LayerCount: 2
Fore
SplineSet
1755 2168 m 257
 1714 2056 l 257
 1830 2056 l 257
 1871 2168 l 257
 1755 2168 l 257
1804 2140 m 257
 1681 1927 l 257
 1719 1882 l 257
 1830 2056 l 257
 1804 2140 l 257
EndSplineSet
EndChar

StartChar: quotesinglbase
Encoding: 659 8218 659
GlifName: quotesinglbase
Width: 2048
VWidth: 0
GlyphClass: 2
Flags: W
LayerCount: 2
Fore
SplineSet
1050 126 m 257
 1007 8 l 257
 1117 8 l 257
 1160 126 l 257
 1050 126 l 257
1007 8 m 257
 891 -118 l 257
 941 -129 l 257
 1117 8 l 257
 1007 8 l 257
EndSplineSet
EndChar

StartChar: quotesingle
Encoding: 660 39 660
GlifName: quotesingle
Width: 2048
VWidth: 0
GlyphClass: 2
Flags: W
LayerCount: 2
Fore
SplineSet
1536 1496 m 257
 1471 1317 l 257
 1535 1317 l 257
 1600 1496 l 257
 1536 1496 l 257
EndSplineSet
EndChar

StartChar: r
Encoding: 661 114 661
GlifName: r
Width: 2048
VWidth: 0
GlyphClass: 2
Flags: W
AnchorPoint: "top" 1344 1214 basechar 0
AnchorPoint: "base" 876 -126 basechar 0
LayerCount: 2
Fore
SplineSet
518 1023 m 257
 496 961 l 257
 2252 961 l 257
 2274 1023 l 257
 518 1023 l 257
1232 989 m 257
 872 0 l 257
 932 0 l 257
 1292 989 l 257
 1232 989 l 257
2197 976 m 257
 2079 650 l 257
 2139 650 l 257
 2257 976 l 257
 2197 976 l 257
EndSplineSet
EndChar

StartChar: radical
Encoding: 663 8730 663
GlifName: radical
Width: 2048
VWidth: 0
GlyphClass: 2
Flags: W
LayerCount: 2
Fore
SplineSet
1330 1390 m 257
 1134 117 l 257
 1200 117 l 257
 1396 1390 l 257
 1330 1390 l 257
696 620 m 257
 622 396 l 257
 676 391 l 257
 768 611 l 257
 696 620 l 257
697 620 m 257
 1134 117 l 257
 1200 117 l 257
 768 611 l 257
 697 620 l 257
EndSplineSet
EndChar

StartChar: uni0264
Encoding: 664 612 664
GlifName: ramshorn
Width: 2048
VWidth: 0
GlyphClass: 2
Flags: W
AnchorPoint: "top" 1276 1140 basechar 0
LayerCount: 2
Fore
SplineSet
880 935 m 257
 1538 202 l 257
 1598 202 l 257
 940 935 l 257
 880 935 l 257
2424 965 m 257
 804 202 l 257
 864 202 l 257
 2485 965 l 257
 2424 965 l 257
731 143 m 257
 1525 142 l 257
 1599 202 l 257
 805 202 l 257
 731 143 l 257
EndSplineSet
EndChar

StartChar: registered
Encoding: 666 174 666
GlifName: registered
Width: 2048
VWidth: 0
GlyphClass: 2
Flags: W
LayerCount: 2
Fore
SplineSet
1285 1032 m 257
 1091 501 l 257
 1128 501 l 257
 1322 1032 l 257
 1285 1032 l 257
1310 1032 m 257
 1296 994 l 257
 1525 994 l 257
 1539 1032 l 257
 1310 1032 l 257
1510 1032 m 257
 1426 802 l 257
 1464 802 l 257
 1548 1032 l 257
 1510 1032 l 257
1239 848 m 257
 1222 801 l 257
 1460 801 l 257
 1477 848 l 257
 1239 848 l 257
1271 809 m 257
 1358 500 l 257
 1401 500 l 257
 1306 809 l 257
 1271 809 l 257
1114 1540 m 257
 553 0 l 257
 615 0 l 257
 1176 1540 l 257
 1114 1540 l 257
1992 1537 m 257
 1433 0 l 257
 1495 0 l 257
 2054 1537 l 257
 1992 1537 l 257
1152 1538 m 257
 1130 1478 l 257
 2002 1478 l 257
 2024 1538 l 257
 1152 1538 l 257
610 61 m 257
 588 0 l 257
 1480 0 l 257
 1502 61 l 257
 610 61 l 257
EndSplineSet
EndChar

StartChar: uni027F
Encoding: 667 639 667
GlifName: rfishhookreversed
Width: 2048
VWidth: 0
GlyphClass: 2
Flags: W
AnchorPoint: "top" 1344 1214 basechar 0
AnchorPoint: "base" 876 -126 basechar 0
LayerCount: 2
Fore
SplineSet
514 1023 m 257
 496 961 l 257
 1933 961 l 257
 1951 1023 l 257
 514 1023 l 257
1881 989 m 257
 1521 -492 l 257
 1581 -492 l 257
 1941 989 l 257
 1881 989 l 257
EndSplineSet
EndChar

StartChar: rho
Encoding: 668 961 668
GlifName: rho
Width: 2048
VWidth: 0
GlyphClass: 2
Flags: W
LayerCount: 2
Fore
SplineSet
759 1203 m 257
 173 -406 l 257
 233 -406 l 257
 819 1203 l 257
 759 1203 l 257
811 1203 m 257
 737 1139 l 257
 2281 959 l 257
 2354 1023 l 257
 811 1203 l 257
436 62 m 257
 363 0 l 257
 2036 147 l 257
 2110 209 l 257
 436 62 l 257
2242 1022 m 257
 2020 157 l 257
 2080 157 l 257
 2302 1022 l 257
 2242 1022 l 257
EndSplineSet
EndChar

StartChar: arrowright
Encoding: 669 8594 669
GlifName: rightA_rrow
Width: 2048
VWidth: 0
GlyphClass: 2
Flags: W
LayerCount: 2
Fore
SplineSet
2002 727 m 257
 2079 787 l 257
 286 787 l 257
 209 727 l 257
 2002 727 l 257
1505 426 m 257
 2106 758 l 257
 2031 758 l 257
 1430 426 l 257
 1505 426 l 257
2106 758 m 257
 1728 1091 l 257
 1653 1091 l 257
 2030 758 l 257
 2106 758 l 257
EndSplineSet
EndChar

StartChar: uni25B8
Encoding: 670 9656 670
GlifName: rightB_lackS_mallT_riangle
Width: 2048
VWidth: 0
GlyphClass: 2
Flags: W
LayerCount: 2
Fore
SplineSet
1291 639 m 257
 878 879 l 257
 875 395 l 257
 1291 639 l 257
EndSplineSet
EndChar

StartChar: uni25B6
Encoding: 671 9654 671
GlifName: rightB_lackT_riangle
Width: 2048
VWidth: 0
GlyphClass: 2
Flags: W
LayerCount: 2
Fore
SplineSet
1496 769 m 257
 808 1169 l 257
 804 361 l 257
 1496 769 l 257
EndSplineSet
EndChar

StartChar: uni25B9
Encoding: 672 9657 672
GlifName: rightW_hiteS_mallT_riangle
Width: 2048
VWidth: 0
GlyphClass: 2
Flags: W
LayerCount: 2
Fore
SplineSet
1353 665 m 257
 940 905 l 257
 937 421 l 257
 1353 665 l 257
1295 665 m 257
 963 469 l 257
 964 857 l 257
 1295 665 l 257
EndSplineSet
EndChar

StartChar: uni25B7
Encoding: 673 9655 673
GlifName: rightW_hiteT_riangle
Width: 2048
VWidth: 0
GlyphClass: 2
Flags: W
LayerCount: 2
Fore
SplineSet
1481 621 m 257
 793 1021 l 257
 789 213 l 257
 1481 621 l 257
1385 620 m 257
 831 294 l 257
 834 940 l 257
 1385 620 l 257
EndSplineSet
EndChar

StartChar: ring
Encoding: 674 730 674
GlifName: ring
Width: 2048
VWidth: 0
GlyphClass: 2
Flags: W
LayerCount: 2
Fore
SplineSet
1352 1302 m 257
 1642 1302 l 257
 1550 1049 l 257
 1260 1049 l 257
 1352 1302 l 257
1328 1331 m 257
 1216 1023 l 257
 1576 1023 l 257
 1688 1331 l 257
 1328 1331 l 257
EndSplineSet
EndChar

StartChar: uni0325
Encoding: 675 805 675
GlifName: ringbelowcomb
Width: 0
VWidth: 0
GlyphClass: 4
Flags: W
AnchorPoint: "base" -2 -14 mark 0
LayerCount: 2
Fore
SplineSet
-97 -189 m 257
 171 -189 l 257
 92 -405 l 257
 -176 -405 l 257
 -97 -189 l 257
-130 -145 m 257
 -242 -454 l 257
 118 -454 l 257
 230 -145 l 257
 -130 -145 l 257
EndSplineSet
EndChar

StartChar: s
Encoding: 682 115 682
GlifName: s
Width: 2048
VWidth: 0
GlyphClass: 2
Flags: W
AnchorPoint: "top" 1432 1134 basechar 0
AnchorPoint: "base" 1088 -162 basechar 0
LayerCount: 2
Fore
SplineSet
579 1023 m 257
 558 964 l 257
 2191 964 l 257
 2212 1023 l 257
 579 1023 l 257
579 1023 m 257
 475 736 l 257
 536 736 l 257
 640 1023 l 257
 579 1023 l 257
229 59 m 257
 208 0 l 257
 1837 0 l 257
 1858 59 l 257
 229 59 l 257
1884 299 m 257
 1779 12 l 257
 1842 12 l 257
 1947 299 l 257
 1884 299 l 257
475 736 m 257
 1884 299 l 257
 1947 299 l 257
 536 736 l 257
 475 736 l 257
EndSplineSet
EndChar

StartChar: uniA78C
Encoding: 684 42892 684
GlifName: saltillo
Width: 2048
VWidth: 0
GlyphClass: 2
Flags: W
LayerCount: 2
Fore
SplineSet
1293 1458 m 257
 1012 813 l 257
 1065 808 l 257
 1516 1458 l 257
 1293 1458 l 257
EndSplineSet
EndChar

StartChar: section
Encoding: 689 167 689
GlifName: section
Width: 2048
VWidth: 0
GlyphClass: 2
Flags: W
LayerCount: 2
Fore
SplineSet
1088 1237 m 257
 1067 1178 l 257
 1665 1178 l 257
 1686 1237 l 257
 1088 1237 l 257
1088 1237 m 257
 858 605 l 257
 921 605 l 257
 1151 1237 l 257
 1088 1237 l 257
602 -200 m 257
 580 -260 l 257
 1288 -260 l 257
 1310 -200 l 257
 602 -200 l 257
1256 -259 m 257
 1316 -259 l 257
 1445 95 l 257
 1385 95 l 257
 1256 -259 l 257
859 606 m 257
 1381 88 l 257
 1442 88 l 257
 917 606 l 257
 859 606 l 257
1230 1626 m 257
 1208 1566 l 257
 1806 1566 l 257
 1828 1626 l 257
 1230 1626 l 257
1231 1629 m 257
 1088 1237 l 257
 1151 1237 l 257
 1294 1629 l 257
 1231 1629 l 257
698 88 m 257
 680 39 l 257
 1388 39 l 257
 1406 88 l 257
 698 88 l 257
1381 88 m 257
 1442 88 l 257
 1571 442 l 257
 1510 442 l 257
 1381 88 l 257
1088 1237 m 257
 1511 442 l 257
 1571 442 l 257
 1151 1237 l 257
 1088 1237 l 257
EndSplineSet
EndChar

StartChar: semicolon
Encoding: 690 59 690
GlifName: semicolon
Width: 2048
VWidth: 0
GlyphClass: 2
Flags: W
LayerCount: 2
Fore
SplineSet
1016 164 m 257
 959 7 l 257
 1095 7 l 257
 1152 164 l 257
 1016 164 l 257
1089 135 m 257
 962 -99 l 257
 994 -148 l 257
 1099 26 l 257
 1089 135 l 257
1139 503 m 257
 1082 346 l 257
 1218 346 l 257
 1275 503 l 257
 1139 503 l 257
EndSplineSet
EndChar

StartChar: seven
Encoding: 692 55 692
GlifName: seven
Width: 2048
VWidth: 0
GlyphClass: 2
Flags: W
LayerCount: 2
Fore
SplineSet
598 1495 m 257
 2473 1495 l 257
 1929 0 l 257
 1991 0 l 257
 2558 1557 l 257
 621 1557 l 257
 598 1495 l 257
EndSplineSet
Substitution2: "supsSuperscriptinLatinlookup16 subtable" uni2077
EndChar

StartChar: uni0448
Encoding: 694 1096 694
GlifName: sha-cy
Width: 2048
VWidth: 0
Flags: W
LayerCount: 2
Fore
SplineSet
566 1021 m 257
 131 0 l 257
 191 0 l 257
 626 1021 l 257
 566 1021 l 257
2305 1029 m 257
 1867 0 l 257
 1927 0 l 257
 2365 1029 l 257
 2305 1029 l 257
204 60 m 257
 174 0 l 257
 1925 0 l 257
 1955 60 l 257
 204 60 l 257
1417 1021 m 257
 981 7 l 257
 1041 7 l 257
 1477 1021 l 257
 1417 1021 l 257
EndSplineSet
EndChar

StartChar: uni0449
Encoding: 695 1097 695
GlifName: shcha-cy
Width: 2048
VWidth: 0
Flags: W
LayerCount: 2
Fore
SplineSet
469 1021 m 257
 34 0 l 257
 94 0 l 257
 529 1021 l 257
 469 1021 l 257
2208 1029 m 257
 1770 0 l 257
 1830 0 l 257
 2268 1029 l 257
 2208 1029 l 257
108 60 m 257
 77 0 l 257
 1872 0 l 257
 1903 60 l 257
 108 60 l 257
1898 67 m 257
 1680 -401 l 257
 1740 -401 l 257
 1958 67 l 257
 1898 67 l 257
1320 1021 m 257
 884 7 l 257
 944 7 l 257
 1380 1021 l 257
 1320 1021 l 257
EndSplineSet
EndChar

StartChar: uni20AA
Encoding: 696 8362 696
GlifName: sheqel
Width: 2048
VWidth: 0
GlyphClass: 2
Flags: W
LayerCount: 2
Fore
SplineSet
1186 1534 m 257
 629 4 l 257
 697 4 l 257
 1254 1534 l 257
 1186 1534 l 257
1187 1538 m 257
 1130 1468 l 257
 1601 1468 l 257
 1658 1538 l 257
 1187 1538 l 257
1630 1538 m 257
 1653 1278 l 257
 1743 1277 l 257
 1726 1538 l 257
 1630 1538 l 257
1654 1278 m 257
 1437 673 l 257
 1523 673 l 257
 1743 1277 l 257
 1654 1278 l 257
1481 8 m 257
 2038 1538 l 257
 1959 1538 l 257
 1402 8 l 257
 1481 8 l 257
1480 4 m 257
 1537 66 l 257
 1066 66 l 257
 1009 4 l 257
 1480 4 l 257
1032 4 m 257
 1010 264 l 257
 924 265 l 257
 941 4 l 257
 1032 4 l 257
1010 264 m 257
 1226 869 l 257
 1144 869 l 257
 924 265 l 257
 1010 264 l 257
EndSplineSet
EndChar

StartChar: sigma
Encoding: 698 963 698
GlifName: sigma
Width: 2048
VWidth: 0
GlyphClass: 2
Flags: W
LayerCount: 2
Fore
SplineSet
423 1023 m 257
 38 0 l 257
 98 0 l 257
 483 1023 l 257
 423 1023 l 257
1890 1023 m 257
 1505 0 l 257
 1565 0 l 257
 1950 1023 l 257
 1890 1023 l 257
438 1023 m 257
 414 963 l 257
 2354 963 l 257
 2378 1023 l 257
 438 1023 l 257
81 60 m 257
 57 0 l 257
 1540 0 l 257
 1564 60 l 257
 81 60 l 257
EndSplineSet
EndChar

StartChar: sigma1
Encoding: 699 962 699
GlifName: sigmafinal
Width: 2048
VWidth: 0
GlyphClass: 2
Flags: W
LayerCount: 2
Fore
SplineSet
654 1023 m 257
 632 963 l 257
 2352 963 l 257
 2374 1023 l 257
 654 1023 l 257
642 984 m 257
 302 51 l 257
 363 53 l 257
 703 986 l 257
 642 984 l 257
362 113 m 257
 340 53 l 257
 2017 51 l 257
 2039 111 l 257
 362 113 l 257
1253 -264 m 257
 1231 -324 l 257
 1881 -324 l 257
 1903 -264 l 257
 1253 -264 l 257
1975 100 m 257
 1836 -284 l 257
 1896 -284 l 257
 2035 100 l 257
 1975 100 l 257
EndSplineSet
EndChar

StartChar: six
Encoding: 700 54 700
GlifName: six
Width: 2048
VWidth: 0
GlyphClass: 2
Flags: W
LayerCount: 2
Fore
SplineSet
605 1550 m 257
 114 201 l 257
 42 4 l 257
 2005 4 l 257
 2302 819 l 257
 401 819 l 257
 645 1488 l 257
 2551 1488 l 257
 2573 1550 l 257
 605 1550 l 257
2218 759 m 257
 1965 63 l 257
 132 63 l 257
 385 759 l 257
 2218 759 l 257
EndSplineSet
Substitution2: "supsSuperscriptinLatinlookup16 subtable" uni2076
EndChar

StartChar: slash
Encoding: 701 47 701
GlifName: slash
Width: 2048
VWidth: 0
GlyphClass: 2
Flags: W
LayerCount: 2
Fore
SplineSet
1805 1480 m 257
 683 10 l 257
 786 10 l 257
 1908 1480 l 257
 1805 1480 l 257
EndSplineSet
EndChar

StartChar: uni044C
Encoding: 703 1100 703
GlifName: softsign-cy
Width: 2048
VWidth: 0
Flags: W
AnchorPoint: "base" 1121 -189 basechar 0
AnchorPoint: "top" 814 1723 basechar 0
LayerCount: 2
Fore
SplineSet
481 1016 m 257
 47 0 l 257
 107 0 l 257
 541 1016 l 257
 481 1016 l 257
336 641 m 257
 314 580 l 257
 2137 580 l 257
 2159 641 l 257
 336 641 l 257
2146 641 m 257
 1895 0 l 257
 1955 0 l 257
 2206 641 l 257
 2146 641 l 257
104 60 m 257
 82 0 l 257
 1933 0 l 257
 1955 60 l 257
 104 60 l 257
EndSplineSet
EndChar

StartChar: uni2198
Encoding: 704 8600 704
GlifName: southE_astA_rrow
Width: 2048
VWidth: 0
GlyphClass: 2
Flags: W
LayerCount: 2
Fore
SplineSet
1732 139 m 257
 1829 127 l 257
 561 1395 l 257
 465 1407 l 257
 1732 139 l 257
1168 278 m 257
 1828 87 l 257
 1775 140 l 257
 1115 331 l 257
 1168 278 l 257
1828 87 m 257
 1796 590 l 257
 1743 643 l 257
 1774 141 l 257
 1828 87 l 257
EndSplineSet
EndChar

StartChar: uni2199
Encoding: 705 8601 705
GlifName: southW_estA_rrow
Width: 2048
VWidth: 0
GlyphClass: 2
Flags: W
LayerCount: 2
Fore
SplineSet
538 184 m 257
 526 87 l 257
 1794 1355 l 257
 1806 1451 l 257
 538 184 l 257
677 748 m 257
 486 88 l 257
 539 141 l 257
 730 801 l 257
 677 748 l 257
486 88 m 257
 989 120 l 257
 1042 173 l 257
 540 142 l 257
 486 88 l 257
EndSplineSet
EndChar

StartChar: sterling
Encoding: 707 163 707
GlifName: sterling
Width: 2048
VWidth: 0
GlyphClass: 2
Flags: W
LayerCount: 2
Fore
SplineSet
1509 1543 m 257
 1486 1482 l 257
 1675 1482 l 257
 1698 1543 l 257
 1509 1543 l 257
889 770 m 257
 866 705 l 257
 1592 705 l 257
 1615 770 l 257
 889 770 l 257
1484 1542 m 257
 924 3 l 257
 1000 3 l 257
 1560 1542 l 257
 1484 1542 l 257
739 72 m 257
 714 3 l 257
 1440 3 l 257
 1465 72 l 257
 739 72 l 257
EndSplineSet
EndChar

StartChar: summation
Encoding: 708 8721 708
GlifName: summation
Width: 2048
VWidth: 0
GlyphClass: 2
Flags: W
LayerCount: 2
Fore
SplineSet
1554 830 m 257
 133 -34 l 257
 105 -112 l 257
 1523 746 l 257
 1554 830 l 257
1553 823 m 257
 688.15 1539 l 257
 666.948 1478 l 257
 1524 743 l 257
 1553 823 l 257
2411.58 1477 m 257
 2433.42 1537 l 257
 687.422 1537 l 257
 665.584 1477 l 257
 2411.58 1477 l 257
1812 -98 m 257
 1834 -38 l 257
 147 -38 l 257
 125 -98 l 257
 1812 -98 l 257
EndSplineSet
EndChar

StartChar: t
Encoding: 709 116 709
GlifName: t
Width: 2048
VWidth: 0
GlyphClass: 2
Flags: W
AnchorPoint: "top" 1636 1706 basechar 0
AnchorPoint: "base" 996 -178 basechar 0
LayerCount: 2
Fore
SplineSet
1533 1529 m 257
 976 0 l 257
 1036 0 l 257
 1593 1529 l 257
 1533 1529 l 257
1010 60 m 257
 988 0 l 257
 1892 0 l 257
 1914 60 l 257
 1010 60 l 257
528 1023 m 257
 507 965 l 257
 2205 965 l 257
 2226 1023 l 257
 528 1023 l 257
EndSplineSet
EndChar

StartChar: tcaron
Encoding: 712 357 712
GlifName: tcaron
Width: 2048
VWidth: 0
GlyphClass: 2
Flags: W
AnchorPoint: "base" 1024 -78 basechar 0
LayerCount: 2
Fore
SplineSet
1533 1529 m 257
 976 0 l 257
 1036 0 l 257
 1593 1529 l 257
 1533 1529 l 257
1010 60 m 257
 988 0 l 257
 1892 0 l 257
 1914 60 l 257
 1010 60 l 257
528 1023 m 257
 507 965 l 257
 2205 965 l 257
 2226 1023 l 257
 528 1023 l 257
1710 1496 m 257
 1645 1317 l 257
 1707 1317 l 257
 1772 1496 l 257
 1710 1496 l 257
EndSplineSet
EndChar

StartChar: uni0236
Encoding: 714 566 714
GlifName: tcurl
Width: 2048
VWidth: 0
GlyphClass: 2
Flags: W
AnchorPoint: "top" 1636 1706 basechar 0
AnchorPoint: "base" 996 -178 basechar 0
LayerCount: 2
Fore
SplineSet
1533 1529 m 257
 976 0 l 257
 1036 0 l 257
 1593 1529 l 257
 1533 1529 l 257
1010 60 m 257
 988 0 l 257
 1892 0 l 257
 1914 60 l 257
 1010 60 l 257
528 1023 m 257
 507 965 l 257
 2205 965 l 257
 2226 1023 l 257
 528 1023 l 257
603 62 m 257
 582 4 l 257
 1855 494 l 257
 1855 552 l 257
 603 62 l 257
1855 0 m 257
 1915 0 l 257
 1915 539 l 257
 1855 552 l 257
 1855 0 l 257
EndSplineSet
EndChar

StartChar: uni0442
Encoding: 715 1090 715
GlifName: te-cy
Width: 2048
VWidth: 0
Flags: W
AnchorPoint: "top" 1640 1642 basechar 0
AnchorPoint: "base" 1053 -131 basechar 0
LayerCount: 2
Fore
SplineSet
482 1026 m 257
 461 967 l 257
 2269 967 l 257
 2290 1026 l 257
 482 1026 l 257
1413 985 m 257
 1010 12 l 257
 1070 12 l 257
 1473 985 l 257
 1413 985 l 257
EndSplineSet
EndChar

StartChar: theta
Encoding: 717 952 717
GlifName: theta
Width: 2048
VWidth: 0
GlyphClass: 2
Flags: W
LayerCount: 2
Fore
SplineSet
188 838 m 257
 116 778 l 257
 1883 771 l 257
 1956 831 l 257
 188 838 l 257
332 1397 m 257
 1214 1480 l 257
 2076 1403 l 257
 1719 194 l 257
 789 101 l 257
 -22 194 l 257
 332 1397 l 257
327 1425 m 257
 -133 163 l 257
 732 7 l 257
 1728 163 l 257
 2190 1431 l 257
 1267 1559 l 257
 327 1425 l 257
EndSplineSet
EndChar

StartChar: uni01AD
Encoding: 718 429 718
GlifName: thook
Width: 2048
VWidth: 0
GlyphClass: 2
Flags: W
AnchorPoint: "top" 1636 1706 basechar 0
AnchorPoint: "base" 996 -178 basechar 0
LayerCount: 2
Fore
SplineSet
1533 1529 m 257
 976 0 l 257
 1036 0 l 257
 1593 1529 l 257
 1533 1529 l 257
1010 60 m 257
 988 0 l 257
 1892 0 l 257
 1914 60 l 257
 1010 60 l 257
528 1023 m 257
 507 965 l 257
 2205 965 l 257
 2226 1023 l 257
 528 1023 l 257
1877.85 1259.93 m 257
 1547.76 1588.28 l 257
 1528.56 1532.49 l 257
 1856.75 1204.79 l 257
 1877.85 1259.93 l 257
1547.76 1588.28 m 257
 1451.4 1308.41 l 257
 1484.36 1219.85 l 257
 1580.73 1499.72 l 257
 1547.76 1588.28 l 257
EndSplineSet
EndChar

StartChar: thorn
Encoding: 719 254 719
GlifName: thorn
Width: 2048
VWidth: 0
GlyphClass: 2
Flags: W
AnchorPoint: "base" 776 -491 basechar 0
LayerCount: 2
Fore
SplineSet
530 1630 m 257
 6 -406 l 257
 64 -406 l 257
 588 1630 l 257
 530 1630 l 257
449 1012 m 257
 426 950 l 257
 2114 950 l 257
 2137 1012 l 257
 449 1012 l 257
143 63 m 257
 121 3 l 257
 1823 3 l 257
 1845 63 l 257
 143 63 l 257
2069 991 m 257
 1772 28 l 257
 1832 28 l 257
 2129 991 l 257
 2069 991 l 257
EndSplineSet
EndChar

StartChar: three
Encoding: 720 51 720
GlifName: three
Width: 2048
VWidth: 0
GlyphClass: 2
Flags: W
LayerCount: 2
Fore
SplineSet
369 736 m 257
 2195 736 l 257
 1946 52 l 257
 78 52 l 257
 65 -8 l 257
 1984 -8 l 257
 2551 1550 l 257
 653 1550 l 257
 632 1493 l 257
 2468 1493 l 257
 2215 796 l 257
 391 796 l 257
 369 736 l 257
EndSplineSet
Substitution2: "supsSuperscriptinLatinlookup16 subtable" uni00B3
EndChar

StartChar: tilde
Encoding: 723 732 723
GlifName: tilde
Width: 2048
VWidth: 0
GlyphClass: 2
Flags: W
LayerCount: 2
Fore
SplineSet
980 279 m 257
 961 229 l 257
 1286 158 l 257
 1304 208 l 257
 980 279 l 257
719 223 m 257
 712 165 l 257
 961 229 l 257
 980 279 l 257
 719 223 l 257
1304 208 m 257
 1286 158 l 257
 1522 309 l 257
 1526 356 l 257
 1304 208 l 257
EndSplineSet
EndChar

StartChar: tildecomb
Encoding: 725 771 725
GlifName: tildecomb
Width: 0
VWidth: 0
GlyphClass: 4
Flags: W
AnchorPoint: "top" 7 773 mark 0
LayerCount: 2
Fore
SplineSet
-150 937 m 257
 -168 887 l 257
 156 816 l 257
 174 866 l 257
 -150 937 l 257
-411 881 m 257
 -418 823 l 257
 -168 887 l 257
 -150 937 l 257
 -411 881 l 257
174 866 m 257
 156 816 l 257
 393 967 l 257
 396 1014 l 257
 174 866 l 257
EndSplineSet
EndChar

StartChar: tonos
Encoding: 727 900 727
GlifName: tonos
Width: 2048
VWidth: 0
GlyphClass: 2
Flags: W
AnchorPoint: "top" -1 785 mark 0
LayerCount: 2
Fore
SplineSet
1055 1234 m 257
 925 980 l 257
 962 949 l 257
 1093 1204 l 257
 1055 1234 l 257
EndSplineSet
EndChar

StartChar: uni0288
Encoding: 729 648 729
GlifName: tretroflexhook
Width: 2048
VWidth: 0
GlyphClass: 2
Flags: W
AnchorPoint: "top" 1636 1706 basechar 0
AnchorPoint: "base" 1017 -583 basechar 0
LayerCount: 2
Fore
SplineSet
1533 1529 m 257
 976 -423 l 257
 1036 -423 l 257
 1593 1529 l 257
 1533 1529 l 257
1010 -363 m 257
 988 -423 l 257
 1892 -423 l 257
 1914 -363 l 257
 1010 -363 l 257
528 1023 m 257
 507 965 l 257
 2205 965 l 257
 2226 1023 l 257
 528 1023 l 257
EndSplineSet
EndChar

StartChar: uni0446
Encoding: 730 1094 730
GlifName: tse-cy
Width: 2048
VWidth: 0
Flags: W
LayerCount: 2
Fore
SplineSet
425 1024 m 257
 36 3 l 257
 96 3 l 257
 485 1024 l 257
 425 1024 l 257
2162 1029 m 257
 1770 0 l 257
 1830 0 l 257
 2222 1029 l 257
 2162 1029 l 257
117 60 m 257
 86 0 l 257
 1872 0 l 257
 1903 60 l 257
 117 60 l 257
1898 67 m 257
 1680 -401 l 257
 1740 -401 l 257
 1958 67 l 257
 1898 67 l 257
EndSplineSet
EndChar

StartChar: uni045B
Encoding: 731 1115 731
GlifName: tshe-cy
Width: 2048
VWidth: 0
Flags: W
LayerCount: 2
Fore
SplineSet
616 1365 m 257
 573 1305 l 257
 2129 1305 l 257
 2172 1365 l 257
 616 1365 l 257
1381 1544 m 257
 819 -1 l 257
 879 -1 l 257
 1441 1544 l 257
 1381 1544 l 257
1194 994 m 257
 1170 934 l 257
 2295 934 l 257
 2319 994 l 257
 1194 994 l 257
2257 989 m 257
 1897 0 l 257
 1957 0 l 257
 2317 989 l 257
 2257 989 l 257
EndSplineSet
EndChar

StartChar: two
Encoding: 733 50 733
GlifName: two
Width: 2048
VWidth: 0
GlyphClass: 2
Flags: W
LayerCount: 2
Fore
SplineSet
649 1484 m 257
 2422 1484 l 257
 2212 908 l 257
 446 908 l 257
 116 0 l 257
 1928 0 l 257
 1949 59 l 257
 197 59 l 257
 485 849 l 257
 2251 849 l 257
 2504 1544 l 257
 671 1544 l 257
 649 1484 l 257
EndSplineSet
Substitution2: "supsSuperscriptinLatinlookup16 subtable" uni00B2
EndChar

StartChar: u
Encoding: 735 117 735
GlifName: u
Width: 2048
VWidth: 0
GlyphClass: 2
Flags: W
AnchorPoint: "top" 1272 1158 basechar 0
AnchorPoint: "base" 948 -186 basechar 0
LayerCount: 2
Fore
SplineSet
514 1034 m 257
 138 0 l 257
 198 0 l 257
 574 1034 l 257
 514 1034 l 257
1888 1033 m 257
 1513 4 l 257
 1571 4 l 257
 1946 1033 l 257
 1888 1033 l 257
206 61 m 257
 184 0 l 257
 1910 0 l 257
 1932 61 l 257
 206 61 l 257
EndSplineSet
EndChar

StartChar: underscore
Encoding: 747 95 747
GlifName: underscore
Width: 2048
VWidth: 0
GlyphClass: 2
Flags: W
LayerCount: 2
Fore
SplineSet
0 0 m 257
 -15 -40 l 257
 2033 -40 l 257
 2048 0 l 257
 0 0 l 257
EndSplineSet
EndChar

StartChar: uni018F
Encoding: 765 399 765
GlifName: uni018F_
Width: 2048
VWidth: 0
GlyphClass: 2
Flags: W
AnchorPoint: "top" 1567 1614 basechar 0
AnchorPoint: "base" 989 -101 basechar 0
LayerCount: 2
Fore
SplineSet
1828 0 m 257
 1857 61 l 257
 294 61 l 257
 265 0 l 257
 1828 0 l 257
1878 0 m 257
 2440 1543 l 257
 2364 1543 l 257
 1802 0 l 257
 1878 0 l 257
2346 1483 m 257
 2371 1543 l 257
 732 1543 l 257
 707 1483 l 257
 2346 1483 l 257
2100 807 m 257
 2124 868 l 257
 446 868 l 257
 422 807 l 257
 2100 807 l 257
355 30 m 257
 500 869 l 257
 423 869 l 257
 278 30 l 257
 355 30 l 257
EndSplineSet
EndChar

StartChar: florin
Encoding: 766 402 766
GlifName: uni0192
Width: 2048
VWidth: 0
GlyphClass: 2
Flags: W
LayerCount: 2
Fore
SplineSet
1346 1023 m 257
 826 -406 l 257
 888 -406 l 257
 1408 1023 l 257
 1346 1023 l 257
1374 1023 m 257
 1354 966 l 257
 2146 966 l 257
 2166 1023 l 257
 1374 1023 l 257
519 559 m 257
 498 500 l 257
 1716 500 l 257
 1737 559 l 257
 519 559 l 257
128 -345 m 257
 106 -406 l 257
 880 -406 l 257
 902 -345 l 257
 128 -345 l 257
EndSplineSet
EndChar

StartChar: uni0237
Encoding: 847 567 847
GlifName: uni0237
Width: 2048
VWidth: 0
GlyphClass: 2
Flags: W
AnchorPoint: "top" 2196 1098 basechar 0
LayerCount: 2
Fore
SplineSet
2164 1023 m 257
 1642 -411 l 257
 1700 -411 l 257
 2222 1023 l 257
 2164 1023 l 257
71 -348 m 257
 49 -409 l 257
 1663 -409 l 257
 1685 -348 l 257
 71 -348 l 257
196 -6 m 257
 60 -378 l 257
 120 -378 l 257
 256 -6 l 257
 196 -6 l 257
EndSplineSet
EndChar

StartChar: uni0259
Encoding: 848 601 848
GlifName: uni0259
Width: 2048
VWidth: 0
GlyphClass: 2
Flags: W
AnchorPoint: "top" 1413 1189 basechar 0
AnchorPoint: "base" 994 -139 basechar 0
LayerCount: 2
Fore
SplineSet
1828 0 m 257
 1867 60 l 257
 303 127 l 257
 264 67 l 257
 1828 0 l 257
1837 0 m 257
 2209 1023 l 257
 2149 1023 l 257
 1777 0 l 257
 1837 0 l 257
2109 963 m 257
 2148 1023 l 257
 542 1023 l 257
 503 963 l 257
 2109 963 l 257
1988 517 m 257
 2018 577 l 257
 404 577 l 257
 374 517 l 257
 1988 517 l 257
338 97 m 257
 442 578 l 257
 381 578 l 257
 277 97 l 257
 338 97 l 257
EndSplineSet
EndChar

StartChar: uni02C9
Encoding: 852 713 852
GlifName: uni02C_9
Width: 2048
VWidth: 0
GlyphClass: 2
Flags: W
LayerCount: 2
Fore
SplineSet
1337 1630 m 257
 1308 1550 l 257
 1868 1550 l 257
 1897 1630 l 257
 1337 1630 l 257
EndSplineSet
EndChar

StartChar: uni02CA
Encoding: 853 714 853
GlifName: uni02C_A_
Width: 2048
VWidth: 0
GlyphClass: 2
Flags: W
LayerCount: 2
Fore
SplineSet
1382 949 m 257
 1236 764 l 257
 1277 730 l 257
 1423 915 l 257
 1382 949 l 257
EndSplineSet
EndChar

StartChar: uni02CB
Encoding: 854 715 854
GlifName: uni02C_B_
Width: 2048
VWidth: 0
GlyphClass: 2
Flags: W
LayerCount: 2
Fore
SplineSet
1251 877 m 257
 1301 673 l 257
 1381 727 l 257
 1331 932 l 257
 1251 877 l 257
EndSplineSet
EndChar

StartChar: uni0302
Encoding: 855 770 855
GlifName: uni0302
Width: 0
VWidth: 0
GlyphClass: 4
Flags: W
AnchorPoint: "top" -5 781 mark 0
LayerCount: 2
Fore
SplineSet
237 1119 m 257
 201 1119 l 257
 -157 809 l 257
 -142 792 l 257
 237 1119 l 257
205 1121 m 257
 125 788 l 257
 179 806 l 257
 242 1121 l 257
 205 1121 l 257
EndSplineSet
EndChar

StartChar: uni0304
Encoding: 856 772 856
GlifName: uni0304
Width: 0
VWidth: 0
GlyphClass: 4
Flags: W
AnchorPoint: "top" 2 768 mark 0
LayerCount: 2
Fore
SplineSet
-450 874 m 257
 -493 794 l 257
 347 794 l 257
 390 874 l 257
 -450 874 l 257
EndSplineSet
EndChar

StartChar: uni0305
Encoding: 857 773 857
GlifName: uni0305
Width: 0
VWidth: 0
GlyphClass: 4
Flags: W
AnchorPoint: "top" 530 1460 mark 0
LayerCount: 2
Fore
SplineSet
112 1602 m 257
 112 1542 l 257
 1007 1542 l 257
 1007 1602 l 257
 112 1602 l 257
EndSplineSet
EndChar

StartChar: uni0306
Encoding: 858 774 858
GlifName: uni0306
Width: 0
VWidth: 0
GlyphClass: 4
Flags: W
AnchorPoint: "top" 3 788 mark 0
LayerCount: 2
Fore
SplineSet
181 875 m 257
 155 805 l 257
 346 875 l 257
 380 970 l 257
 181 875 l 257
-143 875 m 257
 -169 805 l 257
 155 805 l 257
 181 875 l 257
 -143 875 l 257
-285 955 m 257
 -314 875 l 257
 -169 805 l 257
 -143 875 l 257
 -285 955 l 257
EndSplineSet
EndChar

StartChar: uni0307
Encoding: 859 775 859
GlifName: uni0307
Width: 0
VWidth: 0
GlyphClass: 4
Flags: W
AnchorPoint: "top" -14 784 mark 0
LayerCount: 2
Fore
SplineSet
-36 892 m 257
 -73 791 l 257
 39 791 l 257
 76 892 l 257
 -36 892 l 257
EndSplineSet
EndChar

StartChar: uni0308
Encoding: 860 776 860
GlifName: uni0308
Width: 0
VWidth: 0
GlyphClass: 4
Flags: W
AnchorPoint: "top" 584 1561 mark 0
LayerCount: 2
Fore
SplineSet
456 1738 m 257
 419 1637 l 257
 531 1637 l 257
 568 1738 l 257
 456 1738 l 257
698 1738 m 257
 661 1637 l 257
 773 1637 l 257
 810 1738 l 257
 698 1738 l 257
EndSplineSet
EndChar

StartChar: uni030A
Encoding: 861 778 861
GlifName: uni030A_
Width: 0
VWidth: 0
GlyphClass: 4
Flags: W
HStem: 1538 309<492 492 492 740 740 740>
AnchorPoint: "top" 531 1464 mark 0
LayerCount: 2
Fore
SplineSet
525 1803 m 257
 793 1803 l 257
 714 1587 l 257
 446 1587 l 257
 525 1803 l 257
492 1847 m 257
 380 1538 l 257
 740 1538 l 257
 852 1847 l 257
 492 1847 l 257
EndSplineSet
PickledDataWithLists: "(dp0
Vcom.fontlab.hintData
p1
(dp2
Vhhints
p3
(lp4
(dp5
Vposition
p6
I1538
sVwidth
p7
I309
sass."
EndChar

StartChar: uni030B
Encoding: 862 779 862
GlifName: uni030B_
Width: 0
VWidth: 0
GlyphClass: 4
Flags: W
AnchorPoint: "top" 2 774 mark 0
LayerCount: 2
Fore
SplineSet
-274 784 m 257
 -208 784 l 257
 -27 1032 l 257
 -93 1032 l 257
 -274 784 l 257
130 784 m 257
 190 784 l 257
 371 1032 l 257
 311 1032 l 257
 130 784 l 257
EndSplineSet
EndChar

StartChar: uni030C
Encoding: 863 780 863
GlifName: uni030C_
Width: 0
VWidth: 0
GlyphClass: 4
Flags: W
AnchorPoint: "top" -17 745 mark 0
LayerCount: 2
Fore
SplineSet
12 804 m 257
 -10 1131 l 257
 -43 1114 l 257
 -24 805 l 257
 12 804 l 257
-22 803 m 257
 15 803 l 257
 296 1118 l 257
 262 1136 l 257
 -22 803 l 257
EndSplineSet
EndChar

StartChar: uni030F
Encoding: 864 783 864
GlifName: uni030F_
Width: 0
VWidth: 0
GlyphClass: 4
Flags: W
AnchorPoint: "top" -18 778 mark 0
LayerCount: 2
Fore
SplineSet
-25 1031 m 257
 95 795 l 257
 122 841 l 257
 3 1078 l 257
 -25 1031 l 257
-243 1031 m 257
 -123 795 l 257
 -93 834 l 257
 -212 1071 l 257
 -243 1031 l 257
EndSplineSet
EndChar

StartChar: uni0311
Encoding: 866 785 866
GlifName: uni0311
Width: 0
VWidth: 0
GlyphClass: 4
Flags: W
AnchorPoint: "top" -1 783 mark 0
LayerCount: 2
Fore
SplineSet
-187 843 m 257
 -187 911 l 257
 -352 843 l 257
 -352 746 l 257
 -187 843 l 257
137 843 m 257
 137 911 l 257
 -187 911 l 257
 -187 843 l 257
 137 843 l 257
308 761 m 257
 308 843 l 257
 137 911 l 257
 137 843 l 257
 308 761 l 257
EndSplineSet
EndChar

StartChar: uni0312
Encoding: 867 786 867
GlifName: uni0312
Width: 0
VWidth: 0
GlyphClass: 4
Flags: W
AnchorPoint: "top" 8 1497 mark 0
LayerCount: 2
Fore
SplineSet
-47 1560 m 257
 66 1560 l 257
 66 1789 l 257
 -47 1789 l 257
 -47 1560 l 257
5 1662 m 257
 66 1791 l 257
 -58 2003 l 257
 -89 1967 l 257
 5 1662 l 257
EndSplineSet
EndChar

StartChar: uni031B
Encoding: 868 795 868
GlifName: uni031B_
Width: 0
VWidth: 0
GlyphClass: 4
Flags: W
AnchorPoint: "top" 3 772 mark 0
LayerCount: 2
Fore
SplineSet
-56 1103 m 257
 -56 946 l 257
 80 946 l 257
 80 1103 l 257
 -56 1103 l 257
28 1073 m 257
 -14 839 l 257
 36 790 l 257
 78 964 l 257
 28 1073 l 257
EndSplineSet
EndChar

StartChar: uni0324
Encoding: 869 804 869
GlifName: uni0324
Width: 0
VWidth: 0
GlyphClass: 4
Flags: W
AnchorPoint: "base" -89 -234 mark 0
LayerCount: 2
Fore
SplineSet
-10 -255 m 257
 -55 -378 l 257
 77 -378 l 257
 122 -255 l 257
 -10 -255 l 257
-308 -265 m 257
 -353 -388 l 257
 -221 -388 l 257
 -176 -265 l 257
 -308 -265 l 257
EndSplineSet
EndChar

StartChar: uni0326
Encoding: 870 806 870
GlifName: uni0326
Width: 0
VWidth: 0
GlyphClass: 4
Flags: W
AnchorPoint: "base" 22 -5 mark 0
LayerCount: 2
Fore
SplineSet
990 0 m 257
 942 -132 l 257
 1054 -132 l 257
 1102 0 l 257
 990 0 l 257
942 -132 m 257
 856 -246 l 257
 911 -273 l 257
 1054 -132 l 257
 942 -132 l 257
EndSplineSet
EndChar

StartChar: uni0327
Encoding: 871 807 871
GlifName: uni0327
Width: 0
VWidth: 0
GlyphClass: 4
Flags: W
AnchorPoint: "base" 15 151 mark 0
LayerCount: 2
Fore
SplineSet
-12 134 m 257
 -100 -106 l 257
 -42 -106 l 257
 46 134 l 257
 -12 134 l 257
-198 -393 m 257
 -220 -452 l 257
 226 -452 l 257
 248 -393 l 257
 -198 -393 l 257
315 -46 m 257
 180 -418 l 257
 239 -418 l 257
 374 -46 l 257
 315 -46 l 257
-72 -46 m 257
 -94 -106 l 257
 352 -106 l 257
 374 -46 l 257
 -72 -46 l 257
EndSplineSet
EndChar

StartChar: uni0328
Encoding: 872 808 872
GlifName: uni0328
Width: 0
VWidth: 0
GlyphClass: 4
Flags: W
AnchorPoint: "base" -167 0 mark 0
LayerCount: 2
Fore
SplineSet
625 -351 m 257
 603 -411 l 257
 1144 -411 l 257
 1166 -351 l 257
 625 -351 l 257
753 0 m 257
 603 -411 l 257
 663 -411 l 257
 813 0 l 257
 753 0 l 257
753 0 m 257
 732 -59 l 257
 1274 -59 l 257
 1295 0 l 257
 753 0 l 257
EndSplineSet
EndChar

StartChar: uni0329
Encoding: 873 809 873
GlifName: uni0329
Width: 0
VWidth: 0
GlyphClass: 4
Flags: W
AnchorPoint: "base" 4 -39 mark 0
LayerCount: 2
Fore
SplineSet
32 -76 m 257
 -92 -419 l 257
 -30 -419 l 257
 94 -76 l 257
 32 -76 l 257
EndSplineSet
EndChar

StartChar: uni032E
Encoding: 874 814 874
GlifName: uni032E_
Width: 0
VWidth: 0
GlyphClass: 4
Flags: W
AnchorPoint: "base" -9 -4 mark 0
LayerCount: 2
Fore
SplineSet
134 -173 m 257
 109 -241 l 257
 299 -173 l 257
 334 -76 l 257
 134 -173 l 257
-190 -173 m 257
 -215 -241 l 257
 109 -241 l 257
 134 -173 l 257
 -190 -173 l 257
-331 -91 m 257
 -361 -173 l 257
 -215 -241 l 257
 -190 -173 l 257
 -331 -91 l 257
EndSplineSet
EndChar

StartChar: uni0331
Encoding: 875 817 875
GlifName: uni0331
Width: 0
VWidth: 0
GlyphClass: 4
Flags: W
AnchorPoint: "base" -70 -201 mark 0
LayerCount: 2
Fore
SplineSet
-626 -204 m 257
 -658 -248 l 257
 462 -248 l 257
 494 -204 l 257
 -626 -204 l 257
EndSplineSet
EndChar

StartChar: uni0335
Encoding: 877 821 877
GlifName: uni0335
Width: 0
VWidth: 0
GlyphClass: 4
Flags: W
AnchorPoint: "base" -55 -163 mark 0
LayerCount: 2
Fore
SplineSet
-206 1013 m 257
 -235 935 l 257
 325 935 l 257
 354 1013 l 257
 -206 1013 l 257
EndSplineSet
EndChar

StartChar: uni0345
Encoding: 878 837 878
GlifName: uni0345
Width: 0
VWidth: 0
GlyphClass: 4
Flags: W
LayerCount: 2
Fore
SplineSet
200 -107 m 257
 116 -338 l 257
 176 -338 l 257
 260 -107 l 257
 200 -107 l 257
115 -338 m 257
 93 -391 l 257
 279 -356 l 257
 302 -303 l 257
 115 -338 l 257
EndSplineSet
EndChar

StartChar: uni0394
Encoding: 879 916 879
GlifName: uni0394
Width: 2048
VWidth: 0
GlyphClass: 2
Flags: W
LayerCount: 2
Fore
SplineSet
145.746 57 m 257
 125 0 l 257
 1923 0 l 257
 1943.75 57 l 257
 145.746 57 l 257
1941 0 m 257
 1653.43 1548 l 257
 1581.43 1548 l 257
 1889 0 l 257
 1941 0 l 257
155 0 m 257
 1586.43 1548 l 257
 1515.43 1548 l 257
 106 0 l 257
 155 0 l 257
EndSplineSet
EndChar

StartChar: uni03A9
Encoding: 880 937 880
GlifName: uni03A_9
Width: 2048
VWidth: 0
GlyphClass: 2
Flags: W
LayerCount: 2
Fore
SplineSet
1528.73 557 m 257
 1347.47 59 l 257
 1407.47 59 l 257
 1588.73 557 l 257
 1528.73 557 l 257
867.731 557 m 257
 686.475 59 l 257
 746.475 59 l 257
 927.731 557 l 257
 867.731 557 l 257
1351.11 69 m 257
 1329.28 9 l 257
 1942.28 9 l 257
 1964.11 69 l 257
 1351.11 69 l 257
137.114 69 m 257
 115.275 9 l 257
 728.275 9 l 257
 750.114 69 l 257
 137.114 69 l 257
1550 617 m 257
 1528 555 l 257
 2136 555 l 257
 2159 617 l 257
 1550 617 l 257
669.422 1537 m 257
 316.007 566 l 257
 376.007 566 l 257
 729.422 1537 l 257
 669.422 1537 l 257
2433.42 1537 m 257
 2080.01 566 l 257
 2140.01 566 l 257
 2493.42 1537 l 257
 2433.42 1537 l 257
719.422 1537 m 257
 697.584 1477 l 257
 2433.58 1477 l 257
 2455.42 1537 l 257
 719.422 1537 l 257
334.386 611 m 257
 314.004 555 l 257
 927.004 555 l 257
 947.386 611 l 257
 334.386 611 l 257
EndSplineSet
EndChar

StartChar: uni0900
Encoding: 917 2304 917
GlifName: uni0900
Width: 0
VWidth: 0
GlyphClass: 4
Flags: W
AnchorPoint: "abvm_deva" 42 1648 mark 0
LayerCount: 2
Fore
SplineSet
229 2127 m 257
 54 1645 l 257
 114 1645 l 257
 289 2127 l 257
 229 2127 l 257
244 2128 m 257
 222 2067 l 257
 835 2067 l 257
 857 2128 l 257
 244 2128 l 257
442 1925 m 257
 397 1802 l 257
 514 1802 l 257
 559 1925 l 257
 442 1925 l 257
835 2128 m 257
 658 1642 l 257
 718 1642 l 257
 895 2128 l 257
 835 2128 l 257
EndSplineSet
EndChar

StartChar: uni0901
Encoding: 918 2305 918
GlifName: uni0901
Width: 0
VWidth: 0
GlyphClass: 4
Flags: W
AnchorPoint: "abvm_deva" 0 1618 mark 0
LayerCount: 2
Fore
SplineSet
158 2130 m 257
 -18 1645 l 257
 42 1645 l 257
 218 2130 l 257
 158 2130 l 257
38 1705 m 257
 17 1645 l 257
 651 1645 l 257
 672 1705 l 257
 38 1705 l 257
401 1968 m 257
 356 1845 l 257
 473 1845 l 257
 518 1968 l 257
 401 1968 l 257
798 2136 m 257
 620 1645 l 257
 680 1645 l 257
 858 2136 l 257
 798 2136 l 257
EndSplineSet
EndChar

StartChar: uni0902
Encoding: 919 2306 919
GlifName: uni0902
Width: 0
VWidth: 0
GlyphClass: 4
Flags: W
AnchorPoint: "abvm_deva" -301 1607 mark 0
LayerCount: 2
Fore
SplineSet
-28 1763 m 257
 -71 1643 l 257
 49 1643 l 257
 92 1763 l 257
 -28 1763 l 257
EndSplineSet
EndChar

StartChar: uni0903
Encoding: 920 2307 920
GlifName: uni0903
Width: 2048
VWidth: 0
GlyphClass: 2
Flags: W
LayerCount: 2
Fore
SplineSet
1078 261 m 257
 1034 141 l 257
 1154 141 l 257
 1198 261 l 257
 1078 261 l 257
1368 1162 m 257
 1323 1039 l 257
 1440 1039 l 257
 1485 1162 l 257
 1368 1162 l 257
EndSplineSet
EndChar

StartChar: uni0904
Encoding: 921 2308 921
GlifName: uni0904
Width: 2048
VWidth: 0
GlyphClass: 2
Flags: W
AnchorPoint: "abvm_deva" 1878 1914 basechar 0
LayerCount: 2
Fore
SplineSet
1522 2062 m 257
 1435 1823 l 257
 1496 1823 l 257
 1583 2062 l 257
 1522 2062 l 257
1449 1866 m 257
 1428 1809 l 257
 2423 1809 l 257
 2444 1866 l 257
 1449 1866 l 257
2383 1863 m 257
 2267 1545 l 257
 2327 1545 l 257
 2443 1863 l 257
 2383 1863 l 257
1805 1550 m 257
 1783 1488 l 257
 2592 1488 l 257
 2614 1550 l 257
 1805 1550 l 257
2285 1518 m 257
 1732 0 l 257
 1793 0 l 257
 2346 1518 l 257
 2285 1518 l 257
606 1547 m 257
 584 1487 l 257
 1619 1487 l 257
 1641 1547 l 257
 606 1547 l 257
1609 1550 m 257
 1057 34 l 257
 1116 34 l 257
 1668 1550 l 257
 1609 1550 l 257
452 894 m 257
 431 835 l 257
 2063 835 l 257
 2084 894 l 257
 452 894 l 257
42 65 m 257
 18 0 l 257
 1104 0 l 257
 1128 65 l 257
 42 65 l 257
EndSplineSet
EndChar

StartChar: uni0905
Encoding: 922 2309 922
GlifName: uni0905
Width: 2048
VWidth: 0
GlyphClass: 2
Flags: W
AnchorPoint: "abvm_deva" 2198 1589 basechar 0
LayerCount: 2
Fore
SplineSet
1782 1550 m 257
 1760 1490 l 257
 2592 1490 l 257
 2614 1550 l 257
 1782 1550 l 257
2255 1518 m 257
 1702 0 l 257
 1764 0 l 257
 2317 1518 l 257
 2255 1518 l 257
601 1547 m 257
 579 1487 l 257
 1601 1487 l 257
 1623 1547 l 257
 601 1547 l 257
1592 1550 m 257
 1040 34 l 257
 1098 34 l 257
 1650 1550 l 257
 1592 1550 l 257
447 894 m 257
 426 835 l 257
 2034 835 l 257
 2055 894 l 257
 447 894 l 257
36 65 m 257
 12 0 l 257
 1086 0 l 257
 1110 65 l 257
 36 65 l 257
EndSplineSet
EndChar

StartChar: uni0906
Encoding: 923 2310 923
GlifName: uni0906
Width: 2048
VWidth: 0
GlyphClass: 2
Flags: W
AnchorPoint: "abvm_deva" 2158 1602 basechar 0
LayerCount: 2
Fore
SplineSet
1613 1550 m 257
 1591 1489 l 257
 2592 1489 l 257
 2614 1550 l 257
 1613 1550 l 257
2073 1518 m 257
 1520 0 l 257
 1581 0 l 257
 2134 1518 l 257
 2073 1518 l 257
616 1547 m 257
 594 1487 l 257
 1417 1487 l 257
 1439 1547 l 257
 616 1547 l 257
1407 1550 m 257
 855 34 l 257
 914 34 l 257
 1466 1550 l 257
 1407 1550 l 257
462 894 m 257
 441 835 l 257
 1849 835 l 257
 1870 894 l 257
 462 894 l 257
52 65 m 257
 28 0 l 257
 902 0 l 257
 926 65 l 257
 52 65 l 257
2456 1518 m 257
 1903 0 l 257
 1964 0 l 257
 2517 1518 l 257
 2456 1518 l 257
EndSplineSet
EndChar

StartChar: uni0907
Encoding: 924 2311 924
GlifName: uni0907
Width: 2048
VWidth: 0
GlyphClass: 2
Flags: W
AnchorPoint: "abvm_deva" 2175 1592 basechar 0
LayerCount: 2
Fore
SplineSet
558 1550 m 257
 536 1489 l 257
 2597 1489 l 257
 2619 1550 l 257
 558 1550 l 257
1947 1529 m 257
 1817 1173 l 257
 1876 1173 l 257
 2006 1529 l 257
 1947 1529 l 257
607 1205 m 257
 584 1144 l 257
 1864 1144 l 257
 1887 1205 l 257
 607 1205 l 257
598 1181 m 257
 476 845 l 257
 534 845 l 257
 656 1181 l 257
 598 1181 l 257
489 881 m 257
 466 819 l 257
 1812 819 l 257
 1835 881 l 257
 489 881 l 257
1801 881 m 257
 1584 285 l 257
 1644 285 l 257
 1861 881 l 257
 1801 881 l 257
254 298 m 257
 232 237 l 257
 1628 237 l 257
 1650 298 l 257
 254 298 l 257
370 298 m 257
 173 -244 l 257
 233 -244 l 257
 430 298 l 257
 370 298 l 257
EndSplineSet
EndChar

StartChar: uni0908
Encoding: 925 2312 925
GlifName: uni0908
Width: 2048
VWidth: 0
GlyphClass: 2
Flags: W
AnchorPoint: "abvm_deva" 2243 1607 basechar 0
LayerCount: 2
Fore
SplineSet
558 1550 m 257
 536 1488 l 257
 2597 1488 l 257
 2619 1550 l 257
 558 1550 l 257
1957 1553 m 257
 1823 1183 l 257
 1883 1183 l 257
 2017 1553 l 257
 1957 1553 l 257
609 1207 m 257
 587 1146 l 257
 1869 1146 l 257
 1891 1207 l 257
 609 1207 l 257
600 1181 m 257
 479 849 l 257
 539 849 l 257
 660 1181 l 257
 600 1181 l 257
491 881 m 257
 469 821 l 257
 1821 821 l 257
 1843 881 l 257
 491 881 l 257
1805 881 m 257
 1588 285 l 257
 1648 285 l 257
 1865 881 l 257
 1805 881 l 257
256 298 m 257
 234 237 l 257
 1632 237 l 257
 1654 298 l 257
 256 298 l 257
372 298 m 257
 175 -244 l 257
 235 -244 l 257
 432 298 l 257
 372 298 l 257
993 1860 m 257
 1810 1550 l 257
 1914 1550 l 257
 1088 1908 l 257
 993 1860 l 257
EndSplineSet
EndChar

StartChar: uni0909
Encoding: 926 2313 926
GlifName: uni0909
Width: 2048
VWidth: 0
GlyphClass: 2
Flags: W
AnchorPoint: "abvm_deva" 2128 1560 basechar 0
LayerCount: 2
Fore
SplineSet
564 1550 m 257
 542 1488 l 257
 2592 1488 l 257
 2614 1550 l 257
 564 1550 l 257
1692 1530 m 257
 1499 1001 l 257
 1558 1001 l 257
 1751 1530 l 257
 1692 1530 l 257
630 1044 m 257
 609 985 l 257
 2051 985 l 257
 2072 1044 l 257
 630 1044 l 257
1995 994 m 257
 1633 0 l 257
 1693 0 l 257
 2055 994 l 257
 1995 994 l 257
167 61 m 257
 145 0 l 257
 1682 0 l 257
 1704 61 l 257
 167 61 l 257
271 346 m 257
 152 19 l 257
 211 19 l 257
 330 346 l 257
 271 346 l 257
EndSplineSet
EndChar

StartChar: uni090A
Encoding: 927 2314 927
GlifName: uni090A_
Width: 2048
VWidth: 0
GlyphClass: 2
Flags: W
AnchorPoint: "abvm_deva" 2195 1566 basechar 0
LayerCount: 2
Fore
SplineSet
560 1550 m 257
 538 1489 l 257
 2592 1489 l 257
 2614 1550 l 257
 560 1550 l 257
1503 1530 m 257
 1310 1001 l 257
 1371 1001 l 257
 1564 1530 l 257
 1503 1530 l 257
546 1044 m 257
 524 983 l 257
 2129 983 l 257
 2151 1044 l 257
 546 1044 l 257
1603 994 m 257
 1241 0 l 257
 1302 0 l 257
 1664 994 l 257
 1603 994 l 257
83 61 m 257
 61 0 l 257
 1299 0 l 257
 1321 61 l 257
 83 61 l 257
187 346 m 257
 68 19 l 257
 129 19 l 257
 248 346 l 257
 187 346 l 257
2083 1023 m 257
 1783 197 l 257
 1843 197 l 257
 2143 1023 l 257
 2083 1023 l 257
EndSplineSet
EndChar

StartChar: uni090B
Encoding: 928 2315 928
GlifName: uni090B_
Width: 2048
VWidth: 0
GlyphClass: 2
Flags: W
AnchorPoint: "abvm_deva" 2182 1561 basechar 0
LayerCount: 2
Fore
SplineSet
564 1550 m 257
 542 1488 l 257
 2589 1488 l 257
 2611 1550 l 257
 564 1550 l 257
1580 1533 m 257
 1022 0 l 257
 1081 0 l 257
 1639 1533 l 257
 1580 1533 l 257
400 1043 m 257
 378 983 l 257
 681 983 l 257
 703 1043 l 257
 400 1043 l 257
1214 471 m 257
 255 471 l 257
 321 417 l 257
 1230 417 l 257
 1214 471 l 257
703 1043 m 257
 681 983 l 257
 1397 902 l 257
 1418 958 l 257
 703 1043 l 257
1395 897 m 257
 1374 837 l 257
 2003 837 l 257
 2024 897 l 257
 1395 897 l 257
1982 897 m 257
 1752 265 l 257
 1813 265 l 257
 2043 897 l 257
 1982 897 l 257
1774 324 m 257
 1752 264 l 257
 2142 264 l 257
 2164 324 l 257
 1774 324 l 257
EndSplineSet
EndChar

StartChar: uni090C
Encoding: 929 2316 929
GlifName: uni090C_
Width: 2048
VWidth: 0
GlyphClass: 2
Flags: W
AnchorPoint: "abvm_deva" 2275 1588 basechar 0
LayerCount: 2
Fore
SplineSet
564 1550 m 257
 542 1488 l 257
 2590 1488 l 257
 2612 1550 l 257
 564 1550 l 257
1724 1550 m 257
 1436 759 l 257
 1496 759 l 257
 1784 1550 l 257
 1724 1550 l 257
2080 791 m 257
 344 791 l 257
 322 731 l 257
 2058 731 l 257
 2080 791 l 257
341 777 m 257
 150 252 l 257
 210 252 l 257
 401 777 l 257
 341 777 l 257
948 791 m 257
 818 433 l 257
 878 433 l 257
 1008 791 l 257
 948 791 l 257
2010 792 m 257
 1749 73 l 257
 1809 73 l 257
 2070 792 l 257
 2010 792 l 257
1814 132 m 257
 1792 71 l 257
 2072 71 l 257
 2094 132 l 257
 1814 132 l 257
EndSplineSet
EndChar

StartChar: uni090D
Encoding: 930 2317 930
GlifName: uni090D_
Width: 2048
VWidth: 0
GlyphClass: 2
Flags: W
AnchorPoint: "abvm_deva" 2275 1588 basechar 0
LayerCount: 2
Fore
SplineSet
564 1550 m 257
 542 1488 l 257
 2590 1488 l 257
 2612 1550 l 257
 564 1550 l 257
2449 1545 m 257
 2171 779 l 257
 2230 779 l 257
 2508 1545 l 257
 2449 1545 l 257
1372 839 m 257
 1351 779 l 257
 2230 779 l 257
 2251 839 l 257
 1372 839 l 257
708 1542 m 257
 270 338 l 257
 330 338 l 257
 768 1542 l 257
 708 1542 l 257
277 358 m 257
 255 297 l 257
 1282 297 l 257
 1304 358 l 257
 277 358 l 257
1251 358 m 257
 1085 -98 l 257
 1145 -98 l 257
 1311 358 l 257
 1251 358 l 257
378 -38 m 257
 356 -98 l 257
 1143 -98 l 257
 1165 -38 l 257
 378 -38 l 257
935 2124 m 257
 759 1639 l 257
 818 1639 l 257
 994 2124 l 257
 935 2124 l 257
827 1701 m 257
 805 1641 l 257
 2439 1641 l 257
 2461 1701 l 257
 827 1701 l 257
2559 2132 m 257
 2380 1641 l 257
 2439 1641 l 257
 2618 2132 l 257
 2559 2132 l 257
EndSplineSet
EndChar

StartChar: uni090E
Encoding: 931 2318 931
GlifName: uni090E_
Width: 2048
VWidth: 0
GlyphClass: 2
Flags: W
AnchorPoint: "abvm_deva" 2655 1660 basechar 0
LayerCount: 2
Fore
SplineSet
564 1550 m 257
 542 1488 l 257
 2591 1488 l 257
 2613 1550 l 257
 564 1550 l 257
2444 1545 m 257
 2166 779 l 257
 2224 779 l 257
 2502 1545 l 257
 2444 1545 l 257
1355 839 m 257
 1334 779 l 257
 2224 779 l 257
 2245 839 l 257
 1355 839 l 257
713 1542 m 257
 275 338 l 257
 335 338 l 257
 773 1542 l 257
 713 1542 l 257
282 358 m 257
 260 297 l 257
 1264 297 l 257
 1286 358 l 257
 282 358 l 257
1234 358 m 257
 1068 -98 l 257
 1128 -98 l 257
 1294 358 l 257
 1234 358 l 257
384 -38 m 257
 362 -98 l 257
 1126 -98 l 257
 1148 -38 l 257
 384 -38 l 257
1281 2062 m 257
 1194 1823 l 257
 1256 1823 l 257
 1343 2062 l 257
 1281 2062 l 257
1209 1866 m 257
 1188 1809 l 257
 2622 1809 l 257
 2643 1866 l 257
 1209 1866 l 257
2578 1840 m 257
 2462 1522 l 257
 2522 1522 l 257
 2638 1840 l 257
 2578 1840 l 257
EndSplineSet
EndChar

StartChar: uni090F
Encoding: 932 2319 932
GlifName: uni090F_
Width: 2048
VWidth: 0
GlyphClass: 2
Flags: W
AnchorPoint: "abvm_deva" 2220 1638 basechar 0
LayerCount: 2
Fore
SplineSet
559 1550 m 257
 537 1488 l 257
 2596 1488 l 257
 2618 1550 l 257
 559 1550 l 257
2454 1545 m 257
 2176 779 l 257
 2236 779 l 257
 2514 1545 l 257
 2454 1545 l 257
1451 839 m 257
 1430 779 l 257
 2236 779 l 257
 2257 839 l 257
 1451 839 l 257
703 1542 m 257
 265 338 l 257
 325 338 l 257
 763 1542 l 257
 703 1542 l 257
272 358 m 257
 250 297 l 257
 1362 297 l 257
 1384 358 l 257
 272 358 l 257
1330 358 m 257
 1164 -98 l 257
 1224 -98 l 257
 1390 358 l 257
 1330 358 l 257
372 -38 m 257
 350 -98 l 257
 1222 -98 l 257
 1244 -38 l 257
 372 -38 l 257
EndSplineSet
EndChar

StartChar: uni0910
Encoding: 933 2320 933
GlifName: uni0910
Width: 2048
VWidth: 0
GlyphClass: 2
Flags: W
AnchorPoint: "abvm_deva" 2598 1641 basechar 0
LayerCount: 2
Fore
SplineSet
559 1549 m 257
 537 1489 l 257
 2596 1489 l 257
 2618 1549 l 257
 559 1549 l 257
2452 1545 m 257
 2174 779 l 257
 2236 779 l 257
 2514 1545 l 257
 2452 1545 l 257
1452 840 m 257
 1430 779 l 257
 2236 779 l 257
 2258 840 l 257
 1452 840 l 257
703 1542 m 257
 265 338 l 257
 325 338 l 257
 763 1542 l 257
 703 1542 l 257
273 359 m 257
 250 297 l 257
 1362 297 l 257
 1385 359 l 257
 273 359 l 257
1344 358 m 257
 1178 -98 l 257
 1236 -98 l 257
 1402 358 l 257
 1344 358 l 257
373 -37 m 257
 350 -98 l 257
 1222 -98 l 257
 1245 -37 l 257
 373 -37 l 257
1782 1962 m 257
 2441 1547 l 257
 2513 1547 l 257
 1849 1998 l 257
 1782 1962 l 257
EndSplineSet
EndChar

StartChar: uni0911
Encoding: 934 2321 934
GlifName: uni0911
Width: 2048
VWidth: 0
GlyphClass: 2
Flags: W
AnchorPoint: "abvm_deva" 2742 1646 basechar 0
LayerCount: 2
Fore
SplineSet
1893 1548 m 257
 1872 1488 l 257
 2590 1488 l 257
 2611 1548 l 257
 1893 1548 l 257
1892 1506 m 257
 1344 0 l 257
 1406 0 l 257
 1954 1506 l 257
 1892 1506 l 257
590 1550 m 257
 568 1488 l 257
 1440 1488 l 257
 1462 1550 l 257
 590 1550 l 257
1428 1550 m 257
 875 30 l 257
 935 30 l 257
 1488 1550 l 257
 1428 1550 l 257
435 894 m 257
 414 834 l 257
 1686 834 l 257
 1707 894 l 257
 435 894 l 257
22 61 m 257
 0 0 l 257
 924 0 l 257
 946 61 l 257
 22 61 l 257
2383 1504 m 257
 1836 0 l 257
 1896 0 l 257
 2443 1504 l 257
 2383 1504 l 257
2085 2085 m 257
 1923 1639 l 257
 1985 1639 l 257
 2147 2085 l 257
 2085 2085 l 257
1951 1701 m 257
 1929 1641 l 257
 2645 1641 l 257
 2667 1701 l 257
 1951 1701 l 257
2734 2083 m 257
 2573 1641 l 257
 2645 1641 l 257
 2806 2083 l 257
 2734 2083 l 257
EndSplineSet
EndChar

StartChar: uni0912
Encoding: 935 2322 935
GlifName: uni0912
Width: 2048
VWidth: 0
GlyphClass: 2
Flags: W
AnchorPoint: "abvm_deva" 2611 1568 basechar 0
LayerCount: 2
Fore
SplineSet
1619 1548 m 257
 1598 1488 l 257
 2590 1488 l 257
 2611 1548 l 257
 1619 1548 l 257
1978 1518 m 257
 1425 0 l 257
 1486 0 l 257
 2039 1518 l 257
 1978 1518 l 257
604 1547 m 257
 582 1487 l 257
 1438 1487 l 257
 1460 1547 l 257
 604 1547 l 257
1428 1550 m 257
 876 34 l 257
 935 34 l 257
 1487 1550 l 257
 1428 1550 l 257
450 894 m 257
 429 835 l 257
 1754 835 l 257
 1775 894 l 257
 450 894 l 257
40 65 m 257
 16 0 l 257
 923 0 l 257
 947 65 l 257
 40 65 l 257
2468 1518 m 257
 1915 0 l 257
 1976 0 l 257
 2529 1518 l 257
 2468 1518 l 257
1008 2062 m 257
 921 1823 l 257
 982 1823 l 257
 1069 2062 l 257
 1008 2062 l 257
935 1866 m 257
 914 1809 l 257
 2621 1809 l 257
 2642 1866 l 257
 935 1866 l 257
2585 1866 m 257
 2464 1534 l 257
 2524 1534 l 257
 2645 1866 l 257
 2585 1866 l 257
EndSplineSet
EndChar

StartChar: uni0913
Encoding: 936 2323 936
GlifName: uni0913
Width: 2048
VWidth: 0
GlyphClass: 2
Flags: W
AnchorPoint: "abvm_deva" 2642 1553 basechar 0
LayerCount: 2
Fore
SplineSet
1592 1549 m 257
 1570 1489 l 257
 2590 1489 l 257
 2612 1549 l 257
 1592 1549 l 257
2107 1518 m 257
 1554 0 l 257
 1616 0 l 257
 2169 1518 l 257
 2107 1518 l 257
601 1547 m 257
 579 1487 l 257
 1413 1487 l 257
 1435 1547 l 257
 601 1547 l 257
1404 1550 m 257
 852 34 l 257
 910 34 l 257
 1462 1550 l 257
 1404 1550 l 257
447 894 m 257
 426 835 l 257
 1884 835 l 257
 1905 894 l 257
 447 894 l 257
36 65 m 257
 12 0 l 257
 898 0 l 257
 922 65 l 257
 36 65 l 257
2471 1518 m 257
 1918 0 l 257
 1980 0 l 257
 2533 1518 l 257
 2471 1518 l 257
2088 1807 m 257
 2463 1529 l 257
 2546 1550 l 257
 2167 1826 l 257
 2088 1807 l 257
EndSplineSet
EndChar

StartChar: uni0914
Encoding: 937 2324 937
GlifName: uni0914
Width: 2048
VWidth: 0
GlyphClass: 2
Flags: W
AnchorPoint: "abvm_deva" 2455 1599 basechar 0
LayerCount: 2
Fore
SplineSet
1919 1553 m 257
 1898 1494 l 257
 2580 1494 l 257
 2601 1553 l 257
 1919 1553 l 257
2107 1518 m 257
 1554 0 l 257
 1616 0 l 257
 2169 1518 l 257
 2107 1518 l 257
601 1547 m 257
 579 1487 l 257
 1413 1487 l 257
 1435 1547 l 257
 601 1547 l 257
1404 1550 m 257
 852 34 l 257
 910 34 l 257
 1462 1550 l 257
 1404 1550 l 257
447 894 m 257
 426 835 l 257
 1884 835 l 257
 1905 894 l 257
 447 894 l 257
36 65 m 257
 12 0 l 257
 898 0 l 257
 922 65 l 257
 36 65 l 257
2471 1518 m 257
 1918 0 l 257
 1980 0 l 257
 2533 1518 l 257
 2471 1518 l 257
1590 1682 m 257
 2105 1525 l 257
 2175 1540 l 257
 1650 1731 l 257
 1590 1682 l 257
1727 1751 m 257
 2188 1550 l 257
 2270 1550 l 257
 1793 1783 l 257
 1727 1751 l 257
EndSplineSet
EndChar

StartChar: uni0915
Encoding: 938 2325 938
GlifName: uni0915
Width: 2048
VWidth: 0
GlyphClass: 2
Flags: W
AnchorPoint: "abvm_deva" 1783 1635 basechar 0
AnchorPoint: "blwm_deva" 1196 -64 basechar 0
LayerCount: 2
Fore
SplineSet
565 1553 m 257
 535 1469 l 257
 2583 1469 l 257
 2613 1553 l 257
 565 1553 l 257
1663 1518 m 257
 1129 51 l 257
 1183 51 l 257
 1717 1518 l 257
 1663 1518 l 257
570 1069 m 257
 549 1010 l 257
 1390 1010 l 257
 1411 1069 l 257
 570 1069 l 257
559 1068 m 257
 390 604 l 257
 450 604 l 257
 619 1068 l 257
 559 1068 l 257
431 675 m 257
 405 605 l 257
 1377 605 l 257
 1403 675 l 257
 431 675 l 257
1499 999 m 257
 1478 942 l 257
 2255 942 l 257
 2276 999 l 257
 1499 999 l 257
2226 1000 m 257
 2146 779 l 257
 2204 779 l 257
 2284 1000 l 257
 2226 1000 l 257
EndSplineSet
EndChar

StartChar: uni0915_uni0930_uni094D.vatu
Encoding: 939 -1 939
GlifName: uni0915_uni0930_uni094D_.vatu
Width: 2048
VWidth: 0
GlyphClass: 3
Flags: W
AnchorPoint: "abvm_deva" 1694 1645 basechar 0
AnchorPoint: "blwm_deva" 1127 -37 basechar 0
LayerCount: 2
Fore
SplineSet
565 1553 m 257
 535 1469 l 257
 2583 1469 l 257
 2613 1553 l 257
 565 1553 l 257
1663 1518 m 257
 1129 51 l 257
 1183 51 l 257
 1717 1518 l 257
 1663 1518 l 257
570 1069 m 257
 549 1010 l 257
 1388 1010 l 257
 1409 1069 l 257
 570 1069 l 257
559 1068 m 257
 390 604 l 257
 450 604 l 257
 619 1068 l 257
 559 1068 l 257
431 675 m 257
 405 605 l 257
 1377 605 l 257
 1403 675 l 257
 431 675 l 257
1498 999 m 257
 1478 942 l 257
 2255 942 l 257
 2276 999 l 257
 1498 999 l 257
2226 1000 m 257
 2146 779 l 257
 2204 779 l 257
 2284 1000 l 257
 2226 1000 l 257
189 -3 m 257
 311 -3 l 257
 1267 299 l 257
 1288 358 l 257
 189 -3 l 257
EndSplineSet
Ligature2: "rkrfRakarVariantsinDevanagari2lookup0 subtable" uni0915 uni094D uni0930
EndChar

StartChar: uni0915_uni094D.half
Encoding: 940 -1 940
GlifName: uni0915_uni094D_.half
Width: 2048
VWidth: 0
GlyphClass: 2
Flags: W
AnchorPoint: "abvm_deva" 1680 1626 basechar 0
AnchorPoint: "blwm_deva" 1113 -56 basechar 0
LayerCount: 2
Fore
SplineSet
564 1550 m 257
 538 1478 l 257
 2586 1478 l 257
 2612 1550 l 257
 564 1550 l 257
1663 1518 m 257
 1129 51 l 257
 1183 51 l 257
 1717 1518 l 257
 1663 1518 l 257
570 1069 m 257
 549 1010 l 257
 1390 1010 l 257
 1411 1069 l 257
 570 1069 l 257
559 1068 m 257
 390 604 l 257
 450 604 l 257
 619 1068 l 257
 559 1068 l 257
431 675 m 257
 405 605 l 257
 1377 605 l 257
 1403 675 l 257
 431 675 l 257
1499 999 m 257
 1478 942 l 257
 2508 942 l 257
 2529 999 l 257
 1499 999 l 257
EndSplineSet
Ligature2: "halfHalfFormsinDevanagari2lookup0 subtable" uni0915 uni094D
EndChar

StartChar: uni0915_uni094D.haln
Encoding: 941 -1 941
GlifName: uni0915_uni094D_.haln
Width: 2048
VWidth: 0
GlyphClass: 3
Flags: W
AnchorPoint: "abvm_deva" 2298 1622 basechar 0
AnchorPoint: "blwm_deva" 1089 -65 basechar 0
LayerCount: 2
Fore
SplineSet
359 1553 m 257
 328 1469 l 257
 2376 1469 l 257
 2407 1553 l 257
 359 1553 l 257
1456 1518 m 257
 922 51 l 257
 976 51 l 257
 1510 1518 l 257
 1456 1518 l 257
364 1069 m 257
 342 1010 l 257
 1183 1010 l 257
 1205 1069 l 257
 364 1069 l 257
352 1068 m 257
 183 604 l 257
 243 604 l 257
 412 1068 l 257
 352 1068 l 257
224 675 m 257
 199 605 l 257
 1171 605 l 257
 1196 675 l 257
 224 675 l 257
1292 999 m 257
 1271 942 l 257
 2048 942 l 257
 2069 999 l 257
 1292 999 l 257
2019 1000 m 257
 1939 779 l 257
 1997 779 l 257
 2077 1000 l 257
 2019 1000 l 257
923 -16 m 257
 900 -77 l 257
 1244 -77 l 257
 1267 -16 l 257
 923 -16 l 257
1218 -71 m 257
 1582 -418 l 257
 1631 -366 l 257
 1267 -15 l 257
 1218 -71 l 257
EndSplineSet
Ligature2: "halnHalantFormsinDevanagari2lookup0 subtable" uni0915 uni094D
EndChar

StartChar: uni0915_uni094D_uni0937.akhn
Encoding: 942 -1 942
GlifName: uni0915_uni094D__uni0937.akhn
Width: 2048
VWidth: 0
GlyphClass: 3
Flags: W
AnchorPoint: "abvm_deva" 2365 1542 basechar 0
AnchorPoint: "blwm_deva" 1798 -140 basechar 0
LayerCount: 2
Fore
SplineSet
2253 1550 m 257
 2232 1491 l 257
 2591 1491 l 257
 2612 1550 l 257
 2253 1550 l 257
2436 1511 m 257
 1887 4 l 257
 1946 4 l 257
 2495 1511 l 257
 2436 1511 l 257
518 1078 m 257
 497 1018 l 257
 2316 1018 l 257
 2337 1078 l 257
 518 1078 l 257
498 1023 m 257
 558 1023 l 257
 704 1422 l 257
 644 1422 l 257
 498 1023 l 257
649 1435 m 257
 627 1374 l 257
 1579 1374 l 257
 1601 1435 l 257
 649 1435 l 257
1536 1422 m 257
 1393 1030 l 257
 1453 1030 l 257
 1596 1422 l 257
 1536 1422 l 257
393 647 m 257
 453 647 l 257
 1451 1028 l 257
 1393 1028 l 257
 393 647 l 257
393 647 m 257
 231 200 l 257
 291 200 l 257
 453 647 l 257
 393 647 l 257
240 226 m 257
 218 166 l 257
 1966 166 l 257
 1988 226 l 257
 240 226 l 257
EndSplineSet
Ligature2: "akhnAkhandinDevanagari2lookup0 subtable" uni0915 uni094D uni0937
EndChar

